<?xml version="1.0" encoding="UTF-8"?>
<svg width="440px" height="471px" viewBox="0 0 440 471" version="1.1" xmlns="http://www.w3.org/2000/svg" xmlns:xlink="http://www.w3.org/1999/xlink">
    <!-- Generator: sketchtool 52.2 (67145) - http://www.bohemiancoding.com/sketch -->
    <title>442B6966-BAB5-4E37-AD66-3830FDADF620</title>
    <desc>Created with sketchtool.</desc>
    <defs>
        <linearGradient x1="49.9682136%" y1="100%" x2="49.9682136%" y2="0%" id="linearGradient-1">
            <stop stop-color="#808080" stop-opacity="0.25" offset="0%"></stop>
            <stop stop-color="#808080" stop-opacity="0.12" offset="54%"></stop>
            <stop stop-color="#808080" stop-opacity="0.1" offset="100%"></stop>
        </linearGradient>
        <linearGradient x1="50.0072822%" y1="100%" x2="50.0072822%" y2="-0.00164143619%" id="linearGradient-2">
            <stop stop-color="#808080" stop-opacity="0.25" offset="0%"></stop>
            <stop stop-color="#808080" stop-opacity="0.12" offset="54%"></stop>
            <stop stop-color="#808080" stop-opacity="0.1" offset="100%"></stop>
        </linearGradient>
        <linearGradient x1="50%" y1="0%" x2="50%" y2="100%" id="linearGradient-3">
            <stop stop-color="#FAD961" offset="0%"></stop>
            <stop stop-color="#F76B1C" offset="100%"></stop>
        </linearGradient>
        <linearGradient x1="50.2111538%" y1="99.9762007%" x2="50.2111538%" y2="0%" id="linearGradient-4">
            <stop stop-color="#808080" stop-opacity="0.25" offset="0%"></stop>
            <stop stop-color="#808080" stop-opacity="0.12" offset="54%"></stop>
            <stop stop-color="#808080" stop-opacity="0.1" offset="100%"></stop>
        </linearGradient>
        <linearGradient x1="50.028001%" y1="99.9791388%" x2="50.028001%" y2="0%" id="linearGradient-5">
            <stop stop-color="#808080" stop-opacity="0.25" offset="0%"></stop>
            <stop stop-color="#808080" stop-opacity="0.12" offset="54%"></stop>
            <stop stop-color="#808080" stop-opacity="0.1" offset="100%"></stop>
        </linearGradient>
        <linearGradient x1="50.0094566%" y1="99.9910129%" x2="50.0094566%" y2="0%" id="linearGradient-6">
            <stop stop-color="#808080" stop-opacity="0.25" offset="0%"></stop>
            <stop stop-color="#808080" stop-opacity="0.12" offset="54%"></stop>
            <stop stop-color="#808080" stop-opacity="0.1" offset="100%"></stop>
        </linearGradient>
        <linearGradient x1="0%" y1="50%" x2="100%" y2="50%" id="linearGradient-7">
            <stop stop-color="#808080" stop-opacity="0.25" offset="0%"></stop>
            <stop stop-color="#808080" stop-opacity="0.12" offset="54%"></stop>
            <stop stop-color="#808080" stop-opacity="0.1" offset="100%"></stop>
        </linearGradient>
        <linearGradient x1="0%" y1="49.9396864%" x2="100%" y2="49.9396864%" id="linearGradient-8">
            <stop stop-color="#808080" stop-opacity="0.25" offset="0%"></stop>
            <stop stop-color="#808080" stop-opacity="0.12" offset="54%"></stop>
            <stop stop-color="#808080" stop-opacity="0.1" offset="100%"></stop>
        </linearGradient>
        <linearGradient x1="0%" y1="50.0108249%" x2="100%" y2="50.0108249%" id="linearGradient-9">
            <stop stop-color="#808080" stop-opacity="0.25" offset="0%"></stop>
            <stop stop-color="#808080" stop-opacity="0.12" offset="54%"></stop>
            <stop stop-color="#808080" stop-opacity="0.1" offset="100%"></stop>
        </linearGradient>
        <linearGradient x1="0%" y1="49.9648135%" x2="100%" y2="49.9648135%" id="linearGradient-10">
            <stop stop-color="#808080" stop-opacity="0.25" offset="0%"></stop>
            <stop stop-color="#808080" stop-opacity="0.12" offset="54%"></stop>
            <stop stop-color="#808080" stop-opacity="0.1" offset="100%"></stop>
        </linearGradient>
        <linearGradient x1="0%" y1="49.9943458%" x2="100%" y2="49.9943458%" id="linearGradient-11">
            <stop stop-color="#808080" stop-opacity="0.25" offset="0%"></stop>
            <stop stop-color="#808080" stop-opacity="0.12" offset="54%"></stop>
            <stop stop-color="#808080" stop-opacity="0.1" offset="100%"></stop>
        </linearGradient>
        <linearGradient x1="0%" y1="49.9559366%" x2="100%" y2="49.9559366%" id="linearGradient-12">
            <stop stop-color="#808080" stop-opacity="0.25" offset="0%"></stop>
            <stop stop-color="#808080" stop-opacity="0.12" offset="54%"></stop>
            <stop stop-color="#808080" stop-opacity="0.1" offset="100%"></stop>
        </linearGradient>
        <linearGradient x1="0.0086502794%" y1="49.7902453%" x2="100.023826%" y2="49.7902453%" id="linearGradient-13">
            <stop stop-color="#808080" stop-opacity="0.25" offset="0%"></stop>
            <stop stop-color="#808080" stop-opacity="0.12" offset="54%"></stop>
            <stop stop-color="#808080" stop-opacity="0.1" offset="100%"></stop>
        </linearGradient>
        <linearGradient x1="0.0086502794%" y1="49.7203448%" x2="100.023826%" y2="49.7203448%" id="linearGradient-14">
            <stop stop-color="#808080" stop-opacity="0.25" offset="0%"></stop>
            <stop stop-color="#808080" stop-opacity="0.12" offset="54%"></stop>
            <stop stop-color="#808080" stop-opacity="0.1" offset="100%"></stop>
        </linearGradient>
        <linearGradient x1="-0.115207373%" y1="50%" x2="100%" y2="50%" id="linearGradient-15">
            <stop stop-color="#808080" stop-opacity="0.25" offset="0%"></stop>
            <stop stop-color="#808080" stop-opacity="0.12" offset="54%"></stop>
            <stop stop-color="#808080" stop-opacity="0.1" offset="100%"></stop>
        </linearGradient>
        <linearGradient x1="0%" y1="49.8118787%" x2="99.8601007%" y2="49.8118787%" id="linearGradient-16">
            <stop stop-color="#808080" stop-opacity="0.25" offset="0%"></stop>
            <stop stop-color="#808080" stop-opacity="0.12" offset="54%"></stop>
            <stop stop-color="#808080" stop-opacity="0.1" offset="100%"></stop>
        </linearGradient>
        <linearGradient x1="0%" y1="49.9914428%" x2="100%" y2="49.9914428%" id="linearGradient-17">
            <stop stop-color="#808080" stop-opacity="0.25" offset="0%"></stop>
            <stop stop-color="#808080" stop-opacity="0.12" offset="54%"></stop>
            <stop stop-color="#808080" stop-opacity="0.1" offset="100%"></stop>
        </linearGradient>
        <linearGradient x1="-0.0741656366%" y1="50%" x2="100%" y2="50%" id="linearGradient-18">
            <stop stop-color="#808080" stop-opacity="0.25" offset="0%"></stop>
            <stop stop-color="#808080" stop-opacity="0.12" offset="54%"></stop>
            <stop stop-color="#808080" stop-opacity="0.1" offset="100%"></stop>
        </linearGradient>
        <linearGradient x1="0%" y1="49.9207607%" x2="100%" y2="49.9207607%" id="linearGradient-19">
            <stop stop-color="#808080" stop-opacity="0.25" offset="0%"></stop>
            <stop stop-color="#808080" stop-opacity="0.12" offset="54%"></stop>
            <stop stop-color="#808080" stop-opacity="0.1" offset="100%"></stop>
        </linearGradient>
        <linearGradient x1="0.174367916%" y1="49.9207607%" x2="100%" y2="49.9207607%" id="linearGradient-20">
            <stop stop-color="#808080" stop-opacity="0.25" offset="0%"></stop>
            <stop stop-color="#808080" stop-opacity="0.12" offset="54%"></stop>
            <stop stop-color="#808080" stop-opacity="0.1" offset="100%"></stop>
        </linearGradient>
    </defs>
    <g id="Page-1" stroke="none" stroke-width="1" fill="none" fill-rule="evenodd">
        <g id="Artboard" transform="translate(-407.000000, -757.000000)">
            <g id="4" transform="translate(407.000000, 757.000000)">
                <g id="undraw_bitcoin2_ave7-(1)">
                    <polygon id="Path" fill="#000000" points="83 75.5729077 90.2251309 73 92.1230366 76.811044 93 85.9188956 91.3835079 87"></polygon>
                    <polygon id="Path" fill="#000000" points="117.286966 95 109 99.8907939 117.707558 113 119.738226 111.490496 121 101.08498"></polygon>
                    <g id="Group" opacity="0.05" transform="translate(91.000000, 34.000000)" fill="#000000">
                        <path d="M42.7625316,0.484615385 C41.1227848,2.96584615 39.5927848,5.65384615 39.121519,7.54061538 L40.4126582,6.64892308 C40.2512658,5.24676923 41.3164557,2.92061538 42.7625316,0.484615385 Z" id="Path"></path>
                        <path d="M50.1026582,34.2526154 L51,15.3655385 C30.9873418,28.0753846 1.7043038,39.6738462 1.7043038,39.6738462 L0.290506329,41.916 C0.290506329,41.916 29.6058228,30.3175385 49.5862025,17.6076923 L48.746962,35.3963077 L50.1026582,34.2526154 Z" id="Path"></path>
                    </g>
                    <g id="Group" opacity="0.5" transform="translate(81.000000, 0.000000)">
                        <polygon id="Path" fill="url(#linearGradient-1)" points="8.72532663 88.3629545 10.3718593 87.1646591 9.48376884 77.1054545 7.54552764 72.9017045 0.175025126 75.7452273"></polygon>
                        <path d="M120.948844,1.21772727 C116.469497,-0.932727273 113.11809,0.0777272727 110.771457,1.86545455 C108.676659,3.4417371 107.040825,5.5480757 106.032814,7.96704545 L105.384573,9.68352273 L102.350804,11.8857955 L101.365477,9.78068182 C101.365477,9.78068182 90.6241206,-9.28840909 58.9380905,27.9494318 L58.7954774,27.8328409 C58.7954774,27.8328409 56.098794,31.1297727 53.6419598,34.8282955 L53.2919095,35.3594318 L53.1363317,35.5990909 L52.9159296,35.9423864 L52.7538693,36.2014773 L52.5075377,36.6095455 L52.2936181,36.9593182 L52.0667337,37.3414773 L51.9046734,37.62 L51.7361307,37.9114773 L51.5740704,38.2029545 L51.4055276,38.5138636 L51.159196,38.9802273 L51.0230653,39.2393182 L50.8739698,39.54375 L50.7637688,39.7769318 L50.6211558,40.0813636 L50.530402,40.2821591 C50.4526131,40.4635227 50.3791457,40.6405682 50.31,40.8132955 L50.2322111,41.0140909 L50.1284925,41.2990909 L50.0636683,41.4934091 C50.0161307,41.6402273 49.9729146,41.7848864 49.9340201,41.9273864 C49.9340201,42.0051136 49.8886432,42.0763636 49.8756784,42.1476136 C49.7486155,42.602434 49.7003817,43.0756266 49.7330653,43.5467045 L7.54552764,72.8822727 L9.71065327,77.5847727 C9.71065327,77.5847727 40.0288945,65.6147727 60.6948241,52.4853409 L59.8261809,70.8484091 L59.7743216,71.9819318 C59.7743216,71.9819318 40.8975377,87.5986364 35.9838693,95.5527273 L27.5567337,100.417159 L36.4052261,113.449432 L38.4666332,111.953182 L39.7631156,101.589545 L74.3986432,73.9251136 C74.3986432,73.9251136 80.9653266,61.9356818 81.0820101,51.9023864 L82.5016583,57.3756818 C82.5016583,57.3756818 85.5224623,65.8544318 87.6551759,66.19125 C89.7878894,66.5280682 89.7943719,59.6168182 88.3034171,57.5635227 C86.8124623,55.5102273 87.5125628,41.7913636 87.5125628,41.7913636 L87.9015075,38.9996591 L93.320804,35.0614773 L93.5217588,34.8736364 L93.8069849,36.5965909 L94.8960302,36.69375 L94.8960302,36.7714773 L94.9478894,37.2702273 L95.6479899,50.3478409 L99.4855779,65.1419318 C99.4855779,65.1419318 102.506382,73.6206818 104.639095,73.9575 C106.771809,74.2943182 106.778291,67.3830682 105.287337,65.3297727 C103.796382,63.2764773 104.502965,49.5640909 104.502965,49.5640909 L106.084673,38.1446591 L106.084673,37.9244318 L106.117085,37.6718182 L109.235126,37.9438636 C109.235126,37.9438636 112.476332,26.8094318 107.050553,21.9579545 L106.065226,19.8528409 L108.087739,18.3889773 L108.496131,18.0975 C112.061254,21.5823474 117.7597,21.5823474 121.324824,18.0975 C122.84129,18.238421 124.35833,17.8341977 125.603216,16.9575 L126.387588,16.3939773 C127.231484,15.858571 127.993486,15.2040749 128.64995,14.4507955 C129.200955,13.4273864 127.885025,4.54056818 120.948844,1.21772727 Z" id="Path" fill="url(#linearGradient-2)"></path>
                    </g>
                    <path d="M138.508961,29 C138.508961,29 129.335621,40.3252576 129.767535,44.2956066 L89,72.966733 L91.0886593,77.5554149 C91.0886593,77.5554149 120.362122,65.872175 140.313976,53.0694269 L139.424361,72.120593 C139.424361,72.120593 121.200164,87.3315856 116.462002,95.0965467 L120.104263,101 L153.548598,74.008136 C153.548598,74.008136 163.469729,55.7054782 158.705781,45.7210269 L138.508961,29 Z" id="Path" fill="#535461"></path>
                    <path d="M433.416802,304.231314 C404.029536,422.076278 284.648206,493.803788 166.763659,464.413507 C48.8791111,435.023226 -22.811623,315.6494 6.59499742,197.791534 C36.0016178,79.933668 155.35069,8.19970691 273.196528,37.5835372 C391.042365,66.9673675 462.804067,186.354096 433.416802,304.231314 Z" id="Path" fill="url(#linearGradient-3)"></path>
                    <path d="M317.448253,219.171128 C321.840138,189.852353 299.492624,174.094642 268.937007,163.608883 L278.852706,123.894799 L254.648828,117.866941 L244.991856,156.502084 C238.627181,154.919206 232.094333,153.426778 225.587358,151.940811 L235.289607,113.014936 L211.137475,107 L201.215308,146.701162 C195.950221,145.505928 190.775688,144.317155 185.762859,143.070234 L185.762859,142.947481 L152.406526,134.600222 L145.93836,160.443127 C145.93836,160.443127 163.893989,164.552149 163.518836,164.810578 C173.318107,167.252732 175.090385,173.732841 174.799317,178.869118 L163.505899,224.094202 C164.361473,224.307837 165.202003,224.57762 166.022016,224.901792 C165.213495,224.70151 164.353229,224.481845 163.43475,224.25572 L147.607147,287.635444 C146.410536,290.607378 143.370498,295.07174 136.514242,293.379029 C136.753564,293.727908 118.92083,288.992196 118.92083,288.992196 L107,316.69579 L138.46116,324.545572 C144.321319,326.012157 150.06505,327.54981 155.718227,328.990552 L145.705506,369.124583 L169.883511,375.152441 L179.805678,335.412514 C186.409676,337.202135 192.819628,338.856081 199.093749,340.413116 L189.210392,379.972142 L213.414269,386 L223.42699,345.924115 C264.700359,353.722212 295.73462,350.575838 308.806784,313.290987 C319.33049,283.267993 308.282862,265.953247 286.569228,254.659897 C302.338617,251.022508 314.272384,240.633661 317.448253,219.171128 Z M262.151901,296.622314 C254.674701,326.645308 204.067769,310.415964 187.6645,306.313403 L200.956581,253.096401 C217.359851,257.218345 269.997787,265.313635 262.151901,296.622314 Z M269.635569,218.731799 C262.811654,246.041288 220.690956,232.163649 207.030189,228.765307 L219.080383,180.471378 C232.747618,183.902024 276.744084,190.252918 269.635569,218.731799 Z" id="Shape" fill="#FFFFFF" fill-rule="nonzero"></path>
                    <path d="M173,31 L174.063209,51.0067999 L177.784441,65.4077984 C177.784441,65.4077984 180.714749,73.6638513 182.789303,73.988637 C184.863857,74.3134227 184.87034,67.5838627 183.437601,65.5831827 C182.004862,63.5825027 182.692058,50.2338099 182.692058,50.2338099 L185,33.2475171 L173,31 Z" id="Path" fill="#FDA57D"></path>
                    <path d="M172,33.625 L172.555482,36.75 L188.042039,38 C188.042039,38 191.281233,27.56875 185.846883,23 L172,33.625 Z" id="Path" fill="#F55F44"></path>
                    <path d="M185,22.6092109 L179.449586,10.7510594 C179.449586,10.7510594 168.96547,-7.89060455 138,28.6779854 L158.422928,45 L171.640055,35.3835264 L185,22.6092109 Z" id="Path" fill="#F55F44"></path>
                    <path d="M181.636664,6.62052429 L189.999037,6.62604931 L190.007803,19.8877108 C190.009077,21.8141966 188.447714,23.3748895 186.520401,23.3736162 L185.143906,23.3727067 C183.216593,23.3714333 181.653166,21.8086758 181.651892,19.8821901 L181.643127,6.62052856 L181.636664,6.62052429 Z" id="Path" fill="#FDA57D" transform="translate(185.822234, 14.997071) rotate(53.990000) translate(-185.822234, -14.997071) "></path>
                    <path d="M184.328886,10.9239802 C183.443545,14.1742163 184.376144,17.6571956 186.759074,20 L192,16.118047 L186.919306,9 L184.328886,10.9239802 Z" id="Path" fill="#000000" opacity="0.05"></path>
                    <ellipse id="Oval" fill="#FDA57D" transform="translate(193.379016, 12.835697) rotate(-36.010000) translate(-193.379016, -12.835697) " cx="193.379016" cy="12.8356974" rx="8.86910145" ry="8.85351925"></ellipse>
                    <path d="M189.064761,7.92373122 L184,11.4976397 L184.638684,9.75788804 C184.638684,9.75788804 188.802901,-1.70559213 198.510892,3.23719079 C205.146815,6.60880261 206.405022,15.57729 205.900462,16.60226 C205.151427,17.4624615 204.291407,18.207029 203.345727,18.8140374 C200.763214,20.746451 197.209757,20.271992 195.16419,17.7216352 C193.465291,15.5840333 190.501799,11.1604786 191.04468,8.62502647 C190.546507,7.66748872 189.89505,7.27638175 189.058374,7.95070411 L189.064761,7.92373122 Z" id="Path" fill="#000000" opacity="0.05"></path>
                    <path d="M190.064761,6.92373122 L185,10.4976397 L185.638684,8.75788804 C185.638684,8.75788804 189.802901,-2.70559213 199.510892,2.23719079 C206.146815,5.60880261 207.405022,14.57729 206.900462,15.60226 C206.151427,16.4624615 205.291407,17.207029 204.345727,17.8140374 C201.763214,19.746451 198.209757,19.271992 196.16419,16.7216352 C194.465291,14.5840333 191.501799,10.1604786 192.04468,7.62502647 C191.546507,6.66748872 190.89505,6.27638175 190.058374,6.95070411 L190.064761,6.92373122 Z" id="Path" fill="#5A2F32"></path>
                    <ellipse id="Oval" fill="#FDA57D" transform="translate(190.830110, 7.092551) rotate(-36.069410) translate(-190.830110, -7.092551) " cx="190.83011" cy="7.09255122" rx="1.97432914" ry="1"></ellipse>
                    <polygon id="Path" fill="#000000" opacity="0.05" points="171 34.9002037 172.978202 33 173 36 172.569482 34.8452138"></polygon>
                    <polygon id="Path" fill="#000000" opacity="0.05" points="174 38 174.052164 38.368932 184.934795 39 185 38.6553398"></polygon>
                    <path d="M157,24 L158.060916,43.5562967 L161.774124,57.6012734 C161.774124,57.6012734 164.698113,65.6714205 166.768194,65.9888928 C168.838275,66.3063652 168.844744,59.7283381 167.415094,57.7727084 C165.985445,55.8170788 166.658221,42.8007125 166.658221,42.8007125 L169,26.1969087 L157,24 Z" id="Path" fill="#FDA57D"></path>
                    <rect id="Rectangle" fill="#CCCCCC" x="245" y="175" width="1" height="1"></rect>
                    <path d="M242.566667,177 L245.433333,177 C245.848839,177 246.247327,177.161727 246.541134,177.449602 C246.834941,177.737477 247,178.127919 247,178.535036 L247,188 L241,188 L241,178.535036 C241,178.127919 241.165059,177.737477 241.458866,177.449602 C241.752673,177.161727 242.151161,177 242.566667,177 Z" id="Path" fill="#535461"></path>
                    <rect id="Rectangle" fill="#F7931A" x="244" y="177" width="3" height="1"></rect>
                    <rect id="Rectangle" fill="#F7931A" x="241" y="181" width="6" height="2"></rect>
                    <path d="M245.79,175.065 L245.79,175.935 C245.47,175.935 245.21,175.735 245.21,175.495 C245.21,175.255 245.47,175.065 245.79,175.065 Z" id="Path" fill="#E6E6E6"></path>
                    <path d="M158,13 C158,13 155.061909,19.7093275 156.307906,22" id="Path" fill="#000000" opacity="0.05"></path>
                    <polygon id="Path" fill="#000000" opacity="0.05" points="157.006469 22 157 23.1482966 168.857682 25 169 24.0801603"></polygon>
                    <polygon id="Path" fill="#F55F44" points="160.520478 11.5073171 158 21.8058537 169.073379 24 172 11"></polygon>
                    <g id="Group" opacity="0.5" transform="translate(159.000000, 49.000000)" fill="url(#linearGradient-4)">
                        <path d="M0.44,0.392142857 L2.87333333,9.27642857 C2.87333333,9.27642857 6.01333333,17.6335714 8.20666667,17.9485714 C10.4,18.2635714 10.4333333,11.475 8.87333333,9.45642857 C8.05333333,8.39571429 7.88,4.16571429 7.89333333,0.392142857 L0.44,0.392142857 Z" id="Path"></path>
                    </g>
                    <path d="M160,49 L162.293031,58.1017495 C162.293031,58.1017495 165.245879,66.6518778 167.336392,66.9882322 C169.426904,67.3245866 169.433437,60.3553239 167.989677,58.2833809 C167.2188,57.1935927 167.055479,52.8613483 167.068545,49 L160,49 Z" id="Path" fill="#FDA57D"></path>
                    <g id="Group" opacity="0.5" transform="translate(173.000000, 49.000000)" fill="url(#linearGradient-5)">
                        <path d="M10.0466667,0.0253658537 L0.313333333,0.0253658537 L0.446666667,2.34634146 L4.5,16.817561 C4.5,16.817561 7.69333333,25.1121951 9.94666667,25.4419512 C12.2,25.7717073 12.2066667,19.0053659 10.6133333,17.0014634 C9.02,14.997561 9.82,1.59804878 9.82,1.59804878 L10.0466667,0.0253658537 Z" id="Path"></path>
                    </g>
                    <path d="M183.37238,49 L174,49 L174.12904,51.2845412 L178.027407,65.511586 C178.027407,65.511586 181.0972,73.6679117 183.270506,73.9887742 C185.443811,74.3096368 185.450603,67.661365 183.949664,65.6848518 C182.448725,63.7083386 183.168632,50.5208884 183.168632,50.5208884 L183.37238,49 Z" id="Path" fill="#FDA57D"></path>
                    <polygon id="Path" fill="#535461" opacity="0.2" points="246 175.333333 262.346154 172 263 180 246 176"></polygon>
                    <g id="Group" opacity="0.5" transform="translate(84.000000, 125.000000)" fill="url(#linearGradient-6)">
                        <path d="M136.980679,52.5991071 L137.425925,52.7946429 L151.622151,58.9670536 L169.709434,37.2951786 C169.709434,37.2951786 172.451887,34.1991964 169.186755,32.0808929 C165.921623,29.9625893 163.869623,35.4441071 163.869623,35.4441071 L149.970226,50.5264286 L138.161547,44.5625893 L138.348679,43.3111607 L127.585358,37.0279464 C127.376692,36.6320298 127.148402,36.2469878 126.901358,35.8742857 L126.804566,35.5223214 L126.268981,35.0465179 C126.165736,34.9357143 126.062491,34.8314286 125.959245,34.7401786 L127.740226,32.7848214 C130.422925,33.7344737 133.384583,33.4320094 135.824793,31.9591715 C138.265003,30.4863336 139.931853,27.9951683 140.374868,25.1589286 C141.208396,25.3192685 142.064396,25.3192685 142.897925,25.1589286 C145.121985,24.6861313 146.977118,23.1456985 147.866604,21.033125 C147.79208,21.175365 147.656003,21.2742312 147.498792,21.3003571 C147.637236,21.0565153 147.760091,20.8039756 147.866604,20.5442857 C147.498792,21.44375 144.059434,20.2053571 143.543208,19.8925 C141.968717,19.0451786 141.15566,17.79375 140.316792,16.2555357 C138.710038,13.2182143 135.741736,12.0971429 132.39917,11.8299107 C129.845149,11.5506032 127.261856,11.878722 124.855811,12.7880357 C122.432664,13.7239569 120.507205,15.6404619 119.545132,18.0740179 C119.257341,18.9000757 119.126,19.7734541 119.157962,20.6485714 C119.047463,22.5467627 119.792158,24.3937241 121.184151,25.6738393 C121.301616,25.7759765 121.424394,25.871708 121.551962,25.960625 C121.622943,26.2408929 121.700377,26.5146429 121.79717,26.7883929 L121.326113,27.3033036 L118.267472,30.6534821 L118.112604,30.6078571 L85.8936226,35.4766964 L85.8936226,35.541875 C84.8224528,34.8249107 79.9699245,32.3350893 67.8579623,35.7178571 C63.2829057,37.0214286 55.6621132,36.8584821 47.4799245,36.0958929 C41.762717,28.9132143 38.0716981,6.54392857 38.0716981,6.54392857 L36.6262642,0.215089286 L17.8678868,4.59508929 C17.8678868,4.59508929 26.5211321,6.55044643 27.966566,8.97508929 C30.1669811,9.718125 31.5285283,26.3191071 32.0512075,34.1535714 C20.8168302,32.4002679 11.6150943,30.3927679 11.6150943,30.3927679 L4.88479245,27.9616071 L0.0774339623,44.9992857 C0.0774339623,44.9992857 5.36875472,39.1332143 10.1761132,38.6704464 C10.1761132,38.6704464 34.2193585,50.3504464 52.0162642,47.9192857 C58.9466038,46.9741964 65.6446415,49.9333036 71.2521509,50.8392857 C76.1607619,51.6657755 81.1194093,52.1535713 86.0936604,52.2992857 L86.1517358,57.6504464 C86.1517358,57.6504464 105.955472,56.7900893 118.964377,52.6186607 C119.95166,55.3170536 120.745358,57.2658929 121.02283,57.4092857 L123.384566,56.2425893 L136.651585,72.7392857 L162.611321,62.0239286 C162.611321,62.0239286 166.483019,60.5639286 164.54717,57.1550893 C162.611321,53.74625 158.294377,57.6439286 158.294377,57.6439286 L139.058491,64.4550893 L130.94083,53.0879464 L130.624642,52.6447321 L132.328189,51.8039286 C132.328189,51.8039286 132.276566,51.5497321 132.173321,51.1130357 L136.651585,54.7239286 L136.980679,52.5991071 Z" id="Path"></path>
                    </g>
                    <polygon id="Path" fill="#FDA57D" points="205.647997 163 200 157.890307 209.352003 148 215 153.10371"></polygon>
                    <path d="M208.230044,148 L204,152.965986 C204.924507,155.792558 206.984515,158.012122 209.600251,159 L214,153.809524 L208.230044,148 Z" id="Path" fill="#000000" opacity="0.05"></path>
                    <path d="M211,172.885754 L234.557266,183 L251.965275,162.415058 C251.965275,162.415058 254.599759,159.474352 251.461342,157.46296 C248.322925,155.451569 246.358225,160.645543 246.358225,160.645543 L232.962542,174.954432 L215.771415,166.386921 L211,172.885754 Z" id="Path" fill="#FDA57D"></path>
                    <polygon id="Path" fill="#FFFFFF" points="207.928571 161 220 168.01073 218.373399 179 207 169.88412"></polygon>
                    <circle id="Oval" fill="#FDA57D" cx="213.5" cy="149.5" r="9.5"></circle>
                    <path d="M205.562462,158.353365 L200.946028,157 L170,161.513285 L170.22923,182 C170.22923,182 207.848393,180.423144 212,170.955798 L209.230139,161.513285 L205.562462,158.353365 Z" id="Path" fill="#FFFFFF"></path>
                    <polygon id="Path" fill="#000000" opacity="0.05" points="208 170.328217 219.511161 179 220 175.327765 208.589286 165"></polygon>
                    <path d="M170,162.145482 C170,162.145482 165.786569,158.408576 152.202777,162.145482 C138.618985,165.882389 97.3958606,157 97.3958606,157 L96,164.94977 C96,164.94977 119.419439,176.16049 136.751375,173.825727 C143.498035,172.918836 150.024976,175.755283 155.492097,176.630015 C160.290537,177.419109 165.138077,177.876863 170,178 L170,162.145482 Z" id="Path" fill="#4D8AF0"></path>
                    <path d="M97,155.427616 L90.5807007,153 L86,170 C86,170 91.0545663,164.168371 95.6163125,163.686861 L97,155.427616 Z" id="Path" fill="#535461"></path>
                    <path d="M113,134.383605 L123.036014,132 C123.036014,132 127.822929,160.616395 135,163 L117.311525,163 C117.311525,163 115.872149,135.335734 113,134.383605 Z" id="Path" fill="#4D8AF0"></path>
                    <path d="M122,133.495413 L120.574244,127 L102,131.5 C102,131.5 110.541393,133.502294 112,136 L122,133.495413 Z" id="Path" fill="#535461"></path>
                    <path d="M214.941223,139.088268 C212.445693,138.833139 209.921566,139.132922 207.570655,139.963648 C205.203658,140.819175 203.323331,142.570394 202.38468,144.793544 C201.541959,147.021785 202.086486,149.758114 203.992332,151.288499 C204.444794,151.691633 205.02625,151.941411 205.645362,151.998598 C206.643662,152.035327 207.479901,151.343593 208.23835,150.743682 C209.678384,149.621238 211.264286,148.677008 212.957588,147.933895 C214.396696,147.32174 216.153445,146.832017 217.495316,147.609453 C218.10248,148.035225 218.653133,148.5285 219.135381,149.078623 C220.71289,150.559118 222.968013,151.199773 225.148692,150.786937 C227.329372,150.374101 229.148718,148.962087 230,147.021785 C229.636982,147.848193 226.279062,146.709586 225.77343,146.458603 C224.230602,145.687289 223.439741,144.542561 222.64888,143.140728 C221.106052,140.355427 218.201905,139.33313 214.941223,139.088268 Z" id="Path" fill="#000000" opacity="0.05"></path>
                    <path d="M214.941223,138.088268 C212.445693,137.833139 209.921566,138.132922 207.570655,138.963648 C205.203658,139.819175 203.323331,141.570394 202.38468,143.793544 C201.541959,146.021785 202.086486,148.758114 203.992332,150.288499 C204.444794,150.691633 205.02625,150.941411 205.645362,150.998598 C206.643662,151.035327 207.479901,150.343593 208.23835,149.743682 C209.678384,148.621238 211.264286,147.677008 212.957588,146.933895 C214.396696,146.32174 216.153445,145.832017 217.495316,146.609453 C218.10248,147.035225 218.653133,147.5285 219.135381,148.078623 C220.71289,149.559118 222.968013,150.199773 225.148692,149.786937 C227.329372,149.374101 229.148718,147.962087 230,146.021785 C229.636982,146.848193 226.279062,145.709586 225.77343,145.458603 C224.230602,144.687289 223.439741,143.542561 222.64888,142.140728 C221.106052,139.355427 218.201905,138.327008 214.941223,138.088268 Z" id="Path" fill="#000000"></path>
                    <ellipse id="Oval" fill="#FDA57D" transform="translate(210.282114, 148.233025) rotate(-76.650000) translate(-210.282114, -148.233025) " cx="210.282114" cy="148.233025" rx="1.40938003" ry="1"></ellipse>
                    <polygon id="Path" fill="#000000" opacity="0.05" points="206 180.596639 206.301141 181 213 177.443697 212.705004 177"></polygon>
                    <polygon id="Path" fill="#000000" opacity="0.05" points="219.864078 169 219 176.753046 219.320388 177 220 169.084484"></polygon>
                    <rect id="Rectangle" fill="#E0E0E0" x="177" y="149" width="6" height="39"></rect>
                    <polygon id="Rectangle" fill="#E0E0E0" transform="translate(164.047268, 62.074286) rotate(18.570000) translate(-164.047268, -62.074286) " points="161.230302 43.0574448 166.84829 43.0598028 166.864235 81.0911276 161.246247 81.0887696"></polygon>
                    <polygon id="Path" fill="#E0E0E0" points="182 154 180 154 180 62 181.972414 62.0971421"></polygon>
                    <path d="M203,176.486553 L219.362464,196 L244.605934,186.002717 C244.605934,186.002717 248.346662,184.640587 246.476298,181.466449 C244.605934,178.292312 240.400838,181.922575 240.400838,181.922575 L221.697194,188.277099 L210.320219,173 L203,176.486553 Z" id="Path" fill="#FDA57D"></path>
                    <path d="M195,160.579733 C195,160.579733 202.043997,181.548122 202.983629,182 L214,176.759472 C214,176.759472 210.870055,162.61946 207.383697,160.441659 C203.89734,158.263859 195.473056,158.753393 195,160.579733 Z" id="Path" fill="#FFFFFF"></path>
                    <path d="M197.021055,167 C197.021055,167 196.652428,175.52 199,177" id="Path" fill="#000000" opacity="0.05"></path>
                    <polygon id="Path" fill="#E0E0E0" points="180.21608 62 172 50.4449189 172.860553 48 182 62"></polygon>
                    <polygon id="Rectangle" fill="#000000" transform="translate(220.926300, 153.729404) rotate(33.600000) translate(-220.926300, -153.729404) " points="220.191984 151.877349 221.658244 151.878288 221.660616 155.581459 220.194355 155.580519"></polygon>
                    <polygon id="Rectangle" fill="#000000" transform="translate(216.121778, 149.742121) rotate(33.620000) translate(-216.121778, -149.742121) " points="210.686042 149.370259 221.557042 149.377226 221.557514 150.113982 210.686514 150.107015"></polygon>
                    <g id="Group" opacity="0.7" transform="translate(344.000000, 340.000000)">
                        <rect id="Rectangle" fill="url(#linearGradient-7)" x="22.4143396" y="56.3076531" width="23.2996226" height="17.3912245"></rect>
                        <g opacity="0.1" transform="translate(21.811321, 56.372449)" fill="url(#linearGradient-8)" id="Path">
                            <path d="M0.603018868,4.54219388 C0.603018868,4.54219388 9.2954717,5.56596939 12.2528302,5.56596939 C15.2101887,5.56596939 23.9026415,4.54219388 23.9026415,4.54219388 L23.9026415,0.194387755 L0.603018868,0.194387755 L0.603018868,4.54219388 Z"></path>
                        </g>
                        <path d="M45.7139623,60.6554592 C45.7139623,60.6554592 37.0215094,61.6792347 34.0641509,61.6792347 C31.1067925,61.6792347 22.4143396,60.6554592 22.4143396,60.6554592 L22.4143396,43.5169388 C22.4143396,37.0182379 27.6301378,31.75 34.0641509,31.75 C40.4981641,31.75 45.7139623,37.0182379 45.7139623,43.5169388 L45.7139623,60.6554592 Z" id="Path" fill="url(#linearGradient-9)"></path>
                        <path d="M34.0641509,35.0805102 C32.5265068,35.0805102 31.28,33.821471 31.28,32.2683673 L31.28,25.8730102 L36.8483019,25.8730102 L36.8483019,32.2683673 C36.8483019,33.014194 36.5549725,33.7294735 36.032843,34.2568526 C35.5107134,34.7842317 34.8025537,35.0805102 34.0641509,35.0805102 Z" id="Path" fill="url(#linearGradient-10)"></path>
                        <rect id="Rectangle" fill="url(#linearGradient-11)" x="22.4143396" y="67.5627041" width="8.35886792" height="57.2990306"></rect>
                        <rect id="Rectangle" fill="url(#linearGradient-11)" x="37.3550943" y="67.5627041" width="8.35886792" height="57.2990306"></rect>
                        <g opacity="0.1" transform="translate(30.792453, 25.918367)" fill="url(#linearGradient-12)" id="Path">
                            <path d="M0.48754717,4.22469388 C2.31639108,4.67906648 4.22700515,4.67906648 6.05584906,4.22469388 L6.05584906,0.207346939 L0.48754717,0.207346939 L0.48754717,4.22469388 Z"></path>
                        </g>
                        <ellipse id="Oval" fill="url(#linearGradient-7)" cx="34.0641509" cy="15.6352551" rx="12.1566038" ry="12.2788265"></ellipse>
                        <ellipse id="Oval" fill="url(#linearGradient-7)" cx="34.0641509" cy="18.4538776" rx="11.6498113" ry="11.7669388"></ellipse>
                        <g opacity="0.1" transform="translate(25.018868, 5.183673)" fill="url(#linearGradient-13)" id="Path">
                            <path d="M1.98867925,7.36729592 C2.62435638,7.72240988 3.3250415,7.94288647 4.04792453,8.0152551 C7.03145155,8.42640016 10.0693784,8.08125293 12.8879245,7.01091837 C13.422803,8.17994429 14.4419103,9.05038839 15.6720755,9.38892857 C16.8892996,9.71415096 18.1473927,9.85607232 19.4056604,9.81010204 C19.6823528,9.84079457 19.9617832,9.78660453 20.2075472,9.65459184 C20.7656604,9.27229592 20.4962264,8.39755102 20.1690566,7.80142857 L18.5460377,4.82729592 C18.1146309,3.92214321 17.5331707,3.09816138 16.8267925,2.39096939 C15.8451609,1.60882624 14.6769446,1.10153216 13.4396226,0.920102041 C10.5584999,0.340731987 7.5838871,0.440513081 4.74716981,1.21168367 C1.72566038,2.02163265 -2.16830189,4.82729592 1.98867925,7.36729592 Z"></path>
                        </g>
                        <path d="M27.0075472,12.2982653 C27.6432243,12.6533793 28.3439094,12.8738559 29.0667925,12.9462245 C32.0503195,13.3573695 35.0882463,13.0122223 37.9067925,11.9418878 C38.4416709,13.1109137 39.4607783,13.9813578 40.6909434,14.319898 C41.9081675,14.6451203 43.1662606,14.7870417 44.4245283,14.7410714 C44.7012207,14.771764 44.9806511,14.7175739 45.2264151,14.5855612 C45.7845283,14.2032653 45.5150943,13.3285204 45.1879245,12.732398 L43.5649057,9.75826531 C43.1334988,8.8531126 42.5520386,8.02913077 41.8456604,7.32193878 C40.8640288,6.53979563 39.6958125,6.03250155 38.4584906,5.85107143 C35.5773678,5.27170137 32.602755,5.37148247 29.7660377,6.14265306 C26.7445283,6.95260204 22.850566,9.75178571 27.0075472,12.2982653 Z" id="Path" fill="url(#linearGradient-14)"></path>
                        <ellipse id="Oval" fill="url(#linearGradient-7)" cx="45.5856604" cy="18.4538776" rx="1.01358491" ry="1.91795918"></ellipse>
                        <ellipse id="Oval" fill="url(#linearGradient-7)" cx="22.5426415" cy="18.4538776" rx="1.01358491" ry="1.91795918"></ellipse>
                        <ellipse id="Oval" fill="url(#linearGradient-15)" cx="65.2158491" cy="3.36290816" rx="2.78415094" ry="2.81214286"></ellipse>
                        <text id="00" fill="#000000" font-family="Helvetica" font-size="11.84" font-weight="normal">
                            <tspan x="29.6569811" y="50.5903061">0</tspan>
                            <tspan x="29.6569811" y="64.5903061">0</tspan>
                        </text>
                        <path d="M34.3207547,23.0543878 C34.3207547,23.0543878 27.7388679,25.3546429 22.6709434,20.2422449 C22.6709434,20.2422449 23.0815094,21.939898 23.7871698,23.9809694 C26.1281889,28.4635844 31.0477906,30.9286274 35.9977354,30.0992635 C40.9476802,29.2698996 44.8157967,25.3324731 45.5984906,20.3264796 C44.3796226,20.987398 35.7256604,25.1926531 34.3207547,23.0543878 Z M34.070566,26.1257143 C32.7875472,26.1257143 31.7932075,25.1537755 31.7932075,24.590051 C31.7932075,24.0263265 32.8132075,24.0781633 34.070566,24.0781633 C35.3279245,24.0781633 36.3479245,24.0263265 36.3479245,24.590051 C36.3479245,25.1537755 35.3215094,26.1257143 34.0641509,26.1257143 L34.070566,26.1257143 Z" id="Shape" fill="url(#linearGradient-16)" fill-rule="nonzero"></path>
                        <path d="M40.254717,33.5578061 C40.254717,33.5578061 53.8162264,25.8730102 62.1750943,3.36290816 L66.229434,5.92234694 C66.229434,5.92234694 59.5192453,34.6075 42.6796226,41.2231633 L40.254717,33.5578061 Z" id="Path" fill="url(#linearGradient-17)"></path>
                        <ellipse id="Oval" fill="url(#linearGradient-15)" cx="2.91886792" cy="3.36290816" rx="2.78415094" ry="2.81214286"></ellipse>
                        <path d="M27.8735849,33.5578061 C27.8735849,33.5578061 14.3120755,25.8730102 5.95320755,3.36290816 L1.9245283,5.91586735 C1.9245283,5.91586735 8.63471698,34.6010204 25.4743396,41.2166837 L27.8735849,33.5578061 Z" id="Path" fill="url(#linearGradient-18)"></path>
                        <path d="M30.2664151,126.909286 L22.9211321,126.909286 L22.9211321,126.52699 C22.9211321,124.480042 24.5639936,122.820663 26.590566,122.820663 C28.6171385,122.820663 30.26,124.480042 30.26,126.52699 L30.2664151,126.909286 Z" id="Path" fill="url(#linearGradient-19)"></path>
                        <path d="M45.2071698,126.909286 L37.8490566,126.909286 L37.8490566,126.52699 C37.8490566,124.480042 39.4919181,122.820663 41.5184906,122.820663 C43.545063,122.820663 45.1879245,124.480042 45.1879245,126.52699 L45.2071698,126.909286 Z" id="Path" fill="url(#linearGradient-20)"></path>
                    </g>
                    <rect id="Rectangle" fill="#4D8AF0" x="366" y="397" width="22" height="17"></rect>
                    <path d="M366,400.238806 C366,400.238806 374.211004,401 377,401 C379.788996,401 388,400.238806 388,400.238806 L388,397 L366,397 L366,400.238806 Z" id="Path" fill="#000000" opacity="0.1"></path>
                    <path d="M388,402.010482 C388,402.010482 379.788996,403 377,403 C374.211004,403 366,402.010482 366,402.010482 L366,385.402096 C366,379.104892 370.924868,374 377,374 C383.075132,374 388,379.104892 388,385.402096 L388,402.010482 Z" id="Path" fill="#FFFFFF"></path>
                    <path d="M375.007109,367 L381,367 L381,373.247826 C381,374.76781 379.656854,376 378,376 C376.343146,376 375,374.76781 375,373.247826 L375,367 L375.007109,367 Z" id="Path" fill="#FDB797"></path>
                    <rect id="Rectangle" fill="#4D8AF0" x="367" y="408" width="8" height="55"></rect>
                    <rect id="Rectangle" fill="#4D8AF0" x="381" y="408" width="8" height="55"></rect>
                    <path d="M375,371.686082 C376.970607,372.104639 379.029393,372.104639 381,371.686082 L381,368 L375,368 L375,371.686082 Z" id="Path" fill="#000000" opacity="0.1"></path>
                    <circle id="Oval" fill="#814E4D" cx="377.5" cy="357.5" r="11.5"></circle>
                    <ellipse id="Oval" fill="#FDB797" cx="377" cy="360.5" rx="11" ry="11.5"></ellipse>
                    <path d="M370.783132,354.630648 C371.409465,354.968949 372.098109,355.176337 372.807164,355.240193 C375.736416,355.640709 378.719336,355.306443 381.487147,354.267515 C382.01258,355.405665 383.014812,356.253164 384.22478,356.582488 C385.419784,356.898207 386.654868,357.035865 387.890094,356.991013 C388.162934,357.022576 388.438929,356.970566 388.681543,356.841869 C389.232962,356.472251 388.966983,355.62278 388.642619,355.039173 L387.046748,352.153562 C386.623475,351.27435 386.053038,350.473885 385.360054,349.786713 C384.395271,349.027371 383.247467,348.535345 382.032079,348.360119 C379.202253,347.797548 376.280729,347.895186 373.494816,348.645438 C370.510666,349.436549 366.696144,352.160047 370.783132,354.630648 Z" id="Path" fill="#000000" opacity="0.1"></path>
                    <path d="M370.783132,354.630648 C371.409465,354.968949 372.098109,355.176337 372.807164,355.240193 C375.736416,355.640709 378.719336,355.306443 381.487147,354.267515 C382.01258,355.405665 383.014812,356.253164 384.22478,356.582488 C385.419784,356.898207 386.654868,357.035865 387.890094,356.991013 C388.162934,357.022576 388.438929,356.970566 388.681543,356.841869 C389.232962,356.472251 388.966983,355.62278 388.642619,355.039173 L387.046748,352.153562 C386.623475,351.27435 386.053038,350.473885 385.360054,349.786713 C384.395271,349.027371 383.247467,348.535345 382.032079,348.360119 C379.202253,347.797548 376.280729,347.895186 373.494816,348.645438 C370.510666,349.436549 366.696144,352.160047 370.783132,354.630648 Z" id="Path" fill="#814E4D"></path>
                    <ellipse id="Oval" fill="#FDB797" cx="389" cy="361" rx="1" ry="2"></ellipse>
                    <ellipse id="Oval" fill="#FDB797" cx="366" cy="361" rx="1" ry="2"></ellipse>
                    <circle id="Oval" fill="#FDB797" cx="409" cy="346" r="3"></circle>
                    <path d="M378.180744,364.81275 C378.180744,364.81275 371.838858,367.112272 367,362 C367,362 367.393197,363.692982 368.071779,365.739224 C370.320715,370.21151 375.040489,372.669309 379.788494,371.840646 C384.5365,371.011983 388.247115,367.082839 389,362.086649 C387.839435,362.753177 379.531565,366.94564 378.180744,364.81275 Z M377.939752,367.87878 C376.728452,367.87878 375.751802,366.912314 375.751802,366.345765 C375.751802,365.779216 376.728452,365.832538 377.939752,365.832538 C379.151052,365.832538 380.127703,365.779216 380.127703,366.345765 C380.127703,366.912314 379.138368,367.87878 377.93341,367.87878 L377.939752,367.87878 Z" id="Shape" fill="#814E4D" fill-rule="nonzero"></path>
                    <path d="M384,375.714966 C384,375.714966 397.056474,368.404548 405.101501,347 L409,349.43046 C409,349.43046 402.53854,376.71761 386.327652,383 L384,375.714966 Z" id="Path" fill="#FFFFFF"></path>
                    <circle id="Oval" fill="#FDB797" cx="348" cy="346" r="3"></circle>
                    <path d="M371,375.714966 C371,375.714966 357.943526,368.404548 349.898499,347 L346,349.43046 C346,349.43046 352.46146,376.71761 368.672348,383 L371,375.714966 Z" id="Path" fill="#FFFFFF"></path>
                    <path d="M370.49685,461 C372.431586,461 374,462.632326 374,464.645902 L374,465 L367,465 L367,464.62623 C367.010383,462.622896 368.571929,461.003574 370.49685,461 Z" id="Path" fill="#333333"></path>
                    <path d="M385.5,461 C387.432997,461 389,462.632326 389,464.645902 L389,465 L382,465 L382,464.62623 C382.01039,462.62034 383.574354,460.999971 385.5,461 Z" id="Path" fill="#333333"></path>
                </g>
            </g>
        </g>
    </g>
</svg>