<?xml version="1.0" encoding="UTF-8"?>
<svg width="61px" height="59px" viewBox="0 0 61 59" version="1.1" xmlns="http://www.w3.org/2000/svg" xmlns:xlink="http://www.w3.org/1999/xlink">
    <!-- Generator: sketchtool 52.2 (67145) - http://www.bohemiancoding.com/sketch -->
    <title>ACF556F2-FA46-4E3A-B611-D17134F45630</title>
    <desc>Created with sketchtool.</desc>
    <g id="Page-1" stroke="none" stroke-width="1" fill="none" fill-rule="evenodd">
        <g id="Artboard" transform="translate(-1312.000000, -3674.000000)" fill="#FFFFFF" fill-rule="nonzero">
            <g id="7" transform="translate(408.000000, 3402.000000)">
                <g id="Group-19" transform="translate(791.000000, 272.000000)">
                    <g id="Group-16" transform="translate(113.000000, 0.000000)">
                        <g id="003-solution">
                            <path d="M56.9333333,46.2166667 C56.2155667,46.2166667 55.5140667,46.4054667 54.9,46.7525833 L54.9,42.2833333 C54.9,41.73955 54.4445333,41.3 53.8833333,41.3 L47.22925,41.3 C47.5881333,40.7060667 47.7833333,40.0275667 47.7833333,39.3333333 C47.7833333,37.1641 45.9594333,35.4 43.7166667,35.4 C41.4739,35.4 39.65,37.1641 39.65,39.3333333 C39.65,40.0275667 39.8452,40.7060667 40.2040833,41.3 L33.55,41.3 C32.9888,41.3 32.5333333,41.73955 32.5333333,42.2833333 L32.5333333,46.7525833 C31.9192667,46.4054667 31.2177667,46.2166667 30.5,46.2166667 C28.2572333,46.2166667 26.4333333,47.9807667 26.4333333,50.15 C26.4333333,52.3192333 28.2572333,54.0833333 30.5,54.0833333 C31.2177667,54.0833333 31.9192667,53.8945333 32.5333333,53.5474167 L32.5333333,58.0166667 C32.5333333,58.56045 32.9888,59 33.55,59 L53.8833333,59 C54.4445333,59 54.9,58.56045 54.9,58.0166667 L54.9,53.5474167 C55.5140667,53.8945333 56.2155667,54.0833333 56.9333333,54.0833333 C59.1761,54.0833333 61,52.3192333 61,50.15 C61,47.9807667 59.1761,46.2166667 56.9333333,46.2166667 Z M56.9333333,52.1166667 C56.3599333,52.1166667 55.8251667,51.8836167 55.4296833,51.4578333 C55.2375333,51.2513333 54.9630333,51.1333333 54.6743,51.1333333 L53.8833333,51.1333333 C53.3221333,51.1333333 52.8666667,51.5728833 52.8666667,52.1166667 L52.8666667,57.0333333 L34.5666667,57.0333333 L34.5666667,52.1166667 C34.5666667,51.5728833 34.1112,51.1333333 33.55,51.1333333 L32.7590333,51.1333333 C32.4713167,51.1333333 32.1968167,51.2513333 32.00365,51.4578333 C31.6081667,51.8836167 31.0734,52.1166667 30.5,52.1166667 C29.3786167,52.1166667 28.4666667,51.2346167 28.4666667,50.15 C28.4666667,49.0653833 29.3786167,48.1833333 30.5,48.1833333 C31.0734,48.1833333 31.6081667,48.4163833 32.00365,48.8421667 C32.1958,49.0486667 32.4703,49.1666667 32.7590333,49.1666667 L33.55,49.1666667 C34.1112,49.1666667 34.5666667,48.7271167 34.5666667,48.1833333 L34.5666667,43.2666667 L41.6833333,43.2666667 C42.2445333,43.2666667 42.7,42.8271167 42.7,42.2833333 L42.7,41.5183 C42.7,41.2400167 42.578,40.9745167 42.3645,40.7886667 C41.9253,40.4051667 41.6833333,39.8879333 41.6833333,39.3333333 C41.6833333,38.2487167 42.5952833,37.3666667 43.7166667,37.3666667 C44.83805,37.3666667 45.75,38.2487167 45.75,39.3333333 C45.75,39.8879333 45.5080333,40.4051667 45.0688333,40.7876833 C44.8553333,40.9745167 44.7333333,41.2390333 44.7333333,41.5183 L44.7333333,42.2833333 C44.7333333,42.8271167 45.1888,43.2666667 45.75,43.2666667 L52.8666667,43.2666667 L52.8666667,48.1833333 C52.8666667,48.7271167 53.3221333,49.1666667 53.8833333,49.1666667 L54.6743,49.1666667 C54.9620167,49.1666667 55.2365167,49.0486667 55.4296833,48.8421667 C55.8251667,48.4163833 56.3599333,48.1833333 56.9333333,48.1833333 C58.0547167,48.1833333 58.9666667,49.0653833 58.9666667,50.15 C58.9666667,51.2346167 58.0547167,52.1166667 56.9333333,52.1166667 Z" id="Shape"></path>
                            <path d="M59.9833333,0 L1.01666667,0 C0.455466667,0 0,0.43955 0,0.983333333 L0,31.4666667 C0,32.01045 0.455466667,32.45 1.01666667,32.45 L20.3333333,32.45 C20.8945333,32.45 21.35,32.01045 21.35,31.4666667 L21.35,25.5666667 C21.35,25.0228833 20.8945333,24.5833333 20.3333333,24.5833333 L19.5423667,24.5833333 C19.25465,24.5833333 18.98015,24.7013333 18.7869833,24.9078333 C18.3915,25.3336167 17.8567333,25.5666667 17.2833333,25.5666667 C16.16195,25.5666667 15.25,24.6846167 15.25,23.6 C15.25,22.5153833 16.16195,21.6333333 17.2833333,21.6333333 C17.8567333,21.6333333 18.3915,21.8663833 18.7869833,22.2921667 C18.9791333,22.4986667 19.2536333,22.6166667 19.5423667,22.6166667 L20.3333333,22.6166667 C20.8945333,22.6166667 21.35,22.1771167 21.35,21.6333333 L21.35,16.7166667 L28.4666667,16.7166667 C29.0278667,16.7166667 29.4833333,16.2771167 29.4833333,15.7333333 L29.4833333,14.9683 C29.4833333,14.6900167 29.3613333,14.4245167 29.1478333,14.2386667 C28.7086333,13.8551667 28.4666667,13.3379333 28.4666667,12.7833333 C28.4666667,11.6987167 29.3786167,10.8166667 30.5,10.8166667 C31.6213833,10.8166667 32.5333333,11.6987167 32.5333333,12.7833333 C32.5333333,13.3379333 32.2913667,13.8551667 31.8521667,14.2376833 C31.6386667,14.4245167 31.5166667,14.6890333 31.5166667,14.9683 L31.5166667,15.7333333 C31.5166667,16.2771167 31.9721333,16.7166667 32.5333333,16.7166667 L39.65,16.7166667 L39.65,21.6333333 C39.65,22.1771167 40.1054667,22.6166667 40.6666667,22.6166667 L41.4576333,22.6166667 C41.74535,22.6166667 42.01985,22.4986667 42.2130167,22.2921667 C42.6085,21.8663833 43.1432667,21.6333333 43.7166667,21.6333333 C44.83805,21.6333333 45.75,22.5153833 45.75,23.6 C45.75,24.6846167 44.83805,25.5666667 43.7166667,25.5666667 C43.1432667,25.5666667 42.6085,25.3336167 42.2130167,24.9078333 C42.0208667,24.7013333 41.7463667,24.5833333 41.4576333,24.5833333 L40.6666667,24.5833333 C40.1054667,24.5833333 39.65,25.0228833 39.65,25.5666667 L39.65,31.4666667 C39.65,32.01045 40.1054667,32.45 40.6666667,32.45 L59.9833333,32.45 C60.5445333,32.45 61,32.01045 61,31.4666667 L61,0.983333333 C61,0.43955 60.5445333,0 59.9833333,0 Z M58.9666667,30.4833333 L41.6833333,30.4833333 L41.6833333,26.9974167 C42.2974,27.3445333 42.9989,27.5333333 43.7166667,27.5333333 C45.9594333,27.5333333 47.7833333,25.7692333 47.7833333,23.6 C47.7833333,21.4307667 45.9594333,19.6666667 43.7166667,19.6666667 C42.9989,19.6666667 42.2974,19.8554667 41.6833333,20.2025833 L41.6833333,15.7333333 C41.6833333,15.18955 41.2278667,14.75 40.6666667,14.75 L34.0125833,14.75 C34.3714667,14.1560667 34.5666667,13.4775667 34.5666667,12.7833333 C34.5666667,10.6141 32.7427667,8.85 30.5,8.85 C28.2572333,8.85 26.4333333,10.6141 26.4333333,12.7833333 C26.4333333,13.4775667 26.6285333,14.1560667 26.9874167,14.75 L20.3333333,14.75 C19.7721333,14.75 19.3166667,15.18955 19.3166667,15.7333333 L19.3166667,20.2025833 C18.7026,19.8554667 18.0011,19.6666667 17.2833333,19.6666667 C15.0405667,19.6666667 13.2166667,21.4307667 13.2166667,23.6 C13.2166667,25.7692333 15.0405667,27.5333333 17.2833333,27.5333333 C18.0011,27.5333333 18.7026,27.3445333 19.3166667,26.9974167 L19.3166667,30.4833333 L2.03333333,30.4833333 L2.03333333,1.96666667 L58.9666667,1.96666667 L58.9666667,30.4833333 Z" id="Shape"></path>
                            <path d="M30.2021167,19.9547833 C29.8046,19.5703 29.1620667,19.5703 28.76455,19.9547833 L24.6978833,23.8881167 L26.13545,25.27855 L28.4666667,23.0237667 L28.4666667,32.45 L30.5,32.45 L30.5,23.0237667 L32.8312167,25.27855 L34.2687833,23.8881167 L30.2021167,19.9547833 Z" id="Shape" transform="translate(29.483333, 26.058210) rotate(-180.000000) translate(-29.483333, -26.058210) "></path>
                            <polygon id="Rectangle-path" points="28.4666667 34.4166667 30.5 34.4166667 30.5 36.3833333 28.4666667 36.3833333"></polygon>
                            <polygon id="Rectangle-path" points="28.4666667 38.35 30.5 38.35 30.5 40.3166667 28.4666667 40.3166667"></polygon>
                            <polygon id="Rectangle-path" points="28.4666667 42.2833333 30.5 42.2833333 30.5 44.25 28.4666667 44.25"></polygon>
                            <polygon id="Rectangle-path" points="6.1 34.4166667 8.13333333 34.4166667 8.13333333 36.3833333 6.1 36.3833333"></polygon>
                            <rect id="Rectangle-path" x="6.1" y="38.35" width="2.03333333" height="1.96666667"></rect>
                            <polygon id="Rectangle-path" points="6.1 42.2833333 8.13333333 42.2833333 8.13333333 44.25 6.1 44.25"></polygon>
                            <polygon id="Rectangle-path" points="6.1 46.2166667 8.13333333 46.2166667 8.13333333 48.1833333 6.1 48.1833333"></polygon>
                            <rect id="Rectangle-path" x="6.1" y="50.15" width="2.03333333" height="1.96666667"></rect>
                            <polygon id="Rectangle-path" points="10.1666667 50.15 12.2 50.15 12.2 52.1166667 10.1666667 52.1166667"></polygon>
                            <polygon id="Rectangle-path" points="14.2333333 50.15 16.2666667 50.15 16.2666667 52.1166667 14.2333333 52.1166667"></polygon>
                            <polygon id="Rectangle-path" points="18.3 50.15 20.3333333 50.15 20.3333333 52.1166667 18.3 52.1166667"></polygon>
                            <polygon id="Rectangle-path" points="22.3666667 50.15 24.4 50.15 24.4 52.1166667 22.3666667 52.1166667"></polygon>
                        </g>
                    </g>
                </g>
            </g>
        </g>
    </g>
</svg>