<?xml version="1.0" encoding="UTF-8"?>
<svg width="53px" height="63px" viewBox="0 0 53 63" version="1.1" xmlns="http://www.w3.org/2000/svg" xmlns:xlink="http://www.w3.org/1999/xlink">
    <!-- Generator: sketchtool 52.2 (67145) - http://www.bohemiancoding.com/sketch -->
    <title>DDA7F022-A073-42B8-A85B-191E6DD20DC9</title>
    <desc>Created with sketchtool.</desc>
    <g id="Page-1" stroke="none" stroke-width="1" fill="none" fill-rule="evenodd">
        <g id="Artboard" transform="translate(-951.000000, -4004.000000)" fill="#FFFFFF" fill-rule="nonzero">
            <g id="7" transform="translate(408.000000, 3402.000000)">
                <g id="Group-21" transform="translate(430.000000, 602.000000)">
                    <g id="Group-12" transform="translate(113.000000, 0.000000)">
                        <g id="005-shield">
                            <path d="M26.5,4.92310547 C25.8011571,4.92310547 25.2393571,5.47189453 25.2393571,6.15234375 C25.2393571,6.78566602 25.7279667,7.31267578 26.3738095,7.37518359 C27.1214881,7.44753516 27.7606429,6.87967383 27.7606429,6.15234375 C27.7606429,5.47091016 27.1978333,4.92310547 26.5,4.92310547 Z" id="Shape"></path>
                            <path d="M51.7380952,7.3828125 C48.2590238,7.3828125 45.4285714,4.62287109 45.4285714,1.23046875 C45.4285714,0.551003906 44.8634905,0 44.1666667,0 L8.83333333,0 C8.13650952,0 7.57142857,0.551003906 7.57142857,1.23046875 C7.57142857,4.62287109 4.74097619,7.3828125 1.26190476,7.3828125 C0.565080952,7.3828125 0,7.93381641 0,8.61328125 L0,28.6933008 C0,44.3420332 10.4605595,58.364209 26.137581,62.9481973 C26.2558214,62.9826504 26.3778476,63 26.5,63 C26.6221524,63 26.744431,62.9826504 26.8625452,62.9480742 C42.1999881,58.4619082 53,44.6843496 53,28.6933008 L53,8.61328125 C53,7.93381641 52.434919,7.3828125 51.7380952,7.3828125 Z M50.4761905,28.6933008 C50.4761905,43.3910039 40.8578262,56.1194648 26.5,60.4828301 C12.2566286,56.1542871 2.52380952,43.3105313 2.52380952,28.6933008 L2.52380952,9.75614063 C6.38662619,9.21498047 9.45040476,6.22752539 10.0053905,2.4609375 L42.9946095,2.4609375 C43.5495952,6.22752539 46.6133738,9.21498047 50.4761905,9.75614063 L50.4761905,28.6933008 Z" id="Shape"></path>
                            <path d="M47.1967524,11.3806055 C44.5651762,10.2568184 42.4811405,8.22469922 41.3286429,5.65867969 C41.1274952,5.21103516 40.6739667,4.921875 40.1727381,4.921875 L31.5450952,4.921875 C30.8482714,4.921875 30.2831905,5.47287891 30.2831905,6.15234375 C30.2831905,6.83180859 30.8482714,7.3828125 31.5450952,7.3828125 L39.3748357,7.3828125 C40.7080381,9.92754492 42.8188262,11.985627 45.4285714,13.2857402 L45.4285714,28.6933008 C45.4285714,40.7350371 38.0150071,51.1251152 26.5,55.2842227 C14.9849929,51.1249922 7.57142857,40.7350371 7.57142857,28.6933008 L7.57142857,13.2857402 C10.1811738,11.985627 12.2918357,9.92754492 13.6251643,7.3828125 L21.4549048,7.3828125 C22.1517286,7.3828125 22.7168095,6.83180859 22.7168095,6.15234375 C22.7168095,5.47287891 22.1517286,4.921875 21.4549048,4.921875 L12.8272619,4.921875 C12.3260333,4.921875 11.8725048,5.2111582 11.6713571,5.65867969 C10.5188595,8.22469922 8.43482381,10.2568184 5.80324762,11.3806055 C5.34429286,11.5767422 5.04761905,12.0190957 5.04761905,12.5077148 L5.04761905,28.6933008 C5.04761905,41.8855254 13.4154357,53.3830254 26.0790286,57.7527891 C26.2151881,57.799793 26.357531,57.8232949 26.5,57.8232949 C26.642469,57.8232949 26.7848119,57.799793 26.9209714,57.7527891 C39.5739643,53.3867168 47.952381,41.8962305 47.952381,28.6933008 L47.952381,12.5077148 C47.952381,12.0189727 47.6557071,11.5767422 47.1967524,11.3806055 Z" id="Shape"></path>
                            <path d="M26.5,17.9648438 C20.2376714,17.9648438 15.1428571,22.9327383 15.1428571,29.0390625 C15.1428571,35.1453867 20.2376714,40.1132813 26.5,40.1132813 C32.7623286,40.1132813 37.8571429,35.1453867 37.8571429,29.0390625 C37.8571429,22.9327383 32.7623286,17.9648438 26.5,17.9648438 Z M26.5,37.6523438 C21.6293,37.6523438 17.6666667,33.7884258 17.6666667,29.0390625 C17.6666667,24.2896992 21.6293,20.4257813 26.5,20.4257813 C31.3707,20.4257813 35.3333333,24.2896992 35.3333333,29.0390625 C35.3333333,33.7884258 31.3707,37.6523438 26.5,37.6523438 Z" id="Shape"></path>
                            <path d="M32.4399119,25.7079375 C31.9470119,25.2275625 31.1482262,25.2275625 30.6552,25.7079375 L25.2380952,30.9902168 L23.6065786,29.3994668 C23.1136786,28.9190918 22.3148929,28.9190918 21.8218667,29.3994668 C21.3290929,29.8799648 21.3290929,30.6590977 21.8218667,31.1397188 L24.3456762,33.6006563 C24.5922524,33.8407207 24.9150476,33.9609375 25.2380952,33.9609375 C25.5611429,33.9609375 25.8839381,33.8407207 26.1303881,33.6005332 L32.4399119,27.4481895 C32.9326857,26.9676914 32.9326857,26.1885586 32.4399119,25.7079375 Z" id="Shape"></path>
                        </g>
                    </g>
                </g>
            </g>
        </g>
    </g>
</svg>