<?xml version="1.0" encoding="UTF-8"?>
<svg width="61px" height="59px" viewBox="0 0 61 59" version="1.1" xmlns="http://www.w3.org/2000/svg" xmlns:xlink="http://www.w3.org/1999/xlink">
    <!-- Generator: sketchtool 52.2 (67145) - http://www.bohemiancoding.com/sketch -->
    <title>A2A1CC07-115D-41CD-8886-4DFEBF0AC1E6</title>
    <desc>Created with sketchtool.</desc>
    <g id="Page-1" stroke="none" stroke-width="1" fill="none" fill-rule="evenodd">
        <g id="Artboard" transform="translate(-550.000000, -3669.000000)" fill="#FFFFFF" fill-rule="nonzero">
            <g id="7" transform="translate(408.000000, 3402.000000)">
                <g id="Group-17" transform="translate(0.000000, 231.000000)">
                    <g id="Group-14">
                        <g id="001-performance" transform="translate(142.000000, 36.000000)">
                            <path d="M60.2015126,25.5848933 L56.5296444,24.587818 C56.2945774,23.4012762 55.9723494,22.2325084 55.5655126,21.0902782 L58.2224582,18.4587301 C58.5149519,18.1685439 58.5943285,17.734931 58.4228138,17.3651318 C57.5643473,15.5139142 56.5116506,13.7528013 55.2811862,12.1096883 C55.0364205,11.7803745 54.6073787,11.6305293 54.2014351,11.7326067 L50.5185921,12.6448849 C49.6998138,11.7333473 48.8159519,10.8785879 47.8736423,10.0866548 L48.8168452,6.52456067 C48.9205962,6.13205021 48.7660544,5.71806276 48.4269812,5.4802113 C46.7281695,4.28971967 44.9074854,3.27116736 42.993387,2.44072385 C42.6113075,2.27322803 42.1621025,2.35024895 41.8628452,2.63451046 L39.1420921,5.2043431 C37.9607594,4.81096862 36.7519895,4.49930544 35.5249707,4.27182218 L34.4939686,0.720343096 C34.3703096,0.294259414 33.9685774,-0.000123430925 33.5109498,3.69534672e-11 L27.4353243,3.69534672e-11 C26.9776967,-0.000123430925 26.5759644,0.294259414 26.4523054,0.720343096 L25.421431,4.27182218 C24.1946674,4.49918201 22.9862803,4.81084519 21.8053305,5.2043431 L19.0845774,2.63451046 C18.7851925,2.35037238 18.3361151,2.27335146 17.9540356,2.44072385 C16.0399372,3.2709205 14.2191255,4.28910251 12.5203138,5.47922385 C12.1812406,5.71707531 12.0266987,6.13106276 12.1304498,6.52357322 L13.0736527,10.0856674 C12.1312155,10.8776004 11.2473536,11.7324833 10.4285753,12.6440209 L6.74573222,11.7317427 C6.3397887,11.6288013 5.91036402,11.7787699 5.66598117,12.1088243 C4.43513389,13.7519372 3.38205439,15.5129268 2.52346025,17.3642678 C2.35194561,17.7340669 2.43144979,18.1675565 2.7238159,18.4577427 L5.38076151,21.0892908 C4.9740523,22.2318912 4.65195188,23.4010293 4.41662971,24.587818 L0.744761507,25.5848933 C0.30423431,25.7044979 -0.000127614386,26.0930586 6.77171845e-10,26.535682 L6.77171845e-10,32.4112427 C-0.000127614386,32.8538661 0.30423431,33.2424268 0.744761507,33.3620314 L4.41662971,34.3591067 C4.65169665,35.5458954 4.97392469,36.7150335 5.38076151,37.8576339 L2.7238159,40.489182 C2.43144979,40.7793682 2.35194561,41.2129812 2.52346025,41.5826569 C3.38179916,43.4339979 4.43449582,45.1949874 5.66496025,46.8381004 C5.91049163,47.1665502 6.3388954,47.3161485 6.7447113,47.215182 L10.4275544,46.3029038 C11.2463326,47.2144414 12.1301946,48.0693243 13.0726318,48.8612573 L12.1294289,52.4233515 C12.0256778,52.8158619 12.1802197,53.2298494 12.5192929,53.4677008 C14.2181046,54.6581925 16.0387887,55.6767448 17.952887,56.5071883 C18.3352218,56.6725858 18.7831506,56.5958117 19.0834289,56.3134017 L21.804182,53.743569 C22.9855146,54.1369435 24.1942845,54.4484833 25.4213033,54.67609 L26.4521778,58.227569 C26.5758368,58.6536527 26.9776967,58.9480356 27.4351967,58.9479121 L33.5099289,58.9479121 C33.9675565,58.9480356 34.3692887,58.6536527 34.4929477,58.227569 L35.5238222,54.676954 C36.750841,54.4488536 37.9596109,54.1369435 39.1409435,53.743569 L41.8616967,56.3134017 C42.1617197,56.596182 42.6100314,56.6730795 42.9922385,56.5071883 C44.9062092,55.6768682 46.7270209,54.6586862 48.4258326,53.4685649 C48.7649059,53.2307134 48.9194477,52.8167259 48.8156967,52.4242155 L47.8724937,48.8621213 C48.814931,48.0701883 49.6986653,47.2153054 50.5174435,46.3038912 L54.2002866,47.2161695 C54.6061025,47.317136 55.0345063,47.1675377 55.2800377,46.8390879 C56.5110126,45.1959749 57.5639644,43.4348619 58.4225586,41.5835209 C58.5940732,41.2137218 58.514569,40.7802322 58.2222029,40.490046 L55.5652573,37.8584979 C55.9719665,36.7158975 56.2940669,35.5467594 56.5293891,34.3599707 L60.2012573,33.3628954 C60.6417845,33.2432908 60.9461464,32.8547301 60.9460188,32.4121067 L60.9460188,26.535682 C60.9464017,26.093182 60.6420397,25.7044979 60.2015126,25.5848933 Z M58.9043054,31.6638682 L55.3619665,32.6262594 C54.9810356,32.7295711 54.6961987,33.0366674 54.6311151,33.4141192 C54.3757573,34.896772 53.974408,36.3523933 53.432682,37.7612343 C53.2939644,38.1191841 53.3817636,38.5225565 53.6580502,38.7959561 L56.269182,41.382205 C55.623705,42.6876109 54.8737113,43.9420397 54.0259644,45.1342594 L50.404887,44.23741 C50.0217866,44.1410105 49.6158431,44.2690084 49.3650795,44.5652427 C48.3747866,45.7237657 47.2732134,46.7889749 46.0750356,47.7464289 C45.7702908,47.9903285 45.6382092,48.3824686 45.73609,48.7531318 L46.663341,52.2554854 C45.4309623,53.0755607 44.1338828,53.8005941 42.7840983,54.4241674 L40.1100523,51.8987699 C39.8277678,51.6308013 39.4103389,51.5457573 39.0402552,51.6807908 C37.5836569,52.2047552 36.0786925,52.5931925 34.5457803,52.840795 C34.1556611,52.9041151 33.83841,53.1793661 33.7312134,53.5476841 L32.7361987,56.9728933 L28.2089268,56.9728933 L27.2139121,53.5466967 C27.1070983,53.1782552 26.7895921,52.9027573 26.3993452,52.8398075 C24.8664331,52.5928222 23.3614686,52.2046318 21.9048703,51.6806674 C21.5349142,51.545387 21.1172301,51.630431 20.8350732,51.8986464 L18.1611548,54.4241674 C16.8116255,53.7998536 15.514546,53.0744498 14.2819121,52.2544979 L15.2091632,48.7521444 C15.3071715,48.381728 15.17509,47.9898347 14.8702176,47.7464289 C13.6724226,46.7886046 12.5711046,45.7231485 11.5811946,44.5642552 C11.328772,44.269749 10.9235941,44.1421213 10.5403661,44.2364226 L6.9192887,45.133272 C6.07179707,43.9410523 5.32205858,42.6865 4.67709205,41.3812176 L7.28809623,38.7948452 C7.56425523,38.5213222 7.65205439,38.1180732 7.51346444,37.7601234 C6.97148326,36.3514059 6.57026151,34.8957845 6.31503138,33.4130084 C6.2499477,33.0355565 5.96511088,32.7285837 5.58417992,32.6251485 L2.041841,31.6628808 L2.041841,27.2839205 L5.58417992,26.3215293 C5.96511088,26.2182176 6.2499477,25.9111213 6.31503138,25.5336695 C6.57038912,24.0510167 6.97173849,22.5953954 7.51346444,21.1865544 C7.65218201,20.8286046 7.56438285,20.4252322 7.28809623,20.1518326 L4.67696444,17.5655837 C5.32244142,16.2601778 6.07243515,15.005749 6.92018201,13.8135293 L10.5412594,14.7103787 C10.9242322,14.8052971 11.3295377,14.677546 11.5810669,14.382546 C12.5713598,13.224023 13.6729331,12.1588138 14.8711109,11.2013598 C15.1758556,10.9574603 15.3079372,10.5653201 15.2100565,10.1946569 L14.2828054,6.69230335 C15.5154393,5.87259833 16.8125188,5.14744142 18.1621757,4.52362134 L20.8360941,7.04901883 C21.118251,7.31711088 21.5358075,7.40215481 21.9058912,7.26699791 C23.3622343,6.74328033 24.8668159,6.35508996 26.3993452,6.10785774 C26.7895921,6.04490795 27.1069707,5.76941004 27.2139121,5.40096862 L28.2089268,1.9748954 L32.7372197,1.9748954 L33.7322343,5.40109205 C33.8390481,5.76953347 34.1565544,6.04503138 34.5468013,6.10798117 C36.0797134,6.35496653 37.5846778,6.7431569 39.0412762,7.26712134 C39.4112322,7.40240167 39.8289163,7.31735774 40.1110732,7.04914226 L42.7849916,4.52362134 C44.1346485,5.14793515 45.4316004,5.87333891 46.6642343,6.6932908 L45.7369833,10.1956444 C45.6389749,10.5660607 45.7710565,10.957954 46.0759289,11.2013598 C47.2737239,12.1591841 48.3750418,13.2246402 49.3649519,14.3835335 C49.6163536,14.6793975 50.0224247,14.807272 50.4057803,14.7113661 L54.0268577,13.8145167 C54.8747322,15.0064895 55.6243431,16.2610418 56.2690544,17.5665711 L53.6580502,20.1529435 C53.3818912,20.4264665 53.2940921,20.8297155 53.432682,21.1876653 C53.9741527,22.5962594 54.3755021,24.0515105 54.6311151,25.5337929 C54.6961987,25.9112448 54.9810356,26.2182176 55.3619665,26.3216527 L58.9043054,27.2840439 L58.9043054,31.6638682 Z" id="Shape"></path>
                            <path d="M30.4730732,9.72500209 C19.1962406,9.72500209 10.0546632,18.5668556 10.0546632,29.4739561 C10.0671695,40.3759958 19.2014728,49.2108138 30.4730732,49.22291 C41.7499059,49.22291 50.8914833,40.3810565 50.8914833,29.4739561 C50.8914833,18.5668556 41.7499059,9.72500209 30.4730732,9.72500209 Z M44.148431,41.3046904 L42.0232573,39.2491946 L40.5795481,40.645569 L42.7047218,42.7010649 C39.6066109,45.391613 35.6514372,46.9780711 31.4938661,47.1981485 L31.4938661,44.285795 L29.4520251,44.285795 L29.4520251,47.1981485 C25.2945816,46.9781946 21.3394079,45.391613 18.2411695,42.7010649 L20.3663431,40.645569 L18.9226339,39.2491946 L16.7974603,41.3046904 C14.0157071,38.3081569 12.3753431,34.4826611 12.1479331,30.4614038 L15.1590105,30.4614038 L15.1590105,28.4865084 L12.1481883,28.4865084 C12.3755983,24.4653745 14.0159623,20.6398787 16.7977155,17.6432218 L18.9228891,19.6987176 L20.3665983,18.3023431 L18.2414247,16.2468473 C21.3395356,13.5562992 25.2947092,11.969841 29.4522803,11.7497636 L29.4522803,14.6621172 L31.4941213,14.6621172 L31.4941213,11.749887 C35.6515649,11.969841 39.6067385,13.5564226 42.704977,16.2469707 L40.5798033,18.3024665 L42.0235126,19.698841 L44.1486862,17.6433452 C46.9304393,20.6398787 48.5708033,24.4653745 48.7982134,28.4866318 L45.787136,28.4866318 L45.787136,30.4615272 L48.7982134,30.4615272 C48.5705481,34.4825377 46.9301841,38.3080335 44.148431,41.3046904 Z" id="Shape"></path>
                            <path d="M39.20641,20.752818 C38.8635084,20.5318766 38.4169833,20.5318766 38.0742092,20.752818 L30.6646234,25.530954 C30.6008159,25.5271276 30.5380293,25.5241653 30.4732008,25.5241653 C28.2178598,25.5241653 26.3895188,27.2925607 26.3895188,29.4739561 C26.3895188,31.6553515 28.2178598,33.4237469 30.4732008,33.4237469 C32.7276485,33.4215251 34.5545858,31.6544874 34.5568828,29.4739561 C34.5568828,29.4122406 34.5539477,29.3505251 34.549864,29.2897971 L39.4899707,22.1221611 C39.8025,21.6683054 39.6756506,21.0552238 39.20641,20.752818 Z M32.6415084,28.4971234 C32.5018975,28.708931 32.4460021,28.9622113 32.4840314,29.2106778 C32.501387,29.2975732 32.5117238,29.3855795 32.5149142,29.4739561 C32.5149142,30.5647155 31.6008075,31.4488515 30.4730732,31.4488515 C29.3453389,31.4488515 28.4312322,30.5647155 28.4312322,29.4739561 C28.4312322,28.3831967 29.3453389,27.4990607 30.4730732,27.4990607 C30.5712092,27.5027636 30.6688347,27.513749 30.7651841,27.5318933 C31.0160753,27.567318 31.2716883,27.5120209 31.4830188,27.3766172 L34.9584874,25.1356046 L32.6415084,28.4971234 Z" id="Shape"></path>
                        </g>
                    </g>
                </g>
            </g>
        </g>
    </g>
</svg>