<?xml version="1.0" encoding="UTF-8"?>
<svg width="53px" height="50px" viewBox="0 0 53 50" version="1.1" xmlns="http://www.w3.org/2000/svg" xmlns:xlink="http://www.w3.org/1999/xlink">
    <!-- Generator: sketchtool 52.2 (67145) - http://www.bohemiancoding.com/sketch -->
    <title>BEE81680-39CC-46B6-AF0C-B8793E60C166</title>
    <desc>Created with sketchtool.</desc>
    <g id="Page-1" stroke="none" stroke-width="1" fill="none" fill-rule="evenodd">
        <g id="Artboard" transform="translate(-553.000000, -4013.000000)" fill="#FFFFFF" fill-rule="nonzero">
            <g id="7" transform="translate(408.000000, 3402.000000)">
                <g id="Group-20" transform="translate(32.000000, 611.000000)">
                    <g id="Group-11" transform="translate(113.000000, 0.000000)">
                        <g id="006-tools">
                            <path d="M52.8309005,38.2569396 C52.3863803,36.8372092 51.5871,35.5470132 50.5044397,34.5020377 C48.7801143,32.81417 46.4336368,31.8680916 43.9883352,31.8745867 C42.7386178,31.8751994 41.5018672,32.1220132 40.3526107,32.6000769 L31.2884777,23.7765475 L43.3236321,12.1490965 L46.1737983,12.0706651 C46.5186131,12.0604936 46.8339694,11.879121 47.0097128,11.590273 L51.0885727,4.91380238 C51.3256249,4.52850827 51.263309,4.03561611 50.9375038,3.71772395 L47.4125632,0.286351404 C47.0860026,-0.0308054591 46.5796701,-0.0914672238 46.1838696,0.13929258 L39.3253423,4.10988082 C39.0286178,4.28095925 38.8422995,4.58794454 38.8318506,4.92360631 L38.7512805,7.68831219 L26.7463399,19.3549789 L18.5080501,11.335371 C19.3730454,6.45314062 16.0084895,1.81269944 10.9931285,0.970665129 C8.6693114,0.580469051 6.28015701,1.07238082 4.31764632,2.34517493 C3.85688622,2.64848376 3.73590523,3.25792003 4.0474848,3.70644944 C4.13510475,3.83255238 4.25167957,3.9370867 4.38814513,4.0118416 L8.96049668,6.49223376 C9.96762257,7.05105729 10.1690477,8.71772395 9.35327577,10.1294887 C8.5375038,11.5412534 6.97645867,12.2667436 5.95926152,11.717724 L1.71926152,9.48242984 C1.23193848,9.22140042 0.619480048,9.39443964 0.351458671,9.86882689 C0.25905487,10.0321847 0.216503801,10.2178465 0.228841094,10.4039985 C0.547470547,15.3486063 4.92355843,19.1054691 10.0029979,18.7952975 C11.052423,18.7312043 12.0828387,18.492724 13.0495537,18.090273 L20.5425703,25.3843906 L17.2996249,28.5412534 L16.564423,27.835371 C15.7505394,27.0771602 14.4677128,27.0771602 13.6538292,27.835371 L12.6467033,28.8157632 C11.8793993,29.5429691 11.8308055,30.7274053 12.5359195,31.5118416 L0.621620191,43.090273 C-0.18206627,43.8389249 -0.210139904,45.080224 0.558926604,45.8625769 C0.579320903,45.8834102 0.600218766,45.9037534 0.621620191,45.9236063 L4.0257057,49.2373318 C4.79477221,50.0196847 6.06991948,50.0470132 6.87360594,49.2983612 C6.89500736,49.2785083 6.91590523,49.2581651 6.93629953,49.2373318 L18.8606701,37.6392926 C19.6664967,38.3256896 20.8832306,38.2783857 21.6302663,37.5314494 L22.6373922,36.5510573 C23.4410786,35.8024053 23.4691523,34.5611063 22.7000857,33.7787534 C22.6796914,33.75792 22.6587936,33.7375769 22.6373922,33.717724 L21.9021903,33.0020377 L25.1249931,29.7961553 L34.8941143,39.3059592 C34.0501428,44.1917436 37.4345893,48.8183367 42.4536012,49.6399053 C45.426385,50.1265475 48.4556938,49.1669887 50.5649931,47.0706651 C50.9348601,46.6662534 50.8981,46.0466455 50.4826606,45.686474 C50.3754017,45.5934592 50.2488815,45.5238514 50.1117865,45.4824298 L44.4416677,44.0020377 C43.885986,43.8281406 43.4461238,43.4108612 43.2532591,42.8745867 C42.9586748,42.1352485 42.9232995,41.3218906 43.1525466,40.5608612 C43.5755394,39.0216455 44.9150169,37.9236063 46.0429979,38.217724 L51.6526891,39.6883122 C51.7428268,39.7010573 51.8344753,39.7010573 51.9246131,39.6883122 C52.4807983,39.6949298 52.9371523,39.2613514 52.9438245,38.7199298 C52.9457128,38.5589004 52.9070644,38.3998318 52.8309005,38.2569396 Z M40.4331808,8.77654748 C40.6144634,8.5988514 40.7189527,8.36024846 40.7252473,8.10988082 L40.8058173,5.49223376 L46.5162211,2.18831219 L48.9333233,4.54125336 L45.6098078,10.090273 L42.8704254,10.1883122 C42.6132306,10.1944396 42.3681214,10.2961553 42.1855798,10.4726259 L29.8986439,22.4236063 L28.1663874,20.7373318 L40.4331808,8.77654748 Z M5.50605487,47.8451749 L2.05161307,44.5020377 L14.0263399,32.8745867 L15.7585964,34.5608612 L17.4102829,36.2275279 L5.50605487,47.8451749 Z M20.2403067,36.0804691 L18.9109005,34.7765475 L18.3972663,34.2765475 L14.1673375,30.1294887 L15.1744634,29.1490965 L21.2172188,35.1098808 L20.2403067,36.0804691 Z M20.4316606,31.6098808 L18.699404,29.9236063 L21.9423494,26.7667436 L23.6746059,28.4530181 L20.4316606,31.6098808 Z M46.5363637,36.3255671 C46.2374991,36.2473808 45.9293185,36.2077975 45.6198791,36.20792 C43.4242188,36.3804691 41.6118957,37.9486063 41.1784539,40.0510573 C40.8347722,41.2316945 40.9019979,42.4899053 41.3698078,43.6294887 C41.8014872,44.7261798 42.7377366,45.5613514 43.8976938,45.8843906 L47.6442021,46.8647828 C44.2277793,48.846523 39.8078815,47.7570622 37.7721024,44.4314494 C36.8159622,42.8695622 36.5207485,41.0071847 36.9485252,39.2373318 C37.0251926,38.9081651 36.9224658,38.5636798 36.6766012,38.3255671 L13.9759836,16.20792 C13.6537033,15.9131896 13.1716677,15.8575524 12.7875751,16.0706651 C11.7475917,16.6048563 10.5895228,16.8842681 9.41370333,16.8843906 C6.38363919,16.8869641 3.67711425,15.040273 2.64581734,12.2667436 L4.94206437,13.5118416 C5.47735178,13.8036308 6.08099786,13.9555916 6.69446342,13.9530181 C8.55915701,13.8484838 10.2269575,12.7885573 11.075461,11.1687043 C12.4451523,8.7863514 11.9113755,5.95301807 9.89712375,4.85497885 L6.96638741,3.2373318 C10.7116368,1.93500336 14.8321665,3.83488082 16.1700074,7.4805916 C16.6342924,8.74603278 16.7152401,10.1146602 16.403157,11.4236063 C16.3264895,11.752773 16.4292164,12.0972583 16.675081,12.335371 L39.4260549,34.4726259 C39.737005,34.7756896 40.2141309,34.8472583 40.6043922,34.6490965 C41.6445014,34.115273 42.8024444,33.8359838 43.9782639,33.835371 C46.5285584,33.8334102 48.8891356,35.146523 50.1821594,37.2863514 L46.5363637,36.3255671 Z" id="Shape"></path>
                        </g>
                    </g>
                </g>
            </g>
        </g>
    </g>
</svg>