<?xml version="1.0" encoding="UTF-8"?>
<svg width="49px" height="43px" viewBox="0 0 49 43" version="1.1" xmlns="http://www.w3.org/2000/svg" xmlns:xlink="http://www.w3.org/1999/xlink">
    <!-- Generator: sketchtool 52.2 (67145) - http://www.bohemiancoding.com/sketch -->
    <title>2E700087-14E2-4E9C-8EBF-EA053809DCCF</title>
    <desc>Created with sketchtool.</desc>
    <g id="Page-1" stroke="none" stroke-width="1" fill="none" fill-rule="evenodd">
        <g id="Artboard" transform="translate(-1312.000000, -4017.000000)" fill="#FFFFFF" fill-rule="nonzero">
            <g id="7" transform="translate(408.000000, 3402.000000)">
                <g id="Group-22" transform="translate(791.000000, 615.000000)">
                    <g id="Group-13" transform="translate(113.000000, 0.000000)">
                        <g id="004-controls">
                            <path d="M6.28571429,31.9155556 L6.28571429,0.796296296 C6.28571429,0.355944444 5.9345,0 5.5,0 C5.0655,0 4.71428571,0.355944444 4.71428571,0.796296296 L4.71428571,31.9155556 C2.05385714,32.3041481 0,34.6237593 0,37.4259259 C0,40.4988333 2.46792857,43 5.5,43 C8.53207143,43 11,40.4988333 11,37.4259259 C11,34.6237593 8.94614286,32.3041481 6.28571429,31.9155556 Z M5.5,41.4074074 C3.33378571,41.4074074 1.57142857,39.6213148 1.57142857,37.4259259 C1.57142857,35.230537 3.33378571,33.4444444 5.5,33.4444444 C7.66621429,33.4444444 9.42857143,35.230537 9.42857143,37.4259259 C9.42857143,39.6213148 7.66621429,41.4074074 5.5,41.4074074 Z" id="Shape"></path>
                            <path d="M19.2857143,22.36 L19.2857143,0.796296296 C19.2857143,0.355944444 18.9345,0 18.5,0 C18.0655,0 17.7142857,0.355944444 17.7142857,0.796296296 L17.7142857,22.36 C15.0538571,22.7485926 13,25.0682037 13,27.8703704 C13,30.672537 15.0538571,32.9921481 17.7142857,33.3807407 L17.7142857,42.2037037 C17.7142857,42.6440556 18.0655,43 18.5,43 C18.9345,43 19.2857143,42.6440556 19.2857143,42.2037037 L19.2857143,33.3807407 C21.9461429,32.9921481 24,30.672537 24,27.8703704 C24,25.0682037 21.9461429,22.7485926 19.2857143,22.36 Z M18.5,31.8518519 C16.3337857,31.8518519 14.5714286,30.0657593 14.5714286,27.8703704 C14.5714286,25.6749815 16.3337857,23.8888889 18.5,23.8888889 C20.6662143,23.8888889 22.4285714,25.6749815 22.4285714,27.8703704 C22.4285714,30.0657593 20.6662143,31.8518519 18.5,31.8518519 Z" id="Shape"></path>
                            <path d="M31.2857143,12.8044444 L31.2857143,0.796296296 C31.2857143,0.355944444 30.9345,0 30.5,0 C30.0655,0 29.7142857,0.355944444 29.7142857,0.796296296 L29.7142857,12.8044444 C27.0538571,13.193037 25,15.5126481 25,18.3148148 C25,21.1169815 27.0538571,23.4365926 29.7142857,23.8251852 L29.7142857,42.2037037 C29.7142857,42.6440556 30.0655,43 30.5,43 C30.9345,43 31.2857143,42.6440556 31.2857143,42.2037037 L31.2857143,23.8251852 C33.9461429,23.4365926 36,21.1169815 36,18.3148148 C36,15.5126481 33.9461429,13.193037 31.2857143,12.8044444 Z M30.5,22.2962963 C28.3337857,22.2962963 26.5714286,20.5102037 26.5714286,18.3148148 C26.5714286,16.1194259 28.3337857,14.3333333 30.5,14.3333333 C32.6662143,14.3333333 34.4285714,16.1194259 34.4285714,18.3148148 C34.4285714,20.5102037 32.6662143,22.2962963 30.5,22.2962963 Z" id="Shape"></path>
                            <path d="M49,8.75925926 C49,5.95709259 46.9461429,3.63748148 44.2857143,3.24888889 L44.2857143,0.796296296 C44.2857143,0.355944444 43.9345,0 43.5,0 C43.0655,0 42.7142857,0.355944444 42.7142857,0.796296296 L42.7142857,3.24888889 C40.0538571,3.63748148 38,5.95709259 38,8.75925926 C38,11.5614259 40.0538571,13.881037 42.7142857,14.2696296 L42.7142857,42.2037037 C42.7142857,42.6440556 43.0655,43 43.5,43 C43.9345,43 44.2857143,42.6440556 44.2857143,42.2037037 L44.2857143,14.2696296 C46.9461429,13.881037 49,11.5614259 49,8.75925926 Z M43.5,12.7407407 C41.3337857,12.7407407 39.5714286,10.9546481 39.5714286,8.75925926 C39.5714286,6.56387037 41.3337857,4.77777778 43.5,4.77777778 C45.6662143,4.77777778 47.4285714,6.56387037 47.4285714,8.75925926 C47.4285714,10.9546481 45.6662143,12.7407407 43.5,12.7407407 Z" id="Shape"></path>
                        </g>
                    </g>
                </g>
            </g>
        </g>
    </g>
</svg>