<?xml version="1.0" encoding="UTF-8"?>
<svg width="63px" height="61px" viewBox="0 0 63 61" version="1.1" xmlns="http://www.w3.org/2000/svg" xmlns:xlink="http://www.w3.org/1999/xlink">
    <!-- Generator: sketchtool 52.2 (67145) - http://www.bohemiancoding.com/sketch -->
    <title>3FABFD08-A5E6-4816-972C-26A11026EA1A</title>
    <desc>Created with sketchtool.</desc>
    <g id="Page-1" stroke="none" stroke-width="1" fill="none" fill-rule="evenodd">
        <g id="Artboard" transform="translate(-946.000000, -3667.000000)" fill="#FFFFFF" fill-rule="nonzero">
            <g id="7" transform="translate(408.000000, 3402.000000)">
                <g id="Group-18" transform="translate(430.000000, 265.000000)">
                    <g id="Group-15" transform="translate(108.000000, 0.000000)">
                        <g id="002-budget">
                            <rect id="Rectangle-path" x="4.06451613" y="55.0967742" width="2.03225806" height="1.96774194"></rect>
                            <rect id="Rectangle-path" x="4.06451613" y="3.93548387" width="2.03225806" height="1.96774194"></rect>
                            <polygon id="Rectangle-path" points="24.3870968 3.93548387 26.4193548 3.93548387 26.4193548 5.90322581 24.3870968 5.90322581"></polygon>
                            <path d="M20.3225806,29.516129 L20.3225806,28.5322581 C20.3225806,26.8596774 19.0016129,25.5806452 17.2741935,25.5806452 C15.5467742,25.5806452 14.2258065,26.8596774 14.2258065,28.5322581 L14.2258065,32.4677419 C14.2258065,33.0580645 13.8193548,33.4516129 13.2096774,33.4516129 C12.6,33.4516129 12.1935484,33.0580645 12.1935484,32.4677419 L12.1935484,26.5645161 L10.1612903,26.5645161 L10.1612903,29.516129 L8.12903226,29.516129 L8.12903226,31.483871 L10.1612903,31.483871 L10.1612903,32.4677419 C10.1612903,34.1403226 11.4822581,35.4193548 13.2096774,35.4193548 C14.9370968,35.4193548 16.2580645,34.1403226 16.2580645,32.4677419 L16.2580645,28.5322581 C16.2580645,27.9419355 16.6645161,27.5483871 17.2741935,27.5483871 C17.883871,27.5483871 18.2903226,27.9419355 18.2903226,28.5322581 L18.2903226,34.4354839 L20.3225806,34.4354839 L20.3225806,31.483871 L22.3548387,31.483871 L22.3548387,29.516129 L20.3225806,29.516129 Z" id="Shape"></path>
                            <path d="M31.5,46.2419355 L27.4354839,46.2419355 C26.8258065,46.2419355 26.4193548,45.8483871 26.4193548,45.2580645 C26.4193548,44.6677419 26.8258065,44.2741935 27.4354839,44.2741935 L33.5322581,44.2741935 L33.5322581,42.3064516 L30.483871,42.3064516 L30.483871,40.3387097 L28.4516129,40.3387097 L28.4516129,42.3064516 L27.4354839,42.3064516 C25.7080645,42.3064516 24.3870968,43.5854839 24.3870968,45.2580645 C24.3870968,46.9306452 25.7080645,48.2096774 27.4354839,48.2096774 L31.5,48.2096774 C32.1096774,48.2096774 32.516129,48.6032258 32.516129,49.1935484 C32.516129,49.783871 32.1096774,50.1774194 31.5,50.1774194 L25.4032258,50.1774194 L25.4032258,52.1451613 L28.4516129,52.1451613 L28.4516129,54.1129032 L30.483871,54.1129032 L30.483871,52.1451613 L31.5,52.1451613 C33.2274194,52.1451613 34.5483871,50.866129 34.5483871,49.1935484 C34.5483871,47.5209677 33.2274194,46.2419355 31.5,46.2419355 Z" id="Shape"></path>
                            <path d="M15.2419355,9.83870968 C13.0064516,9.83870968 11.1774194,11.6096774 11.1774194,13.7741935 C11.1774194,15.9387097 13.0064516,17.7096774 15.2419355,17.7096774 C17.4774194,17.7096774 19.3064516,15.9387097 19.3064516,13.7741935 C19.3064516,11.6096774 17.4774194,9.83870968 15.2419355,9.83870968 Z M15.2419355,15.7419355 C14.1241935,15.7419355 13.2096774,14.8564516 13.2096774,13.7741935 C13.2096774,12.6919355 14.1241935,11.8064516 15.2419355,11.8064516 C16.3596774,11.8064516 17.2741935,12.6919355 17.2741935,13.7741935 C17.2741935,14.8564516 16.3596774,15.7419355 15.2419355,15.7419355 Z" id="Shape"></path>
                            <path d="M19.3064516,47.2258065 L21.3387097,47.2258065 C21.3387097,42.8967742 24.9967742,39.3548387 29.4677419,39.3548387 L29.4677419,37.3870968 C23.8790323,37.3870968 19.3064516,41.8145161 19.3064516,47.2258065 Z" id="Shape"></path>
                            <path d="M37.5967742,47.2258065 C37.5967742,51.5548387 33.9387097,55.0967742 29.4677419,55.0967742 L29.4677419,57.0645161 C35.0564516,57.0645161 39.6290323,52.6370968 39.6290323,47.2258065 L37.5967742,47.2258065 Z" id="Shape"></path>
                            <path d="M62.6951613,23.9080645 L56.5983871,18.0048387 C56.3951613,17.8080645 56.1919355,17.7096774 55.8870968,17.7096774 L33.5322581,17.7096774 C32.9225806,17.7096774 32.516129,18.1032258 32.516129,18.6935484 L32.516129,33.7467742 C31.8048387,33.6483871 31.1951613,33.55 30.483871,33.4516129 L30.483871,0.983870968 C30.483871,0.393548387 30.0774194,0 29.4677419,0 L1.01612903,0 C0.406451613,0 0,0.393548387 0,0.983870968 L0,60.016129 C0,60.6064516 0.406451613,61 1.01612903,61 L29.4677419,61 C30.5854839,61 31.7032258,60.9016129 32.7193548,60.6064516 C32.9225806,60.8032258 33.2274194,61 33.5322581,61 L61.983871,61 C62.5935484,61 63,60.6064516 63,60.016129 L63,24.5967742 C63,24.3016129 62.8983871,24.1048387 62.6951613,23.9080645 Z M56.9032258,21.0548387 L59.5451613,23.6129032 L56.9032258,23.6129032 L56.9032258,21.0548387 Z M34.5483871,19.6774194 L54.8709677,19.6774194 L54.8709677,21.6451613 L34.5483871,21.6451613 L34.5483871,19.6774194 Z M2.03225806,59.0322581 L2.03225806,1.96774194 L28.4516129,1.96774194 L28.4516129,33.55 C27.7403226,33.55 27.1306452,33.6483871 26.4193548,33.8451613 L26.4193548,8.85483871 C26.4193548,8.26451613 26.0129032,7.87096774 25.4032258,7.87096774 C23.6758065,7.87096774 22.3548387,6.59193548 22.3548387,4.91935484 C22.3548387,4.32903226 21.9483871,3.93548387 21.3387097,3.93548387 L9.14516129,3.93548387 C8.53548387,3.93548387 8.12903226,4.32903226 8.12903226,4.91935484 C8.12903226,6.59193548 6.80806452,7.87096774 5.08064516,7.87096774 C4.47096774,7.87096774 4.06451613,8.26451613 4.06451613,8.85483871 L4.06451613,52.1451613 C4.06451613,52.7354839 4.47096774,53.1290323 5.08064516,53.1290323 C6.80806452,53.1290323 8.12903226,54.4080645 8.12903226,56.0806452 C8.12903226,56.6709677 8.53548387,57.0645161 9.14516129,57.0645161 L19.5096774,57.0645161 C20.3225806,57.8516129 21.2370968,58.4419355 22.1516129,59.0322581 L2.03225806,59.0322581 Z M15.4451613,49.1935484 C15.3435484,49.1935484 15.3435484,49.1935484 15.2419355,49.1935484 C14.1241935,49.1935484 13.2096774,48.3080645 13.2096774,47.2258065 C13.2096774,46.1435484 14.1241935,45.2580645 15.2419355,45.2580645 C15.3435484,45.2580645 15.3435484,45.2580645 15.4451613,45.2580645 C15.1403226,46.5370968 15.1403226,47.9145161 15.4451613,49.1935484 Z M11.1774194,46.5370968 C10.8725806,48.7016129 12.2951613,50.6693548 14.5306452,51.0629032 C14.9370968,51.1612903 15.3435484,51.1612903 15.8516129,51.0629032 C16.2580645,52.4403226 16.9693548,53.8177419 17.7822581,55.0967742 L10.0596774,55.0967742 C9.65322581,53.1290323 8.12903226,51.6532258 6.09677419,51.2596774 L6.09677419,9.74032258 C8.12903226,9.34677419 9.65322581,7.87096774 10.0596774,5.90322581 L20.4241935,5.90322581 C20.8306452,7.87096774 22.3548387,9.34677419 24.3870968,9.74032258 L24.3870968,34.3370968 C20.2209677,35.9112903 17.0709677,39.2564516 15.8516129,43.2903226 C13.616129,42.9951613 11.583871,44.3725806 11.1774194,46.5370968 Z M29.4677419,59.0322581 C22.7612903,59.0322581 17.2741935,53.7193548 17.2741935,47.2258065 C17.2741935,40.7322581 22.7612903,35.4193548 29.4677419,35.4193548 C36.1741935,35.4193548 41.6612903,40.7322581 41.6612903,47.2258065 C41.6612903,53.7193548 36.1741935,59.0322581 29.4677419,59.0322581 Z M38.6129032,36.6983871 L38.6129032,35.4193548 L40.6451613,35.4193548 L40.6451613,37.3870968 L39.4258065,37.3870968 C39.1209677,37.1903226 38.9177419,36.8951613 38.6129032,36.6983871 Z M60.9677419,59.0322581 L36.783871,59.0322581 C37.6983871,58.4419355 38.6129032,57.8516129 39.4258065,57.0645161 L60.9677419,57.0645161 L60.9677419,59.0322581 Z M60.9677419,55.0967742 L41.1532258,55.0967742 C44.6080645,50.3741935 44.6080645,44.0774194 41.1532258,39.3548387 L41.6612903,39.3548387 C42.2709677,39.3548387 42.6774194,38.9612903 42.6774194,38.3709677 L42.6774194,34.4354839 C42.6774194,33.8451613 42.2709677,33.4516129 41.6612903,33.4516129 L37.5967742,33.4516129 C36.9870968,33.4516129 36.5806452,33.8451613 36.5806452,34.4354839 L36.5806452,35.3209677 C35.9709677,34.9274194 35.2596774,34.6322581 34.5483871,34.3370968 L34.5483871,23.6129032 L54.8709677,23.6129032 L54.8709677,24.5967742 C54.8709677,25.1870968 55.2774194,25.5806452 55.8870968,25.5806452 L60.9677419,25.5806452 L60.9677419,55.0967742 Z" id="Shape"></path>
                            <path d="M41.6612903,25.5806452 L37.5967742,25.5806452 C36.9870968,25.5806452 36.5806452,25.9741935 36.5806452,26.5645161 L36.5806452,30.5 C36.5806452,31.0903226 36.9870968,31.483871 37.5967742,31.483871 L41.6612903,31.483871 C42.2709677,31.483871 42.6774194,31.0903226 42.6774194,30.5 L42.6774194,26.5645161 C42.6774194,25.9741935 42.2709677,25.5806452 41.6612903,25.5806452 Z M40.6451613,29.516129 L38.6129032,29.516129 L38.6129032,27.5483871 L40.6451613,27.5483871 L40.6451613,29.516129 Z" id="Shape"></path>
                            <polygon id="Rectangle-path" points="44.7096774 29.516129 58.9354839 29.516129 58.9354839 31.483871 44.7096774 31.483871"></polygon>
                            <polygon id="Rectangle-path" points="44.7096774 37.3870968 58.9354839 37.3870968 58.9354839 39.3548387 44.7096774 39.3548387"></polygon>
                            <polygon id="Rectangle-path" points="44.7096774 45.2580645 58.9354839 45.2580645 58.9354839 47.2258065 44.7096774 47.2258065"></polygon>
                        </g>
                    </g>
                </g>
            </g>
        </g>
    </g>
</svg>