<?xml version="1.0" encoding="UTF-8"?>
<svg width="578px" height="615px" viewBox="0 0 578 615" version="1.1" xmlns="http://www.w3.org/2000/svg" xmlns:xlink="http://www.w3.org/1999/xlink">
    <!-- Generator: sketchtool 52.2 (67145) - http://www.bohemiancoding.com/sketch -->
    <title>13998A51-A7BA-4D37-A3DF-36A4F88EEF2D</title>
    <desc>Created with sketchtool.</desc>
    <defs>
        <linearGradient x1="50%" y1="0%" x2="50%" y2="100%" id="linearGradient-1">
            <stop stop-color="#FFFFFF" offset="0%"></stop>
            <stop stop-color="#FFFFFF" offset="100%"></stop>
        </linearGradient>
        <linearGradient x1="50.0026005%" y1="100.006572%" x2="50.0026005%" y2="-0.0186860239%" id="linearGradient-2">
            <stop stop-color="#808080" stop-opacity="0.25" offset="0%"></stop>
            <stop stop-color="#808080" stop-opacity="0.12" offset="54%"></stop>
            <stop stop-color="#808080" stop-opacity="0.1" offset="100%"></stop>
        </linearGradient>
        <linearGradient x1="50%" y1="0%" x2="50%" y2="100%" id="linearGradient-3">
            <stop stop-color="#CECECE" offset="0%"></stop>
            <stop stop-color="#A0A0A0" offset="100%"></stop>
        </linearGradient>
        <linearGradient x1="50%" y1="0%" x2="50%" y2="100%" id="linearGradient-4">
            <stop stop-color="#FAD961" offset="0%"></stop>
            <stop stop-color="#F76B1C" offset="100%"></stop>
        </linearGradient>
        <linearGradient x1="49.9873487%" y1="99.9899292%" x2="49.9873487%" y2="0.0090951199%" id="linearGradient-5">
            <stop stop-color="#808080" stop-opacity="0.25" offset="0%"></stop>
            <stop stop-color="#808080" stop-opacity="0.12" offset="54%"></stop>
            <stop stop-color="#808080" stop-opacity="0.1" offset="100%"></stop>
        </linearGradient>
        <linearGradient x1="50%" y1="0%" x2="50%" y2="100%" id="linearGradient-6">
            <stop stop-color="#05D0B9" offset="0%"></stop>
            <stop stop-color="#02A383" offset="100%"></stop>
        </linearGradient>
    </defs>
    <g id="Page-1" stroke="none" stroke-width="1" fill="none" fill-rule="evenodd">
        <g id="Artboard" transform="translate(-407.000000, -1935.000000)">
            <g id="5" transform="translate(407.000000, 1935.000000)">
                <g id="undraw_ethereum_fb7n">
                    <path d="M567,534.689673 C561.432898,537.562372 555.59995,540.043695 549.845193,542.51719 C528.585429,551.50318 507.005089,560.567445 484.165894,563.651487 C441.302333,569.436022 397.031359,553.77316 354.894961,563.518419 C319.592338,571.674692 290.396326,596.667955 255.906876,607.798684 C239.87018,612.972673 223.184511,615 206.350281,615 L204.145333,615 C202.060276,614.973908 199.990857,614.921725 197.937076,614.84345 C180.868277,614.201593 163.729108,611.673305 146.996525,608.440541 C94.1637845,598.264768 40.3927685,579.611794 0,545.272476 C117.612858,523.731149 359.88346,490.706853 567,534.689673 Z" id="Path" fill="url(#linearGradient-1)" opacity="0.1"></path>
                    <path d="M410.75222,537 C410.75222,537 391.059087,471.528237 414.448175,423.362406 C424.266802,403.140886 427.523712,380.43369 422.989582,358.484703 C420.82149,348.063695 417.68181,337.859381 413.609999,328" id="Path" stroke="#535461" stroke-width="2"></path>
                    <path d="M428,298.824725 C428,306.828977 413.501958,330 413.501958,330 C413.501958,330 399.003916,306.797802 399.003916,298.824725 C398.881932,293.5697 401.61751,288.660836 406.152184,285.997501 C410.686858,283.334166 416.309259,283.334166 420.843933,285.997501 C425.378607,288.660836 428.114185,293.5697 427.992201,298.824725 L428,298.824725 Z" id="Path" fill="#14345A"></path>
                    <path d="M451.882912,341.403144 C447.569029,348.224629 423,360 423,360 C423,360 423.448396,332.231333 427.762279,325.409848 C432.162675,318.821587 440.892355,317.026332 447.437123,321.363723 C453.981891,325.701115 455.954477,334.589045 451.882912,341.39523 L451.882912,341.403144 Z" id="Path" fill="#14345A"></path>
                    <path d="M450.693649,418.016283 C443.481209,421.677629 416,419.149556 416,419.149556 C416,419.149556 430.322633,395.37458 437.535074,391.713234 C442.212751,389.217033 447.864108,389.46306 452.310676,392.356479 C456.757243,395.249897 459.304602,400.338842 458.970802,405.66164 C458.637002,410.984438 455.474173,415.70983 450.701515,418.016283 L450.693649,418.016283 Z" id="Path" fill="#14345A"></path>
                    <path d="M436.983927,475.117791 C430.499944,479.856106 403,482 403,482 C403,482 413.122872,456.646128 419.606854,451.900045 C423.800663,448.782475 429.363988,448.127222 434.181629,450.183418 C438.999271,452.239613 442.331154,456.691389 442.910483,461.846159 C443.489812,467.00093 441.227591,472.066834 436.983927,475.117791 Z" id="Path" fill="#14345A"></path>
                    <path d="M392.214815,361.626491 C398.011091,367.200212 425,373 425,373 C425,373 418.384685,346.441024 412.588409,340.859507 C406.756016,335.512642 397.678777,335.749799 392.139459,341.393769 C386.60014,347.037739 386.623103,356.025915 392.191189,361.642082 L392.214815,361.626491 Z" id="Path" fill="#14345A"></path>
                    <path d="M376.306351,429.016283 C383.518791,432.677629 411,430.149556 411,430.149556 C411,430.149556 396.677367,406.37458 389.464926,402.713234 C384.787249,400.217033 379.135892,400.46306 374.689324,403.356479 C370.242757,406.249897 367.695398,411.338842 368.029198,416.66164 C368.362998,421.984438 371.525827,426.70983 376.298485,429.016283 L376.306351,429.016283 Z" id="Path" fill="#14345A"></path>
                    <path d="M371.016073,496.117791 C377.500056,500.856106 405,503 405,503 C405,503 394.877128,477.646128 388.393146,472.900045 C384.199337,469.782475 378.636012,469.127222 373.818371,471.183418 C369.000729,473.239613 365.668846,477.691389 365.089517,482.846159 C364.510188,488.00093 366.772409,493.066834 371.016073,496.117791 Z" id="Path" fill="#14345A"></path>
                    <path d="M428,298.824725 C428,306.828977 413.501958,330 413.501958,330 C413.501958,330 399.003916,306.797802 399.003916,298.824725 C398.881932,293.5697 401.61751,288.660836 406.152184,285.997501 C410.686858,283.334166 416.309259,283.334166 420.843933,285.997501 C425.378607,288.660836 428.114185,293.5697 427.992201,298.824725 L428,298.824725 Z" id="Path" fill="#1A4373" opacity="0.25"></path>
                    <path d="M451.882912,341.403144 C447.569029,348.224629 423,360 423,360 C423,360 423.448396,332.231333 427.762279,325.409848 C432.162675,318.821587 440.892355,317.026332 447.437123,321.363723 C453.981891,325.701115 455.954477,334.589045 451.882912,341.39523 L451.882912,341.403144 Z" id="Path" fill="#1A4373" opacity="0.25"></path>
                    <path d="M450.693649,418.016283 C443.481209,421.677629 416,419.149556 416,419.149556 C416,419.149556 430.322633,395.37458 437.535074,391.713234 C442.212751,389.217033 447.864108,389.46306 452.310676,392.356479 C456.757243,395.249897 459.304602,400.338842 458.970802,405.66164 C458.637002,410.984438 455.474173,415.70983 450.701515,418.016283 L450.693649,418.016283 Z" id="Path" fill="#1A4373" opacity="0.25"></path>
                    <path d="M436.983927,475.117791 C430.499944,479.856106 403,482 403,482 C403,482 413.122872,456.646128 419.606854,451.900045 C423.800663,448.782475 429.363988,448.127222 434.181629,450.183418 C438.999271,452.239613 442.331154,456.691389 442.910483,461.846159 C443.489812,467.00093 441.227591,472.066834 436.983927,475.117791 Z" id="Path" fill="#1A4373" opacity="0.25"></path>
                    <path d="M392.214815,361.626491 C398.011091,367.200212 425,373 425,373 C425,373 418.384685,346.441024 412.588409,340.859507 C406.756016,335.512642 397.678777,335.749799 392.139459,341.393769 C386.60014,347.037739 386.623103,356.025915 392.191189,361.642082 L392.214815,361.626491 Z" id="Path" fill="#1A4373" opacity="0.25"></path>
                    <path d="M376.306351,429.016283 C383.518791,432.677629 411,430.149556 411,430.149556 C411,430.149556 396.677367,406.37458 389.464926,402.713234 C384.787249,400.217033 379.135892,400.46306 374.689324,403.356479 C370.242757,406.249897 367.695398,411.338842 368.029198,416.66164 C368.362998,421.984438 371.525827,426.70983 376.298485,429.016283 L376.306351,429.016283 Z" id="Path" fill="#1A4373" opacity="0.25"></path>
                    <path d="M371.016073,496.117791 C377.500056,500.856106 405,503 405,503 C405,503 394.877128,477.646128 388.393146,472.900045 C384.199337,469.782475 378.636012,469.127222 373.818371,471.183418 C369.000729,473.239613 365.668846,477.691389 365.089517,482.846159 C364.510188,488.00093 366.772409,493.066834 371.016073,496.117791 Z" id="Path" fill="#1A4373" opacity="0.25"></path>
                    <path d="M75.7522199,560 C75.7522199,560 56.0590874,494.543398 79.4481747,446.351707 C89.2668018,426.132456 92.5237122,403.427807 87.989582,381.481283 C85.8214901,371.061444 82.6818102,360.858275 78.6099992,351" id="Path" stroke="#535461" stroke-width="2"></path>
                    <path d="M93,321.824725 C93,329.828977 78.5019579,353 78.5019579,353 C78.5019579,353 64.0039158,329.797802 64.0039158,321.824725 C63.8819319,316.5697 66.6175104,311.660836 71.1521842,308.997501 C75.686858,306.334166 81.3092589,306.334166 85.8439328,308.997501 C90.3786066,311.660836 93.114185,316.5697 92.9922012,321.824725 L93,321.824725 Z" id="Path" fill="#14345A"></path>
                    <path d="M116.443505,364.679753 C112.045894,371.399775 87,383 87,383 C87,383 87.4570994,355.644363 91.8547106,348.92434 C94.6339419,344.434713 99.6558507,341.789012 104.973028,342.013196 C110.290205,342.23738 115.066316,345.296186 117.449266,350.003462 C119.832217,354.710739 119.447195,360.326081 116.443505,364.671957 L116.443505,364.679753 Z" id="Path" fill="#14345A"></path>
                    <path d="M115.299553,441.065559 C108.169041,444.635956 81,442.170682 81,442.170682 C81,442.170682 95.1599379,418.986283 102.29045,415.415885 C109.387623,412.032847 117.90376,414.915125 121.448437,421.899888 C124.993114,428.884651 122.26326,437.404203 115.307329,441.065559 L115.299553,441.065559 Z" id="Path" fill="#14345A"></path>
                    <path d="M102.143541,498.089236 C95.6291046,502.847211 68,505 68,505 C68,505 78.1704163,479.540934 84.6848523,474.775159 C91.2038756,470.090901 100.327277,471.476072 105.121306,477.877948 C109.915334,484.279823 108.585977,493.302705 102.143541,498.089236 Z" id="Path" fill="#14345A"></path>
                    <path d="M56.1833132,384.649877 C61.979589,390.223598 89,396 89,396 C89,396 82.3846852,369.441024 76.5884093,363.859507 C70.7560165,358.512642 61.678777,358.749799 56.1394586,364.393769 C50.6001402,370.037739 50.623103,379.025915 56.1911886,384.642082 L56.1833132,384.649877 Z" id="Path" fill="#14345A"></path>
                    <path d="M41.6406172,452.063248 C48.7835676,455.63791 76,453.169691 76,453.169691 C76,453.169691 61.8153625,429.957597 54.6724121,426.382935 C47.5711468,423.048244 39.0882235,425.945183 35.5526293,432.912386 C32.0170351,439.87959 34.7181083,448.376302 41.6406172,452.063248 Z" id="Path" fill="#14345A"></path>
                    <path d="M35.8564594,519.092502 C42.3708954,523.848229 70,526 70,526 C70,526 59.8295837,500.552964 53.3151477,495.773848 C46.7961244,491.091803 37.6727226,492.47632 32.8786942,498.87517 C28.0846659,505.274021 29.4140232,514.292639 35.8564594,519.076909 L35.8564594,519.092502 Z" id="Path" fill="#14345A"></path>
                    <path d="M93,321.824725 C93,329.828977 78.5019579,353 78.5019579,353 C78.5019579,353 64.0039158,329.797802 64.0039158,321.824725 C63.8819319,316.5697 66.6175104,311.660836 71.1521842,308.997501 C75.686858,306.334166 81.3092589,306.334166 85.8439328,308.997501 C90.3786066,311.660836 93.114185,316.5697 92.9922012,321.824725 L93,321.824725 Z" id="Path" fill="#3072C1" opacity="0.25"></path>
                    <path d="M116.443505,364.679753 C112.045894,371.399775 87,383 87,383 C87,383 87.4570994,355.644363 91.8547106,348.92434 C94.6339419,344.434713 99.6558507,341.789012 104.973028,342.013196 C110.290205,342.23738 115.066316,345.296186 117.449266,350.003462 C119.832217,354.710739 119.447195,360.326081 116.443505,364.671957 L116.443505,364.679753 Z" id="Path" fill="#3072C1" opacity="0.25"></path>
                    <path d="M115.299553,441.065559 C108.169041,444.635956 81,442.170682 81,442.170682 C81,442.170682 95.1599379,418.986283 102.29045,415.415885 C109.387623,412.032847 117.90376,414.915125 121.448437,421.899888 C124.993114,428.884651 122.26326,437.404203 115.307329,441.065559 L115.299553,441.065559 Z" id="Path" fill="#5DA3F7" opacity="0.25"></path>
                    <path d="M102.143541,498.089236 C95.6291046,502.847211 68,505 68,505 C68,505 78.1704163,479.540934 84.6848523,474.775159 C91.2038756,470.090901 100.327277,471.476072 105.121306,477.877948 C109.915334,484.279823 108.585977,493.302705 102.143541,498.089236 Z" id="Path" fill="#5DA3F7" opacity="0.25"></path>
                    <path d="M56.1833132,384.649877 C61.979589,390.223598 89,396 89,396 C89,396 82.3846852,369.441024 76.5884093,363.859507 C70.7560165,358.512642 61.678777,358.749799 56.1394586,364.393769 C50.6001402,370.037739 50.623103,379.025915 56.1911886,384.642082 L56.1833132,384.649877 Z" id="Path" fill="#3072C1" opacity="0.25"></path>
                    <path d="M41.6406172,452.063248 C48.7835676,455.63791 76,453.169691 76,453.169691 C76,453.169691 61.8153625,429.957597 54.6724121,426.382935 C47.5711468,423.048244 39.0882235,425.945183 35.5526293,432.912386 C32.0170351,439.87959 34.7181083,448.376302 41.6406172,452.063248 Z" id="Path" fill="#5DA3F7" opacity="0.25"></path>
                    <path d="M35.8564594,519.092502 C42.3708954,523.848229 70,526 70,526 C70,526 59.8295837,500.552964 53.3151477,495.773848 C46.7961244,491.091803 37.6727226,492.47632 32.8786942,498.87517 C28.0846659,505.274021 29.4140232,514.292639 35.8564594,519.076909 L35.8564594,519.092502 Z" id="Path" fill="#5DA3F7" opacity="0.25"></path>
                    <path d="M311.240048,517 C311.240048,517 300.47269,481.594791 313.254898,455.54249 C318.687331,444.647123 320.324738,432.338722 317.92129,420.465179 C316.73541,414.836656 315.019645,409.325225 312.795512,404" id="Path" stroke="#535461" stroke-width="2"></path>
                    <path d="M320.992052,388.928943 C320.992052,393.308965 312.996026,406 312.996026,406 C312.996026,406 305,393.32472 305,388.928943 C305,384.549909 308.581722,381 313,381 C317.418278,381 321,384.549909 321,388.928943 L320.992052,388.928943 Z" id="Path" fill="#14345A"></path>
                    <path d="M333.748274,411.095193 C331.41289,414.723841 318,421 318,421 C318,421 318.241323,406.205084 320.592276,402.576436 C322.944006,398.944639 327.793788,397.907474 331.424567,400.259864 C335.055346,402.612254 336.092219,407.463396 333.740489,411.095193 L333.748274,411.095193 Z" id="Path" fill="#14345A"></path>
                    <path d="M332.665246,452.938723 C328.757112,454.89962 314,453.54268 314,453.54268 C314,453.54268 321.706839,440.804693 325.583708,438.843796 C328.096943,437.574379 331.094134,437.746871 333.446269,439.296296 C335.798405,440.845721 337.148138,443.536684 336.987038,446.355525 C336.825939,449.174367 335.178481,451.692838 332.665246,452.962254 L332.665246,452.938723 Z" id="Path" fill="#14345A"></path>
                    <path d="M325.719301,483.240664 C322.144962,485.825207 307,487 307,487 C307,487 312.597399,473.160943 316.147749,470.552903 C319.720476,467.957623 324.764778,468.690478 327.414513,472.189781 C330.064249,475.689084 329.316016,480.629719 325.74329,483.225 L325.719301,483.240664 Z" id="Path" fill="#14345A"></path>
                    <path d="M301.252373,421.688209 C304.399115,424.788035 319,428 319,428 C319,428 315.412714,413.189718 312.265971,410.121932 C309.108028,407.170264 304.216041,407.315256 301.232076,410.448961 C298.24811,413.582666 298.257109,418.565698 301.252373,421.688209 Z" id="Path" fill="#14345A"></path>
                    <path d="M293.334754,458.938723 C297.242888,460.89962 312,459.54268 312,459.54268 C312,459.54268 304.293161,446.804693 300.416292,444.843796 C297.903057,443.574379 294.905866,443.746871 292.553731,445.296296 C290.201595,446.845721 288.851862,449.536684 289.012962,452.355525 C289.174061,455.174367 290.821519,457.692838 293.334754,458.962254 L293.334754,458.938723 Z" id="Path" fill="#14345A"></path>
                    <path d="M289.280699,495.240664 C292.855038,497.825207 308,499 308,499 C308,499 302.402601,485.160943 298.852251,482.552903 C295.279524,479.957623 290.235222,480.690478 287.585487,484.189781 C284.935751,487.689084 285.683984,492.629719 289.25671,495.225 L289.280699,495.240664 Z" id="Path" fill="#14345A"></path>
                    <path d="M320.992052,388.928943 C320.992052,393.308965 312.996026,406 312.996026,406 C312.996026,406 305,393.32472 305,388.928943 C305,384.549909 308.581722,381 313,381 C317.418278,381 321,384.549909 321,388.928943 L320.992052,388.928943 Z" id="Path" fill="#FFFFFF" opacity="0.5"></path>
                    <path d="M333.748274,411.095193 C331.41289,414.723841 318,421 318,421 C318,421 318.241323,406.205084 320.592276,402.576436 C322.944006,398.944639 327.793788,397.907474 331.424567,400.259864 C335.055346,402.612254 336.092219,407.463396 333.740489,411.095193 L333.748274,411.095193 Z" id="Path" fill="#FFFFFF" opacity="0.5"></path>
                    <path d="M332.665246,452.938723 C328.757112,454.89962 314,453.54268 314,453.54268 C314,453.54268 321.706839,440.804693 325.583708,438.843796 C328.096943,437.574379 331.094134,437.746871 333.446269,439.296296 C335.798405,440.845721 337.148138,443.536684 336.987038,446.355525 C336.825939,449.174367 335.178481,451.692838 332.665246,452.962254 L332.665246,452.938723 Z" id="Path" fill="#FFFFFF" opacity="0.5"></path>
                    <path d="M325.719301,483.240664 C322.144962,485.825207 307,487 307,487 C307,487 312.597399,473.160943 316.147749,470.552903 C319.720476,467.957623 324.764778,468.690478 327.414513,472.189781 C330.064249,475.689084 329.316016,480.629719 325.74329,483.225 L325.719301,483.240664 Z" id="Path" fill="#FFFFFF" opacity="0.5"></path>
                    <path d="M301.252373,421.688209 C304.399115,424.788035 319,428 319,428 C319,428 315.412714,413.189718 312.265971,410.121932 C309.108028,407.170264 304.216041,407.315256 301.232076,410.448961 C298.24811,413.582666 298.257109,418.565698 301.252373,421.688209 Z" id="Path" fill="#FFFFFF" opacity="0.5"></path>
                    <path d="M293.334754,458.938723 C297.242888,460.89962 312,459.54268 312,459.54268 C312,459.54268 304.293161,446.804693 300.416292,444.843796 C297.903057,443.574379 294.905866,443.746871 292.553731,445.296296 C290.201595,446.845721 288.851862,449.536684 289.012962,452.355525 C289.174061,455.174367 290.821519,457.692838 293.334754,458.962254 L293.334754,458.938723 Z" id="Path" fill="#FFFFFF" opacity="0.5"></path>
                    <path d="M289.280699,495.240664 C292.855038,497.825207 308,499 308,499 C308,499 302.402601,485.160943 298.852251,482.552903 C295.279524,479.957623 290.235222,480.690478 287.585487,484.189781 C284.935751,487.689084 285.683984,492.629719 289.25671,495.225 L289.280699,495.240664 Z" id="Path" fill="#FFFFFF" opacity="0.5"></path>
                    <polyline id="Path" stroke="#535461" stroke-width="2" points="239 80 239 168 280 115.634549"></polyline>
                    <path d="M198,107 L239,167" id="Path" stroke="#535461" stroke-width="2"></path>
                    <g id="Group" opacity="0.7" transform="translate(163.000000, 0.000000)" fill="url(#linearGradient-2)">
                        <path d="M150.616632,69.4588235 C150.609467,58.9749395 145.598725,49.1274099 137.136681,42.9668973 C128.674637,36.8063848 117.783007,35.0767164 107.835907,38.3137255 C108.105109,36.4722907 108.243678,34.6140329 108.25057,32.7529412 C108.238402,15.1309382 94.3198876,0.677234717 76.7526096,0.0438351184 C59.1853317,-0.58956448 44.2669695,12.8244067 42.9919689,30.4 C33.0418941,27.1536979 22.1428799,28.8788518 13.6746254,35.040505 C5.20637084,41.2021582 0.192498879,51.0555045 0.187772021,61.545098 C0.187772021,78.0156863 12.2599482,101.34902 28.0015026,105.466667 L30.4503627,106.870588 L29.1203109,111.435294 L36.9910881,111.435294 L35.3011399,106.878431 L37.7343523,105.482353 C49.8925907,102.282353 59.8679793,87.6 63.7720725,73.5137255 C65.9100957,74.9417091 68.2640552,76.0143306 70.7431088,76.6901961 L73.1919689,78.0941176 L71.8619171,82.6588235 L79.7326943,82.6588235 L78.0192746,78.0862745 L80.452487,76.6901961 C82.2641622,76.2038886 84.0090302,75.4952628 85.647513,74.5803922 C87.7521244,90.3843137 98.9480311,109.670588 113.101347,113.396078 L115.550207,114.8 L114.220155,119.364706 L122.090933,119.364706 L120.377513,114.792157 L122.810725,113.396078 C138.575751,109.262745 150.616632,85.8901961 150.616632,69.4588235 Z" id="Path"></path>
                    </g>
                    <polygon id="Path" fill="#14345A" points="202 110 194 110 195.397739 105 200.199383 105"></polygon>
                    <path d="M229,61.0558826 C229,78.4833862 214.898664,104 197.5,104 C180.101336,104 166,78.4677702 166,61.0558826 C166.270624,43.8257313 180.292336,30 197.496102,30 C214.699869,30 228.721581,43.8257313 228.992205,61.0558826 L229,61.0558826 Z" id="Path" fill="url(#linearGradient-3)"></path>
                    <polygon id="Path" fill="#535461" points="200.306477 105 195.693523 105 193 103 203 103"></polygon>
                    <path d="M186,37 C186,37 172.902928,44.3333333 171,59" id="Path" fill="#FFFFFF" opacity="0.1"></path>
                    <polygon id="Path" fill="#14345A" points="243 82 235 82 236.397739 77 241.199383 77"></polygon>
                    <polygon id="Path" fill="#000000" opacity="0.07" points="243 82 235 82 236.397739 77 241.199383 77"></polygon>
                    <path d="M270,33.0558826 C270,50.4833862 255.898664,76 238.5,76 C221.101336,76 207,50.4677702 207,33.0558826 C207.270624,15.8257313 221.292336,2 238.496102,2 C255.699869,2 269.721581,15.8257313 269.992205,33.0558826 L270,33.0558826 Z" id="Path" fill="url(#linearGradient-4)"></path>
                    <polygon id="Path" fill="#535461" points="241.306477 78 236.693523 78 234 76 244 76"></polygon>
                    <path d="M227,9 C227,9 213.902928,16.3333333 212,31" id="Path" fill="#FFFFFF" opacity="0.1"></path>
                    <polygon id="Path" fill="#14345A" points="284 117 276 117 277.404517 112 282.201232 112"></polygon>
                    <path d="M311,69.0558826 C311,86.4833862 296.898664,112 279.5,112 C262.101336,112 248,86.4677702 248,69.0558826 C248.270624,51.8257313 262.292336,38 279.496102,38 C296.699869,38 310.721581,51.8257313 310.992205,69.0558826 L311,69.0558826 Z" id="Path" fill="url(#linearGradient-3)"></path>
                    <polygon id="Path" fill="#535461" points="282.306477 113 277.693523 113 275 111 285 111"></polygon>
                    <path d="M268,44 C268,44 254.902928,51.3333333 253,66" id="Path" fill="#FFFFFF" opacity="0.1"></path>
                    <path d="M291.992092,74.835789 L281,81.5436686 L270,74.835789 L281,56 L291.992092,74.835789 Z M281,83.7006193 L270,76.9927397 L281,93 L292,76.9927397 L281,83.7006193 Z" id="Shape" fill="#000000" fill-rule="nonzero" opacity="0.2"></path>
                    <path d="M248.559699,33.0151894 C249.038435,29.7575476 246.602451,28.0066908 243.271743,26.8416066 L244.352602,22.4289306 L241.714264,21.7591686 L240.661609,26.0519622 C239.967829,25.8760869 239.255717,25.7102616 238.546426,25.5451542 L239.604017,21.2200569 L236.971321,20.5517307 L235.889757,24.9629709 C235.315838,24.8301671 234.751789,24.6980812 234.205367,24.5595345 L234.205367,24.5458952 L230.569369,23.618422 L229.864308,26.4898559 C229.864308,26.4898559 231.821557,26.9464139 231.780663,26.9751282 C232.84883,27.2464787 233.042017,27.9664908 233.010289,28.5371883 L231.779253,33.5621975 C231.872515,33.5859348 231.964136,33.6159106 232.053522,33.6519298 C231.965389,33.6296762 231.871616,33.605269 231.771497,33.580144 L230.046214,40.6223355 C229.915777,40.9525504 229.584399,41.4485906 228.837034,41.2605117 C228.863122,41.2992761 226.919269,40.7730858 226.919269,40.7730858 L225.619842,43.8512629 L229.049258,44.7234609 C229.688043,44.8864148 230.314137,45.0572651 230.93036,45.2173476 L229.838926,49.6766844 L232.474443,50.3464463 L233.556006,45.9308989 C234.275873,46.1297457 234.974588,46.3135174 235.658497,46.4865213 L234.581165,50.8819687 L237.219502,51.5517307 L238.310936,47.0988546 C242.809929,47.9653098 246.19281,47.6157127 247.617738,43.4729515 C248.764872,40.1370632 247.560628,38.2132025 245.193739,36.9583859 C246.912677,36.5542316 248.213514,35.3999152 248.559699,33.0151894 Z M242.535675,41.5236656 C241.741068,44.9531715 236.36303,43.0993047 234.619842,42.630672 L236.032402,36.5517307 C237.77559,37.0225774 243.369464,37.9472968 242.535675,41.5236656 Z M243.534626,32.7380581 C242.780922,35.7261713 238.128678,34.2077263 236.619842,33.8358911 L237.95079,28.5517307 C239.46034,28.9271005 244.319763,29.6219941 243.534626,32.7380581 Z" id="Shape" fill="#FFFFFF" fill-rule="nonzero"></path>
                    <path d="M206.992092,67.8435432 L196,74.5485592 L185,67.8435432 L196,49 L206.992092,67.8435432 Z M196,76.7045891 L185,69.9995731 L196,86 L207,69.9995731 L196,76.7045891 Z" id="Shape" fill="#000000" fill-rule="nonzero" opacity="0.2"></path>
                    <path d="M278.984534,579.096974 C273.494371,577.845486 268.984595,571.275171 268.984595,571.275171 L268.537539,571.345567 L273.94927,499.690029 C273.94927,499.690029 279.690412,489.279209 273.94927,474.175307 C272.804179,471.171735 271.729676,468.019548 270.725761,464.898649 L271.596344,464.538846 L271.423796,463.568942 L271.596344,463.498546 C271.596344,463.498546 254.898407,372.233747 254.741545,342.526539 C254.741545,338.936331 255.063112,336.37078 255.706245,335.142757 C258.341523,330.128981 263.063063,322.917279 262.866985,313.914383 C263.039533,305.122676 258.623874,294.55542 242.788677,282.627171 C244.051415,272.615263 247.165121,251.535503 252.576853,237.260713 C252.576853,237.260713 254.663114,227.874549 252.576853,213.795303 L249.439617,174.224801 C249.439617,174.224801 249.965104,156 238.459292,156 C226.95348,156 238.984779,176.336688 238.984779,176.336688 L237.941648,227.882371 C237.941648,227.882371 237.596552,230.549606 237.008321,234.742092 C234.239717,231.616788 230.572716,229.418188 226.506424,228.44554 C226.66842,226.561635 226.40027,224.665611 225.722115,222.899882 C225.486823,223.048496 225.243687,223.181467 225.000551,223.314438 C224.906434,223.001566 224.796631,222.688693 224.678984,222.383643 C222.23027,223.897273 219.410869,224.709136 216.530015,224.730184 C213.894737,224.730184 211.306517,224.096618 208.686926,223.901073 C204.241977,223.589557 199.802303,224.576192 195.910533,226.740387 C195.36936,226.685635 194.820344,226.615239 194.271328,226.537021 C183.996881,224.97266 176.851827,238.035071 166.561694,243.377363 C159.346052,247.124006 156.428423,255.892248 155.299018,263.917418 C154.169613,271.942588 154.03628,280.491818 149.808855,287.453223 C146.938285,292.208879 140.514795,294.954332 139.306959,300.36702 C136.954032,310.926454 139.565781,308.321794 142.17753,322.377574 C143.040269,327.023725 144.161831,328.877492 145.259864,333.476713 C146.452013,338.435736 145.134374,343.645057 144.953983,348.713585 C144.499084,362.065403 153.110796,374.955735 165.071507,380.696938 C168.08399,382.28671 171.33334,383.382733 174.694977,383.942986 C174.155656,389.912452 171.661341,395.538979 167.596982,399.954217 C167.996979,400.087188 168.38129,400.196693 168.804817,400.290555 L168.640112,400.470456 C175.542031,402.723136 183.165514,400.118475 189.251751,396.160643 C191.026215,395.001882 192.721448,393.726722 194.326229,392.343603 C193.383981,394.553469 192.618206,396.834096 192.036047,399.164215 L191.988989,399.211146 L190.734095,398.906096 C190.734095,398.906096 191.094877,399.109463 191.745853,399.437978 C188.279208,402.644918 154.26373,433.955596 141.1893,439.939275 C138.310887,440.001849 128.89918,456.74833 153.40099,462.6929 C172.718519,467.385982 176.930258,460.612301 186.81255,472.587481 C189.587977,475.793446 193.165528,478.208891 197.181114,479.587995 C194.357602,488.567425 189.894884,499.838643 184.718445,502.271224 C175.840068,506.440245 161.189178,528.302185 159.62056,536.116166 L146.506915,563.985251 L146.263779,563.985251 L143.604972,566.824565 C142.52925,567.973845 142.091432,569.578452 142.434909,571.112861 C142.778385,572.64727 143.858913,573.913839 145.322608,574.497754 C152.899032,577.509148 165.228369,581.685991 170.804805,579.605391 C179.157695,576.47667 166.098952,573.347949 166.098952,573.347949 C160.875454,571.267349 158.255862,564.493668 158.255862,564.493668 L200.279134,516.851065 C200.279134,516.851065 216.749621,510.484117 220.114307,497.069725 C220.32607,496.217148 222.804486,489.639012 225.659371,482.153546 C228.326021,481.958001 230.859339,481.699882 233.165207,481.449584 C236.898517,481.035029 241.32202,479.56453 245.808267,477.624722 C248.529819,486.799697 250.867059,496.749031 249.870987,501.230924 C247.784725,510.617088 245.165133,522.576625 249.870987,538.196766 L257.965055,572.823888 L258.702305,572.823888 L257.870938,572.949037 L255.714088,576.132511 C254.82186,577.446439 254.639281,579.115506 255.226443,580.590387 C255.813605,582.065267 257.094442,583.154895 258.647404,583.500649 C266.608139,585.299664 279.376688,587.497591 284.529598,584.580058 C292.388373,580.160739 278.984534,579.096974 278.984534,579.096974 Z M210.161426,323.558666 C209.987419,319.783482 210.04242,316.001259 210.326131,312.232695 C211.006141,319.091318 212.201653,325.889329 213.90258,332.569384 C216.180217,337.364403 217.409991,342.587422 217.510401,347.892296 C217.449591,355.305654 214.683819,362.443224 209.730056,367.970864 L209.682998,368.017795 C213.557484,353.641321 210.820246,338.427914 210.161426,323.550845 L210.161426,323.558666 Z" id="Shape" fill="url(#linearGradient-5)" fill-rule="nonzero"></path>
                    <path d="M214.456425,291.510805 C209.962203,299.112062 210.776487,313.007253 217.016722,338.41784 C217.016722,338.41784 224.149538,357.777169 209.883906,374.075641 C195.618274,390.374114 192.564709,404.605921 192.564709,404.605921 C192.564709,404.605921 147.77908,432.349334 142.126069,444.843264 C150.535119,426.251107 122.927754,452.867248 154.864918,460.632899 C173.710899,465.220269 177.790149,458.597547 187.467603,470.308649 C197.145057,482.019751 219.052433,480.485409 232.809137,478.966723 C246.565842,477.448037 270,461.141737 270,461.141737 C270,461.141737 244.021204,351.631971 249.642896,340.930717 C254.943573,330.808755 274.008784,311.574679 236.661328,286.665102 C229.199666,281.733287 219.005455,283.815609 214.456425,291.510805 Z" id="Path" fill="#006D57"></path>
                    <path d="M213.516938,291.510805 C209.027612,299.112062 209.841009,313.007253 216.074446,338.41784 C216.074446,338.41784 223.199491,357.777169 208.9494,374.075641 C194.69931,390.374114 191.649071,404.605921 191.649071,404.605921 C191.649071,404.605921 146.622854,432.224082 141.265383,444.843264 C149.156898,426.251107 122.087984,452.867248 153.990353,460.632899 C172.815802,465.220269 176.890608,458.597547 186.557519,470.308649 C196.22443,482.019751 218.107938,480.485409 231.849655,478.966723 C245.591372,477.448037 269,461.141737 269,461.141737 C269,461.141737 243.049506,351.631971 248.665074,340.930717 C253.959976,330.808755 273.004416,311.574679 235.697649,286.665102 C228.244116,281.733287 218.061011,283.815609 213.516938,291.510805 Z" id="Path" fill="#000000" opacity="0.1"></path>
                    <path d="M200.509203,465.198187 C200.509203,465.198187 193.912413,494.8429 185.28824,498.927492 C176.664067,503.012085 162.456796,524.479758 160.936259,532.146224 L148,560 L159.696437,560 L200.509203,513.24713 C200.509203,513.24713 216.517726,506.963142 219.792728,493.821752 C220.299574,491.779456 234,456 234,456 L200.509203,465.198187 Z" id="Path" fill="#FDB797"></path>
                    <path d="M238,455.868229 C238,455.868229 250.197243,488.558609 248.151354,497.759647 C246.105466,506.960686 243.575436,518.705357 248.151354,534.029953 L256.030367,568 L266.181722,567.489703 L271.515087,496.228758 C271.515087,496.228758 277.106141,486.022827 271.515087,471.200676 C265.924034,456.378525 261.863492,438 261.863492,438 L238,455.868229 Z" id="Path" fill="#FDB797"></path>
                    <path d="M241.070872,290 C241.070872,290 244.081959,259.02033 251.107826,240.224905 C251.107826,240.224905 253.115217,231.08477 251.107826,217.370666 L248.09674,178.772917 C248.09674,178.772917 248.598588,161 237.550218,161 C226.501848,161 238.052065,180.810129 238.052065,180.810129 L237.04837,231.092576 C237.04837,231.092576 230.516629,282.389726 226,287.978399 L241.070872,290 Z" id="Path" fill="#FDB797"></path>
                    <path d="M241.070872,290 C241.070872,290 244.081959,259.02033 251.107826,240.224905 C251.107826,240.224905 253.115217,231.08477 251.107826,217.370666 L248.09674,178.772917 C248.09674,178.772917 248.598588,161 237.550218,161 C226.501848,161 238.052065,180.810129 238.052065,180.810129 L237.04837,231.092576 C237.04837,231.092576 230.516629,282.389726 226,287.978399 L241.070872,290 Z" id="Path" fill="#000000" opacity="0.05"></path>
                    <path d="M237.995862,253 C237.995862,253 235.997635,277.75 242,286 C242,286 227.997044,278.26513 216,284.969741 C216,284.969741 223.501035,263.825648 221.003252,254.545389 L237.995862,253 Z" id="Path" fill="#FDB797"></path>
                    <path d="M214.244435,286.508896 C209.752689,294.11023 207.506815,308.005562 213.743613,333.416406 C213.743613,333.416406 223.916558,352.775931 209.66661,369.074568 C195.416661,385.373206 192.356952,399.605157 192.356952,399.605157 C192.356952,399.605157 154.677929,434.754477 141.946096,439.842908 C141.946096,439.842908 135.834504,451.045286 154.677929,455.632702 C173.521353,460.220119 177.590531,453.59733 187.262654,465.308551 C196.934778,477.019771 218.830086,475.485414 232.579213,473.966713 C246.328339,472.448011 270,462.505999 270,462.505999 C270,462.505999 248.871575,346.646328 254.466695,335.929309 C259.764452,325.807244 273.724863,306.572973 236.405805,281.663144 C228.979555,276.731279 218.790959,278.82145 214.244435,286.508896 Z" id="Path" fill="#000000" opacity="0.1"></path>
                    <path d="M214.244435,285.510805 C209.752689,293.112062 207.506815,307.007253 213.743613,332.41784 C213.743613,332.41784 223.916558,351.777169 209.66661,368.075641 C195.416661,384.374114 192.356952,398.605921 192.356952,398.605921 C192.356952,398.605921 154.677929,433.754884 141.946096,438.843264 C141.946096,438.843264 135.834504,450.045528 154.677929,454.632899 C173.521353,459.220269 177.590531,452.597547 187.262654,464.308649 C196.934778,476.019751 218.830086,474.485409 232.579213,472.966723 C246.328339,471.448037 270,461.506126 270,461.506126 C270,461.506126 248.871575,345.647628 254.466695,334.930717 C259.764452,324.808755 273.724863,305.574679 236.405805,280.665102 C228.979555,275.733287 218.790959,277.815609 214.244435,285.510805 Z" id="Path" fill="url(#linearGradient-6)"></path>
                    <circle id="Oval" fill="#FDB797" cx="229.5" cy="297.5" r="17.5"></circle>
                    <path d="M223.546187,304.900733 L220,358.458118 L231.690728,415.590177 C231.690728,415.590177 221.044372,453.335904 231.690728,449.761231 C242.337084,446.186557 242.843683,415.080629 242.843683,415.080629 L235.720132,355.42435 C235.720132,355.42435 244.340096,310.537115 242.820301,301.333899 C241.300506,292.130684 223.546187,304.900733 223.546187,304.900733 Z" id="Path" fill="#000000" opacity="0.1"></path>
                    <path d="M223.542586,303.920536 L220,357.48068 L231.678855,414.615682 C231.678855,414.615682 221.019953,452.363354 231.647712,448.757138 C242.27547,445.150922 242.820484,414.106108 242.820484,414.106108 L235.727525,354.423237 C235.727525,354.423237 244.338735,309.533689 242.820484,300.33 C241.302232,291.12631 223.542586,303.920536 223.542586,303.920536 Z" id="Path" fill="#FDB797"></path>
                    <path d="M220.552768,270 C227.723183,270 234.247405,267.8833 237.680796,261.95171 C237.727509,257.323944 238,254 238,254 L220.778547,255.609658 C221.868512,259.633803 221.269031,263.110664 220,268.961771 C220.365917,268.953722 220.233564,270 220.552768,270 Z" id="Path" fill="#000000" opacity="0.03"></path>
                    <circle id="Oval" fill="#FDB797" cx="221" cy="251" r="20"></circle>
                    <path d="M243,328 C243,328 244.502732,335.270019 254,336" id="Path" fill="#000000" opacity="0.03"></path>
                    <path d="M190.306234,464.303815 C180.646469,452.561971 176.574675,459.207855 157.763143,454.628535 C138.951611,450.049216 145.016318,438.839669 145.016318,438.839669 C157.731882,433.743709 195.362761,398.604284 195.362761,398.604284 C195.362761,398.604284 198.410745,384.341858 212.650301,368.07549 C226.889857,351.809122 216.722095,332.419424 216.722095,332.419424 C210.46982,307.017902 212.728455,293.115559 217.222277,285.514672 C219.729749,281.288124 224.111028,278.524679 229,278.085998 C223.028023,277.453066 217.232842,280.352255 214.150847,285.514672 C209.66484,293.115559 207.421836,307.010074 213.650665,332.419424 C213.650665,332.419424 223.810612,351.777811 209.578871,368.07549 C195.34713,384.373169 192.291331,398.604284 192.291331,398.604284 C192.291331,398.604284 154.660452,433.751537 141.944888,438.839669 C141.944888,438.839669 135.841104,450.041388 154.660452,454.628535 C173.479799,459.215682 177.543778,452.593282 187.203542,464.303815 C193.885661,472.405687 206.398026,474.174792 218.027258,473.986922 C207.367129,473.814708 196.402202,471.701176 190.306234,464.303815 Z" id="Path" fill="#000000" opacity="0.03"></path>
                    <path d="M228.612454,273.604089 C227.969649,272.18377 226.59781,271.262904 225.563052,270.084508 C222.200086,266.283985 222.780178,260.587102 222.584201,255.522339 C222.385436,250.684433 221.298801,245.923609 219.378017,241.475231 C220.581429,240.881079 221.675878,240.089643 222.615557,239.134046 C225.934063,235.611689 226.947034,230.515022 225.225971,226 C222.833324,227.478773 220.077631,228.272614 217.261465,228.294361 C214.690247,228.294361 212.158224,227.677849 209.587006,227.513966 C205.24248,227.209909 200.903088,228.172609 197.09935,230.284368 C196.566293,230.22974 196.033236,230.167309 195.531534,230.081465 C185.489672,228.567499 178.512891,241.29574 168.46319,246.508778 C161.408017,250.16883 158.562431,258.70635 157.488477,266.541515 C156.414523,274.37668 156.249902,282.711298 152.157902,289.492929 C149.351511,294.128475 143.072408,296.80523 141.896546,302.088503 C139.599695,312.389716 142.147397,309.845628 144.695098,323.557167 C145.541718,328.091261 146.631351,329.901777 147.705305,334.381244 C148.865488,339.219693 147.579879,344.268848 147.407419,349.208747 C146.850845,365.534609 160.216477,381.165919 176.498247,383.218357 C176.038562,389.167801 173.584264,394.790961 169.529305,399.185237 C176.270914,401.385951 183.725879,398.841863 189.667902,394.978908 C199.292786,388.642714 206.317987,379.082418 209.469419,368.031872 C213.475189,353.875509 210.715833,338.829495 210.080868,324.134659 C209.445902,309.439823 211.774109,293.098354 222.999672,283.554124 C226.127465,280.869566 230.297856,277.357789 228.612454,273.604089 Z" id="Path" fill="#000000" opacity="0.1"></path>
                    <path d="M227.612172,273.619697 C226.96937,272.199378 225.597535,271.278512 224.56278,270.100116 C221.199825,266.299593 221.779915,260.60271 221.583939,255.537947 C221.385175,250.700041 220.298543,245.939217 218.377765,241.490839 C219.581174,240.896687 220.675619,240.105251 221.615295,239.149654 C224.939994,235.624161 225.953347,230.519496 224.2257,226 C221.833061,227.478773 219.077377,228.272614 216.26122,228.294361 C213.69001,228.294361 211.157995,227.677849 208.586785,227.513966 C204.242273,227.209909 199.902896,228.172609 196.09917,230.284368 C195.566114,230.22974 195.033059,230.167309 194.531359,230.081465 C184.489529,228.567499 177.51277,241.29574 167.463101,246.508778 C160.407952,250.16883 157.562375,258.70635 156.488424,266.541515 C155.414473,274.37668 155.249853,282.711298 151.157866,289.492929 C148.351485,294.128475 142.072401,296.80523 140.896543,302.088503 C138.5997,312.389716 141.147393,309.845628 143.695086,323.557167 C144.541704,328.091261 145.631332,329.901777 146.705283,334.381244 C147.865463,339.219693 146.579858,344.268848 146.407399,349.208747 C145.850826,365.534609 159.216415,381.165919 175.498133,383.218357 C175.038449,389.167801 172.584159,394.790961 168.529213,399.185237 C175.2708,401.385951 182.725742,398.841863 188.667746,394.978908 C198.31608,388.658869 205.367078,379.103042 208.539751,368.04748 C212.545508,353.891117 209.786161,338.845103 209.151197,324.150267 C208.516234,309.455431 210.844433,293.113962 222.06996,283.569732 C225.127192,280.869566 229.297569,277.357789 227.612172,273.619697 Z" id="Path" fill="#252223"></path>
                    <path d="M159.288685,559.514276 C159.288685,559.514276 161.792062,566.20777 166.806518,568.264872 C166.806518,568.264872 179.338807,571.350526 171.320299,574.444091 C165.928411,576.509106 154.135581,572.371165 146.856532,569.396279 C145.46384,568.805096 144.439205,567.553608 144.111006,566.042898 C143.782808,564.532188 144.192265,562.951991 145.208154,561.808736 L147.757747,559 L159.288685,559.514276 Z" id="Path" fill="#333333"></path>
                    <path d="M267.567888,567 C267.567888,567 271.93351,573.274934 277.229637,574.46435 C277.229637,574.46435 290.163664,575.478404 282.657586,579.648985 C277.663873,582.42429 265.319166,580.335187 257.626987,578.619683 C256.128258,578.286652 254.893404,577.247515 254.327302,575.84298 C253.7612,574.438444 253.936865,572.84966 254.796699,571.597552 L256.882583,568.547766 L267.567888,567 Z" id="Path" fill="#333333"></path>
                    <path d="M191,398 C191,398 202.762861,404.469848 216,403.972755" id="Path" fill="#000000" opacity="0.03"></path>
                    <path d="M511,218 C511,218 505.750903,221.002534 505,227" id="Path" fill="#FFFFFF" opacity="0.1"></path>
                    <path d="M578,194 C578,194 572.003781,195.914807 570,202" id="Path" fill="#FFFFFF" opacity="0.1"></path>
                </g>
            </g>
        </g>
    </g>
</svg>