<?xml version="1.0" encoding="UTF-8"?>
<svg width="641px" height="464px" viewBox="0 0 641 464" version="1.1" xmlns="http://www.w3.org/2000/svg" xmlns:xlink="http://www.w3.org/1999/xlink">
    <!-- Generator: sketchtool 52.2 (67145) - http://www.bohemiancoding.com/sketch -->
    <title>7C95EFD4-4090-4410-8724-4E75F52383A5</title>
    <desc>Created with sketchtool.</desc>
    <defs>
        <linearGradient x1="50.0366418%" y1="100.01391%" x2="50.0366418%" y2="-0.00325046985%" id="linearGradient-1">
            <stop stop-color="#808080" stop-opacity="0.25" offset="0%"></stop>
            <stop stop-color="#808080" stop-opacity="0.12" offset="54%"></stop>
            <stop stop-color="#808080" stop-opacity="0.1" offset="100%"></stop>
        </linearGradient>
        <linearGradient x1="50%" y1="58%" x2="50%" y2="42%" id="linearGradient-2">
            <stop stop-color="#808080" stop-opacity="0.25" offset="0%"></stop>
            <stop stop-color="#808080" stop-opacity="0.12" offset="54%"></stop>
            <stop stop-color="#808080" stop-opacity="0.1" offset="100%"></stop>
        </linearGradient>
        <linearGradient x1="50.1133825%" y1="99.9786495%" x2="50.1133825%" y2="0.34848182%" id="linearGradient-3">
            <stop stop-color="#808080" stop-opacity="0.25" offset="0%"></stop>
            <stop stop-color="#808080" stop-opacity="0.12" offset="54%"></stop>
            <stop stop-color="#808080" stop-opacity="0.1" offset="100%"></stop>
        </linearGradient>
        <linearGradient x1="49.9915974%" y1="99.9808511%" x2="49.9915974%" y2="-0.00714750836%" id="linearGradient-4">
            <stop stop-color="#808080" stop-opacity="0.25" offset="0%"></stop>
            <stop stop-color="#808080" stop-opacity="0.12" offset="54%"></stop>
            <stop stop-color="#808080" stop-opacity="0.1" offset="100%"></stop>
        </linearGradient>
    </defs>
    <g id="Page-1" stroke="none" stroke-width="1" fill="none" fill-rule="evenodd">
        <g id="Artboard" transform="translate(-832.000000, -4681.000000)">
            <g id="9" transform="translate(407.000000, 4406.000000)">
                <g id="undraw_btc_p2p_lth5" transform="translate(425.000000, 275.000000)">
                    <path d="M366.586177,451 C447.517543,451 616.1368,437.313517 616.1368,415.913906 C616.1368,394.514295 691.022763,375.800926 580.867258,361.682445 C470.711752,347.563964 384.611666,350.690058 343.852647,342.301442 C303.093629,333.912826 175.624528,337.938262 123.79208,353.113175 C71.9596325,368.288087 60.1381971,373.086094 61.0475383,394.5 C61.9568795,415.913906 285.654811,451 366.586177,451 Z" id="Path-2" fill-opacity="0.1" fill="#000000"></path>
                    <path d="M161.458678,378 C161.458678,378 139.972437,306.579271 165.488732,254.012805 C176.198637,231.949921 179.756304,207.184279 174.803618,183.242472 C172.438512,171.878797 169.01413,160.751389 164.573481,150" id="Path" stroke="#535461" stroke-width="2"></path>
                    <path d="M181,115.85454 C181,124.609601 165,150 165,150 C165,150 149,124.609601 149,115.85454 C149,107.098319 156.163444,100 165,100 C173.836556,100 181,107.098319 181,115.85454 Z" id="Path" fill="#14345A"></path>
                    <path d="M206.410351,163.736819 C201.572327,171.168357 174,184 174,184 C174,184 174.499978,153.747722 179.338002,146.316184 C182.469194,141.509974 187.942514,138.72903 193.696216,139.020907 C199.449919,139.312784 204.609879,142.633138 207.232391,147.731225 C209.854902,152.829311 209.541542,158.93061 206.410351,163.736819 Z" id="Path" fill="#14345A"></path>
                    <path d="M204.434859,246.870376 C196.652728,250.799452 167,248.08875 167,248.08875 C167,248.08875 182.420282,222.589411 190.216812,218.638708 C197.988431,214.793934 207.402032,217.943279 211.305436,225.693965 C215.208841,233.444651 212.141933,242.897438 204.434859,246.870376 Z" id="Path" fill="#14345A"></path>
                    <path d="M190.333121,308.49483 C183.203227,313.660912 153,316 153,316 C153,316 164.126734,288.361457 171.249308,283.195374 C175.855765,279.77295 181.983675,279.042128 187.293012,281.281982 C192.602349,283.521836 196.273248,288.386491 196.903927,294.01831 C197.534606,299.650129 195.027676,305.179451 190.340441,308.49483 L190.333121,308.49483 Z" id="Path" fill="#14345A"></path>
                    <path d="M139.83112,185.76415 C146.224683,191.775243 176,198 176,198 C176,198 168.708836,169.368966 162.315273,163.357873 C155.914722,157.402924 145.747,157.571932 139.561419,163.736089 C133.375838,169.900245 133.496356,179.743641 139.83112,185.76415 Z" id="Path" fill="#14345A"></path>
                    <path d="M123.780286,258.877961 C131.517692,262.793043 161,260.091995 161,260.091995 C161,260.091995 145.618237,234.661916 137.880831,230.746833 C132.867263,228.156694 126.854647,228.464551 122.129748,231.553317 C117.404849,234.642082 114.693776,240.037084 115.027625,245.686452 C115.361474,251.335821 118.688941,256.371378 123.744497,258.877961 L123.780286,258.877961 Z" id="Path" fill="#14345A"></path>
                    <path d="M117.262696,332.448899 C124.278801,337.646598 154,340 154,340 C154,340 143.050843,312.192314 136.041942,306.994616 C129.025907,301.920681 119.24253,303.446963 114.097492,310.418118 C108.952454,317.389274 110.360369,327.211139 117.255493,332.448899 L117.262696,332.448899 Z" id="Path" fill="#14345A"></path>
                    <path d="M181,115.85454 C181,124.609601 165,150 165,150 C165,150 149,124.609601 149,115.85454 C149,107.098319 156.163444,100 165,100 C173.836556,100 181,107.098319 181,115.85454 Z" id="Path" fill="#00FFA9" opacity="0.25"></path>
                    <path d="M206.410351,163.736819 C201.572327,171.168357 174,184 174,184 C174,184 174.499978,153.747722 179.338002,146.316184 C182.469194,141.509974 187.942514,138.72903 193.696216,139.020907 C199.449919,139.312784 204.609879,142.633138 207.232391,147.731225 C209.854902,152.829311 209.541542,158.93061 206.410351,163.736819 Z" id="Path" fill="#00FFA9" opacity="0.25"></path>
                    <path d="M204.434859,246.870376 C196.652728,250.799452 167,248.08875 167,248.08875 C167,248.08875 182.420282,222.589411 190.216812,218.638708 C197.988431,214.793934 207.402032,217.943279 211.305436,225.693965 C215.208841,233.444651 212.141933,242.897438 204.434859,246.870376 Z" id="Path" fill="#00FFA9" opacity="0.25"></path>
                    <path d="M190.333121,308.49483 C183.203227,313.660912 153,316 153,316 C153,316 164.126734,288.361457 171.249308,283.195374 C175.855765,279.77295 181.983675,279.042128 187.293012,281.281982 C192.602349,283.521836 196.273248,288.386491 196.903927,294.01831 C197.534606,299.650129 195.027676,305.179451 190.340441,308.49483 L190.333121,308.49483 Z" id="Path" fill="#00FFA9" opacity="0.25"></path>
                    <path d="M139.83112,185.76415 C146.224683,191.775243 176,198 176,198 C176,198 168.708836,169.368966 162.315273,163.357873 C155.914722,157.402924 145.747,157.571932 139.561419,163.736089 C133.375838,169.900245 133.496356,179.743641 139.83112,185.76415 Z" id="Path" fill="#00FFA9" opacity="0.25"></path>
                    <path d="M123.780286,258.877961 C131.517692,262.793043 161,260.091995 161,260.091995 C161,260.091995 145.618237,234.661916 137.880831,230.746833 C132.867263,228.156694 126.854647,228.464551 122.129748,231.553317 C117.404849,234.642082 114.693776,240.037084 115.027625,245.686452 C115.361474,251.335821 118.688941,256.371378 123.744497,258.877961 L123.780286,258.877961 Z" id="Path" fill="#00FFA9" opacity="0.25"></path>
                    <path d="M117.262696,332.448899 C124.278801,337.646598 154,340 154,340 C154,340 143.050843,312.192314 136.041942,306.994616 C129.025907,301.920681 119.24253,303.446963 114.097492,310.418118 C108.952454,317.389274 110.360369,327.211139 117.255493,332.448899 L117.262696,332.448899 Z" id="Path" fill="#00FFA9" opacity="0.25"></path>
                    <path d="M566.470033,338 C566.470033,338 544.968858,266.584234 570.48073,214.016102 C581.19808,191.952518 584.75822,167.186091 579.802092,143.243526 C577.435341,131.879491 574.008579,120.75173 569.564844,110" id="Path" stroke="#535461" stroke-width="2"></path>
                    <path d="M585,76.8545402 C585,85.6096009 569,111 569,111 C569,111 553,85.6096009 553,76.8545402 C553,68.0983194 560.163444,61 569,61 C577.836556,61 585,68.0983194 585,76.8545402 Z" id="Path" fill="#14345A"></path>
                    <path d="M609.410351,125.736819 C604.572327,133.168357 577,146 577,146 C577,146 577.499978,115.747722 582.338002,108.316184 C585.469194,103.509974 590.942514,100.72903 596.696216,101.020907 C602.449919,101.312784 607.609879,104.633138 610.232391,109.731225 C612.854902,114.829311 612.541542,120.93061 609.410351,125.736819 Z" id="Path" fill="#14345A"></path>
                    <path d="M609.757965,208.823581 C601.908665,212.838992 572,210.068727 572,210.068727 C572,210.068727 587.604205,183.986978 595.453505,179.971567 C600.558622,177.147248 606.775028,177.370955 611.670131,180.555145 C616.565234,183.739336 619.360657,189.377688 618.962501,195.263814 C618.564345,201.14994 615.035921,206.347878 609.757965,208.823581 Z" id="Path" fill="#14345A"></path>
                    <path d="M595.243578,271.511324 C588.130785,276.666053 558,279 558,279 C558,279 569.100047,251.422197 576.205537,246.267468 C580.797541,242.795922 586.945007,242.029148 592.277398,244.262824 C597.609789,246.4965 601.293997,251.381647 601.909347,257.034492 C602.524697,262.687337 599.975048,268.224707 595.243578,271.511324 Z" id="Path" fill="#14345A"></path>
                    <path d="M544.889476,147.790375 C551.272724,153.788585 581,160 581,160 C581,160 573.7206,131.444545 567.359389,125.410802 C563.227432,121.527333 557.267976,120.071621 551.72589,121.592019 C546.183804,123.112417 541.901063,127.377939 540.490934,132.781806 C539.080804,138.185672 540.757519,143.906907 544.889476,147.790375 Z" id="Path" fill="#14345A"></path>
                    <path d="M527.751306,219.877961 C535.494736,223.793043 565,221.091995 565,221.091995 C565,221.091995 549.634914,195.661916 541.898646,191.746833 C536.881175,189.156694 530.863877,189.464551 526.135299,192.553317 C521.406721,195.642082 518.693537,201.037084 519.027647,206.686452 C519.361756,212.335821 522.691814,217.371378 527.751306,219.877961 Z" id="Path" fill="#14345A"></path>
                    <path d="M521.262696,293.448899 C528.278801,298.646598 558,301 558,301 C558,301 547.050843,273.192314 540.041942,267.994616 C533.025907,262.920681 523.24253,264.446963 518.097492,271.418118 C512.952454,278.389274 514.360369,288.211139 521.255493,293.448899 L521.262696,293.448899 Z" id="Path" fill="#14345A"></path>
                    <path d="M585,76.8545402 C585,85.6096009 569,111 569,111 C569,111 553,85.6096009 553,76.8545402 C553,68.0983194 560.163444,61 569,61 C577.836556,61 585,68.0983194 585,76.8545402 Z" id="Path" fill="#3AD29F" opacity="0.25"></path>
                    <path d="M609.410351,125.736819 C604.572327,133.168357 577,146 577,146 C577,146 577.499978,115.747722 582.338002,108.316184 C585.469194,103.509974 590.942514,100.72903 596.696216,101.020907 C602.449919,101.312784 607.609879,104.633138 610.232391,109.731225 C612.854902,114.829311 612.541542,120.93061 609.410351,125.736819 Z" id="Path" fill="#3AD29F" opacity="0.25"></path>
                    <path d="M609.757965,208.823581 C601.908665,212.838992 572,210.068727 572,210.068727 C572,210.068727 587.604205,183.986978 595.453505,179.971567 C600.558622,177.147248 606.775028,177.370955 611.670131,180.555145 C616.565234,183.739336 619.360657,189.377688 618.962501,195.263814 C618.564345,201.14994 615.035921,206.347878 609.757965,208.823581 Z" id="Path" fill="#3AD29F" opacity="0.25"></path>
                    <path d="M595.243578,271.511324 C588.130785,276.666053 558,279 558,279 C558,279 569.100047,251.422197 576.205537,246.267468 C580.797541,242.795922 586.945007,242.029148 592.277398,244.262824 C597.609789,246.4965 601.293997,251.381647 601.909347,257.034492 C602.524697,262.687337 599.975048,268.224707 595.243578,271.511324 Z" id="Path" fill="#3AD29F" opacity="0.25"></path>
                    <path d="M544.889476,147.790375 C551.272724,153.788585 581,160 581,160 C581,160 573.7206,131.444545 567.359389,125.410802 C563.227432,121.527333 557.267976,120.071621 551.72589,121.592019 C546.183804,123.112417 541.901063,127.377939 540.490934,132.781806 C539.080804,138.185672 540.757519,143.906907 544.889476,147.790375 Z" id="Path" fill="#3AD29F" opacity="0.25"></path>
                    <path d="M527.751306,219.877961 C535.494736,223.793043 565,221.091995 565,221.091995 C565,221.091995 549.634914,195.661916 541.898646,191.746833 C536.881175,189.156694 530.863877,189.464551 526.135299,192.553317 C521.406721,195.642082 518.693537,201.037084 519.027647,206.686452 C519.361756,212.335821 522.691814,217.371378 527.751306,219.877961 Z" id="Path" fill="#3AD29F" opacity="0.25"></path>
                    <path d="M521.262696,293.448899 C528.278801,298.646598 558,301 558,301 C558,301 547.050843,273.192314 540.041942,267.994616 C533.025907,262.920681 523.24253,264.446963 518.097492,271.418118 C512.952454,278.389274 514.360369,288.211139 521.255493,293.448899 L521.262696,293.448899 Z" id="Path" fill="#3AD29F" opacity="0.25"></path>
                    <g id="Group" opacity="0.1" transform="translate(0.000000, 461.000000)" fill="#00FFFF">
                        <path d="M0.621428571,1.76666667 C8.55,-0.9 1.59285714,1.27333333 0.221428571,1.7 C0.348685773,1.74682599 0.484672067,1.76949037 0.621428571,1.76666667 Z" id="Path"></path>
                    </g>
                    <g id="Group" opacity="0.1" transform="translate(0.000000, 463.000000)" fill="#00FFFF">
                        <polygon id="Path" points="0.655 0.27 0.505 0.225 0.505 0.325"></polygon>
                    </g>
                    <path d="M552.521245,373.407144 C552.521245,373.320132 552.521245,373.225868 552.572144,373.131605 C552.623044,373.037342 552.572144,373.080848 552.572144,373.059095 C552.586892,372.878118 552.586892,372.696246 552.572144,372.515269 C552.572144,372.515269 551.597786,370.651757 550.463459,368.092147 C548.914666,364.575403 547.075019,359.738974 547.075019,356.570278 C547.075019,356.570278 530.081921,297.271448 518.59322,290.796288 C518.59322,290.796288 509.140491,274.01018 509.24229,264.562103 C509.255722,261.542673 509.012473,258.527541 508.515157,255.549086 C506.83548,245.129372 504.036018,225.18182 506.595526,221.534558 C509.84581,216.901157 515.262951,196.743325 502.327255,181.523437 L504.59591,181.175388 C504.59591,181.175388 504.472298,181.023116 504.2687,180.725825 L504.59591,180.675067 C504.59591,180.675067 499.593235,174.685726 499.593235,161.452617 C499.665949,153.831796 501.389254,143.876148 506.595526,131.339136 C507.283878,129.676236 507.91406,128.030255 508.486072,126.401193 C510.909156,125.200225 513.119576,123.613168 515.030269,121.702533 L515.262951,121.463249 L515.53199,121.209463 C520.309254,116.423791 523.203243,110.071899 525.217402,103.625743 C527.06647,97.7009013 528.249267,91.5894272 528.743997,85.4039331 C529.282075,78.6822388 528.998493,71.9315404 528.743997,65.1953441 C528.416787,57.3352398 528.016864,49.243103 524.861106,42.0718455 C523.617709,39.2657013 521.952575,36.6118284 521.189085,33.6389108 C520.765172,31.5977924 520.471307,29.5319519 520.309254,27.4537919 C519.269454,19.3108979 515.401106,11.4145385 509.060507,6.18655408 C502.719907,0.958569614 493.856156,-1.36900738 485.923135,0.820800259 C481.385825,2.07522649 477.335695,4.67109118 473.561874,7.5134905 C471.945089,8.72841457 470.418942,10.058852 468.995479,11.4942997 C464.436356,15.9536762 460.997017,21.7979973 464.2982,27.9396101 C464.540578,28.3843392 464.799922,28.8194004 465.076233,29.2447935 C461.547501,34.8593322 460.690009,41.7428568 462.733922,48.047716 C464.777834,54.3525753 469.513782,59.4329319 475.67056,61.9251346 L476.259538,62.9547793 L476.32498,62.9547793 C478.048285,66.1307255 479.924288,70.0970327 480.418739,73.1062054 C478.260154,74.6397214 476.305509,76.4402805 474.601675,78.4647082 C468.719169,85.4619413 465.49797,90.2113585 463.738308,93.3075435 C462.074316,96.1765803 460.143784,98.8834287 457.972143,101.392429 C455.303565,104.539371 452.155079,110.680984 452.155079,122.10859 C452.155079,122.944874 452.155079,123.812579 452.155079,124.711705 C438.070514,140.004104 383.142888,128.794029 383.142888,128.794029 C376.525978,126.227168 368.82564,129.323353 365.21906,131.143359 C364.622073,131.436012 364.191624,131.984314 364.050018,132.632473 C363.908411,133.280632 364.071125,133.957802 364.491927,134.471576 C370.308991,141.461558 384.618968,137.27047 384.618968,137.27047 C384.618968,137.27047 436.085441,146.23998 440.084672,149.227399 C442.804149,151.264936 447.610498,149.604452 450.402689,148.335524 L449.828254,148.980865 L450.555387,148.625565 L446.599783,184.104799 L446.657954,184.104799 L446.599783,184.60512 C446.599783,184.60512 447.515971,184.525358 448.977508,184.423844 L450.199092,187.578037 L450.097293,187.578037 L451.362505,190.565457 L452.402305,193.023552 C449.297447,204.219125 436.783488,250.3066 438.099599,260.827828 C438.099599,260.827828 430.101136,279.760238 433.104195,290.230709 C433.104195,290.230709 422.109945,368.962269 415.114925,372.95033 L416.096555,373.392642 C408.628899,377.64899 392.362934,385.654114 381.136001,381.91984 C381.136001,381.91984 374.140982,383.91387 385.135232,390.88935 C385.135232,390.88935 430.108407,402.84628 436.107255,398.86547 L435.111082,381.629799 L435.620075,381.811075 C435.692789,380.839438 436.347208,373.711687 439.110314,370.46323 C439.110314,370.46323 457.099584,321.62762 456.103412,296.713119 L472.892912,256.252435 C474.710745,260.893087 476.637647,264.83039 478.586363,267.31749 L485.581383,285.25651 L497.077355,300.20811 C497.077355,300.20811 533.055895,357.012591 530.525472,373.958221 L531.368947,374.168501 C528.002321,380.14334 519.625749,392.390311 507.533527,392.390311 C507.533527,392.390311 497.040999,403.353851 516.528162,401.860141 C516.528162,401.860141 541.01073,400.366431 559,390.396281 L552.521245,373.407144 Z" id="Path" fill="url(#linearGradient-1)"></path>
                    <path d="M426.612332,368 C426.612332,368 403.534459,382.993409 389.111694,378.306643 C389.111694,378.306643 382.379136,380.179936 392.956797,386.739994 C392.956797,386.739994 436.232345,397.986818 442,394.233164 L440.549018,369.873293 L426.612332,368 Z" id="Path" fill="#333333"></path>
                    <path d="M533.63458,368.842142 C533.63458,368.842142 524.367295,389.665035 508.754975,389.665035 C508.754975,389.665035 498.5087,400.317589 517.536445,398.86364 C517.536445,398.86364 541.43706,397.402384 559,387.728872 L550.601293,366 L533.63458,368.842142 Z" id="Path" fill="#333333"></path>
                    <polygon id="Path" fill="#FDB797" points="452 184.913187 455.738318 194 480 192.369574 477.517757 177"></polygon>
                    <path d="M456.250029,195 C456.250029,195 440.510737,251.092561 441.94289,262.567026 C441.94289,262.567026 434.314335,280.772887 437.171445,290.837445 C437.171445,290.837445 426.678584,366.545773 420,370.370595 C420,370.370595 439.431225,379.206004 440.028555,378.996326 C446.707139,376.603101 439.553569,378.996326 439.553569,378.996326 C439.553569,378.996326 440.028555,371.332223 442.892861,367.97737 C442.892861,367.97737 460.064306,321.01666 459.107139,297.062722 L482,241.47628 L456.250029,195 Z" id="Path" fill="#E5B02D"></path>
                    <path d="M456,192.092614 L466.515393,216.940471 C466.515393,216.940471 474.643547,257.557992 483.247706,268.547004 L489.940631,285.751585 L500.939242,300.093543 C500.939242,300.093543 535.355879,354.569909 532.961427,370.815475 C532.961427,370.815475 554.468219,376.583986 553.992213,369.373348 C553.992213,369.373348 548.734517,359.336141 548.734517,354.079586 C548.734517,354.079586 532.485422,297.216498 521.486811,291.000929 C521.486811,291.000929 512.457132,274.899575 512.543678,265.843014 C512.548576,262.943553 512.307303,260.048908 511.822458,257.190249 C510.214136,247.196306 507.538409,228.073695 509.990558,224.576536 C513.33702,219.795883 519.070723,197.81786 502.821627,183 L456,192.092614 Z" id="Path" fill="#FFC533"></path>
                    <path d="M552.991777,369.397788 C552.991777,369.397788 547.729041,359.359265 547.729041,354.10202 C547.729041,354.10202 531.46437,297.231476 520.455216,291.015092 C520.455216,291.015092 511.416881,274.911627 511.503511,265.853878 C511.508413,262.954036 511.266909,260.059012 510.781599,257.199978 C509.171736,247.204724 506.493444,228.079606 508.947943,224.581988 C512.297614,219.800709 518.036812,197.819803 501.772141,183 L499,183.540869 C514.549978,198.346249 508.911848,219.858401 505.605492,224.581988 C502.299137,229.305575 508.493139,263.293766 508.493139,263.293766 C506.103611,271.42122 517.105546,291.015092 517.105546,291.015092 C528.10748,297.231476 544.37937,354.10202 544.37937,354.10202 C544.37937,359.359265 549.642107,369.397788 549.642107,369.397788 C549.800927,371.763187 547.555782,372.722328 544.480438,372.945887 C549.115111,373.212716 553.20835,372.563673 552.991777,369.397788 Z" id="Path" fill="#000000" opacity="0.1"></path>
                    <path d="M477,66.6573725 C477,66.6573725 486.348263,80.6583773 483.890539,85 L508,79.1723185 C508,79.1723185 501.599521,72.412208 503.077126,56 L477,66.6573725 Z" id="Path" fill="#FDB797"></path>
                    <path d="M510.813438,75.5886316 C510.813438,75.5886316 490.887848,71.2496958 478.251929,86.1322456 C472.531664,92.8575961 469.400186,97.4279418 467.684106,100.407344 C466.067305,103.165848 464.191432,105.768578 462.08118,108.181271 C458.920367,111.862135 455.048188,119.795156 456.866938,135.972155 L451,187.728427 C451,187.728427 468.014122,186.282116 472.384991,187.728427 C476.75586,189.174739 507.381279,184.372984 507.381279,184.372984 C507.381279,184.372984 495.229382,169.996643 509.324702,136.449438 C523.420022,102.902232 510.813438,75.5886316 510.813438,75.5886316 Z" id="Path" fill="#000000" opacity="0.1"></path>
                    <path d="M510.813438,75.5886316 C510.813438,75.5886316 490.887848,71.2496958 478.251929,86.1322456 C472.531664,92.8575961 469.400186,97.4279418 467.684106,100.407344 C466.067305,103.165848 464.191432,105.768578 462.08118,108.181271 C458.920367,111.862135 455.048188,119.795156 456.866938,135.972155 L451,187.728427 C451,187.728427 468.014122,186.282116 472.384991,187.728427 C476.75586,189.174739 507.381279,184.372984 507.381279,184.372984 C507.381279,184.372984 495.229382,169.996643 509.324702,136.449438 C523.420022,102.902232 510.813438,75.5886316 510.813438,75.5886316 Z" id="Path" fill="#F55F44"></path>
                    <path d="M487,119 C487,119 468.365172,146.61045 459.779455,151.539295 L455,154 C455,154 485.08966,119 487,119 Z" id="Path" fill="#000000" opacity="0.1"></path>
                    <path d="M469.195688,106.677623 C469.195688,106.677623 481.520787,101.891328 486.80608,117.759791 C487.244184,119.071474 486.927873,120.514426 485.979573,121.53016 L457.182341,152.193924 C457.182341,152.193924 449.011525,156.937293 445.168994,154.089841 C441.326463,151.242389 391.837565,142.707188 391.837565,142.707188 C391.837565,142.707188 378.098704,146.69219 372.487159,140.045751 C372.076175,139.562665 371.912996,138.919982 372.044605,138.302742 C372.176213,137.685502 372.588003,137.162201 373.161414,136.883506 C375.843936,135.545633 380.317222,136.318308 385.595265,135.674412 C389.647265,135.196969 393.747029,135.281254 397.775363,135.924816 C414.254745,138.471783 453.078808,142.678571 459.103607,127.060512 C466.788668,107.156968 469.195688,106.677623 469.195688,106.677623 Z" id="Path" fill="#FDB797"></path>
                    <path d="M468,105.858391 C468,105.858391 482.683082,103.525905 486,118 L486,117.062778 C486,117.062778 481.739476,101.193419 468,105.858391 Z" id="Path" fill="#000000" opacity="0.1"></path>
                    <path d="M503,57 L478,67.3343694 C478,67.3343694 479.130225,69.0496763 480.473699,71.4525235 C482.911857,72.4306737 486.281206,71.7998377 489.067671,71.7998377 C494.754336,71.7998377 498.91271,70.3042602 502.729883,66.632653 C502.381575,63.8116111 502.623258,60.8913366 503,57 Z" id="Path" fill="#000000" opacity="0.1"></path>
                    <circle id="Oval" fill="#FDB797" cx="486.5" cy="50.5" r="21.5"></circle>
                    <path d="M487.039495,48.0992575 C487.503066,49.7596346 486.140881,51.2972882 485.156684,52.7049992 C481.711997,57.6355973 482.346732,64.349296 483.922873,70.1678349 C484.693113,73.0193521 485.848475,76.0513451 488.36602,77.5456845 C490.377205,78.7368246 492.851959,78.6862913 495.105627,79.2854709 C499.163654,80.3611065 502.444309,83.6168894 504.377042,87.3635665 C506.309776,91.1102435 507.001566,95.434443 507.229786,99.6792332 C507.918945,111.957245 505.003215,124.16712 498.849852,134.770942 C505.161547,135.861016 511.687197,132.951747 516.215927,128.353224 C520.744657,123.754701 523.469027,117.661839 525.373233,111.47513 C527.122691,105.787762 528.242135,99.9211654 528.710943,93.9834178 C529.217305,87.5296042 528.953426,81.0469144 528.710943,74.5786628 C528.404273,67.0347755 528.04768,59.2887554 525.038036,52.3801428 C523.861279,49.6802253 522.29227,47.1391264 521.564821,44.2803902 C521.163262,42.3221784 520.884563,40.3402012 520.730393,38.3463468 C519.746197,30.5281363 516.087554,22.9481539 510.089661,17.9237084 C504.091768,12.8992629 495.711835,10.7046775 488.20912,12.7765394 C483.930005,13.9821175 480.093065,16.4726832 476.541399,19.2014769 C470.793122,23.6267428 464.196153,30.7519263 468.25418,38.3319087 C471.78445,44.9661981 479.586703,49.2831786 487.039495,48.0992575 Z" id="Path" fill="#000000" opacity="0.1"></path>
                    <path d="M487.053759,48.0776004 C487.517329,49.7379775 486.155144,51.2756311 485.170948,52.6833421 C481.72626,57.6139402 482.360996,64.3276389 483.937136,70.1461778 C484.707377,72.997695 485.862738,76.029688 488.380284,77.5240274 C490.391468,78.7151675 492.866223,78.6646343 495.11989,79.2638138 C499.177918,80.3394494 502.458572,83.5952323 504.391306,87.3419094 C506.32404,91.0885864 507.01583,95.4127859 507.244049,99.6575761 C507.933178,111.944304 505.012312,124.16244 498.849852,134.770942 C505.161547,135.861016 511.687197,132.951747 516.215927,128.353224 C520.744657,123.754701 523.469027,117.661839 525.373233,111.47513 C527.122691,105.787762 528.242135,99.9211654 528.710943,93.9834178 C529.217305,87.5296042 528.953426,81.0469144 528.710943,74.5786628 C528.404273,67.0347755 528.04768,59.2887554 525.038036,52.3801428 C523.861279,49.6802253 522.29227,47.1391264 521.564821,44.2803902 C521.163262,42.3221784 520.884563,40.3402012 520.730393,38.3463468 C519.746197,30.5281363 516.087554,22.9481539 510.089661,17.9237084 C504.091768,12.8992629 495.711835,10.7046775 488.20912,12.7765394 C483.930005,13.9821175 480.093065,16.4726832 476.541399,19.2014769 C470.793122,23.6267428 464.196153,30.7519263 468.25418,38.3319087 C471.805846,44.944541 479.593835,49.2615215 487.053759,48.0776004 Z" id="Path" fill="#72351C"></path>
                    <path d="M491,154 C491,154 500.499129,154 504,149" id="Path" fill="#000000" opacity="0.1"></path>
                    <path d="M491,158 C491,158 500.499129,158 504,153" id="Path" fill="#000000" opacity="0.1"></path>
                    <path d="M498,103 C498,103 496.706897,113.972414 492,119" id="Path" fill="#000000" opacity="0.1"></path>
                    <g id="Group" opacity="0.1" transform="translate(290.000000, 389.000000)" fill="url(#linearGradient-2)">
                        <polygon id="Path" points="0.365 0.725 0.365 0.645 0.245 0.685"></polygon>
                    </g>
                    <g id="Group" opacity="0.1" transform="translate(286.000000, 388.000000)" fill="url(#linearGradient-3)">
                        <path d="M4.19166667,1.63333333 C4.31986811,1.63580677 4.44738618,1.61767086 4.56666667,1.58 C3.28333333,1.22 -3.20833333,-0.486666667 4.19166667,1.63333333 Z" id="Path"></path>
                    </g>
                    <path d="M362.715744,135.480394 C359.036027,133.689315 351.182083,130.629253 344.43351,133.159968 C344.43351,133.159968 279.711202,145.951316 271.551827,125.285023 C271.168827,124.318178 270.797946,123.387591 270.439186,122.49326 C270.602406,121.138784 270.672867,119.774791 270.650078,118.410761 C270.678243,116.733367 270.559009,115.056737 270.293742,113.400091 C269.866991,110.975584 268.932841,108.667904 267.552134,106.627348 C265.94666,103.943849 264.632668,101.097328 263.632435,98.1360398 C260.45613,89.5033533 253.724279,82.6403339 245.139308,79.2825795 C245.262935,76.1935125 247.451858,71.6324254 249.43716,68.0865246 L249.50261,68.0865246 L250.1062,67.0713383 C258.657172,63.8232939 264.337555,55.681142 264.417829,46.5573233 C264.417342,42.2618343 263.128241,38.0646895 260.716295,34.5056114 C267.559406,33.4106604 265.217768,27.6095957 260.985365,22.6351827 C260.164611,21.6712703 259.288031,20.7560404 258.360112,19.8941797 C254.227617,15.8359807 249.025445,13.0298789 243.357626,11.8016944 C242.681315,11.6566678 241.997731,11.5478978 241.314147,11.4536305 C233.065235,8.62009994 223.967467,9.72999222 216.646948,14.4629328 C214.839621,9.34838985 209.969586,5.94680191 204.531513,6.00062972 C197.492053,6.00062972 191.790672,11.5043898 191.790672,18.3278922 C191.790672,25.1513945 197.492053,30.6551547 204.531513,30.6551547 L205.25873,30.6551547 C204.787487,32.5952665 204.543452,34.5833227 204.531513,36.579492 C204.531513,48.9937704 213.352655,59.4211842 225.279013,62.3362192 L225.489906,62.5320052 C225.489906,62.7350424 225.453545,62.945331 225.424456,63.1483683 L225.475362,63.1918763 C225.020973,66.8437509 223.86547,70.3741847 222.071986,73.5902848 L221.621112,73.4815148 C212.218197,80.0077126 208.814821,89.9057792 208.894815,100.217172 C208.84391,108.976779 211.272815,118.142462 214.712551,125.59683 C215.975881,128.577296 216.600106,131.788279 216.545137,135.02356 C216.363333,146.190609 211.207365,159.591069 207.702179,167.437009 C206.313195,170.54783 186.176558,219.102741 186.176558,219.102741 L186.634704,218.98672 L186.176558,220.088922 C190.583492,218.856196 195.310402,219.4218 199.32464,220.502248 C204.907349,221.963811 210.84487,221.127728 215.803376,218.181822 C216.342504,220.513689 217.26917,222.739158 218.544984,224.766031 C221.155693,228.391696 218.305002,248.057305 216.58877,258.346944 C216.086148,261.288297 215.842813,264.26789 215.861553,267.251578 C215.956092,276.584041 206.327739,293.160584 206.327739,293.160584 C194.605002,299.556257 177.275422,358.103503 177.275422,358.103503 C177.275422,361.236078 175.399202,366.007453 173.821142,369.480841 C172.672139,372.011555 171.639491,373.831639 171.639491,373.831639 C171.624482,374.010193 171.624482,374.189685 171.639491,374.368238 C171.639491,374.368238 171.639491,374.418997 171.639491,374.440751 C171.651699,374.533413 171.66869,374.625385 171.690396,374.716302 L165,391.546641 C183.347684,401.386697 208.320314,402.865968 208.320314,402.865968 C228.195153,404.316234 217.497792,393.519003 217.497792,393.519003 C205.135103,393.519003 196.626665,381.423783 193.186929,375.528451 L194.052317,375.318162 C191.507058,358.589342 228.231514,302.500298 228.231514,302.500298 L239.954251,287.736588 L247.088249,269.949073 C249.073552,267.498124 251.044309,263.61141 252.905985,259.028569 L270.024672,298.954397 C269.006568,323.558163 287.354252,371.772261 287.354252,371.772261 C290.19767,374.97735 290.837621,382.018392 290.910343,382.975568 L291.426667,382.801536 L290.408563,399.820409 C296.524458,403.757882 342.397303,391.945464 342.397303,391.945464 C353.610988,385.0567 346.47699,383.091589 346.47699,383.091589 C335.030595,386.775265 318.435504,378.871314 310.843359,374.672794 L311.839646,374.237714 C304.705648,370.300241 293.491963,292.565974 293.491963,292.565974 C296.553546,282.232828 288.401444,263.560651 288.401444,263.560651 C289.332282,256.381833 283.470913,232.271158 278.744003,214.483644 C284.812157,214.432108 290.862218,213.815483 296.815344,212.641806 C296.437192,212.402512 296.088127,212.148715 295.702702,211.916672 C296.429919,211.778897 296.815344,211.691881 296.815344,211.691881 C281.063825,201.648788 272.089968,167.727062 268.213902,148.511035 C269.183411,149.331723 270.227894,150.060039 271.333662,150.686435 L276.424181,153.144636 L275.842407,152.51377 C278.685826,153.76825 283.587268,155.414302 286.365237,153.391181 C290.444924,150.439889 342.935443,141.586014 342.935443,141.586014 C342.935443,141.586014 357.479782,145.726524 363.464778,138.823257 C363.917269,138.316144 364.097485,137.622944 363.949051,136.960498 C363.800618,136.298053 363.341659,135.747252 362.715744,135.480394 Z" id="Path" fill="url(#linearGradient-4)"></path>
                    <ellipse id="Oval" fill="#FFC533" cx="234" cy="41.5" rx="26" ry="25.5"></ellipse>
                    <path d="M254,67.6573725 C254,67.6573725 244.651737,81.6583773 247.109461,86 L223,80.1723185 C223,80.1723185 229.400479,73.412208 227.922874,57 L254,67.6573725 Z" id="Path" fill="#FDB797"></path>
                    <path d="M228,58 L253,68.3343694 C253,68.3343694 251.868166,70.0496763 250.522779,72.4525235 C248.08115,73.4306737 244.707005,72.7998377 241.916572,72.7998377 C236.221811,72.7998377 232.057517,71.3042602 228.234909,67.632653 C228.590831,64.8116111 228.32033,61.8913366 228,58 Z" id="Path" fill="#000000" opacity="0.1"></path>
                    <circle id="Oval" fill="#FDB797" cx="241.5" cy="51.5" r="21.5"></circle>
                    <circle id="Oval" fill="#FFC533" cx="206.5" cy="24.5" r="12.5"></circle>
                    <path d="M256.116194,39.4431021 C250.688736,39.3491268 244.519187,38.2647972 240.452231,41.8286272 C237.542066,44.387645 236.756322,48.5225552 235.766866,52.2671067 C234.311783,57.8911628 230.979645,64.0718414 225.188417,64.9103897 C221.652566,65.423639 218.09489,63.6742539 215.584873,61.1441516 C213.074856,58.6140492 211.452439,55.3610604 209.917327,52.1731314 C208.382215,48.9852024 206.88348,45.6671539 207.007162,42.1322394 C207.159946,37.9322695 209.62631,34.1804891 212.143603,30.8190674 C213.661944,28.7082231 215.353164,26.7255936 217.200014,24.891399 C222.965542,19.3712962 230.809944,16.5284495 238.798434,17.0640333 C246.786925,17.5996172 254.175849,21.4637736 259.142765,27.7034271 C263.660796,33.1467616 265.908898,39.6093659 256.116194,39.4431021 Z" id="Path" fill="#000000" opacity="0.1"></path>
                    <path d="M256.11865,38.4431021 C250.690921,38.3491268 244.521063,37.2647972 240.453904,40.8286272 C237.543594,43.387645 236.75781,47.5225552 235.768305,51.2671067 C234.313149,56.8911628 230.980844,63.0718414 225.189326,63.9103897 C221.653299,64.423639 218.095445,62.6742539 215.585302,60.1441516 C213.075159,57.6140492 211.452661,54.3610604 209.917473,51.1731314 C208.382284,47.9852024 206.883474,44.6671539 207.007162,41.1322394 C207.159954,36.9322695 209.626442,33.1804891 212.14386,29.8190674 C213.662277,27.7082231 215.353582,25.7255936 217.200524,23.891399 C222.966341,18.3712962 230.811135,15.5284495 238.800025,16.0640333 C246.788915,16.5996172 254.178209,20.4637736 259.145373,26.7034271 C263.656354,32.1467616 265.911845,38.6093659 256.11865,38.4431021 Z" id="Path" fill="#FFC533"></path>
                    <path d="M303.387668,370 C303.387668,370 326.465541,384.993409 340.888306,380.306643 C340.888306,380.306643 347.620864,382.179936 337.043203,388.739994 C337.043203,388.739994 293.767655,399.986818 288,396.233164 L289.450982,371.873293 L303.387668,370 Z" id="Path" fill="#333333"></path>
                    <path d="M195.36542,369.842142 C195.36542,369.842142 204.632705,390.665035 220.245025,390.665035 C220.245025,390.665035 230.4913,401.317589 211.463555,399.86364 C211.463555,399.86364 187.56294,398.402384 170,388.728872 L178.398707,367 L195.36542,369.842142 Z" id="Path" fill="#333333"></path>
                    <path d="M271.749971,195 C271.749971,195 287.489263,251.065843 286.05711,262.56245 C286.05711,262.56245 293.685665,280.769027 290.828555,290.833981 C290.828555,290.833981 301.321416,366.545284 308,370.370255 C308,370.370255 288.568775,379.206013 287.971445,378.996326 C281.292861,376.603007 288.446431,378.996326 288.446431,378.996326 C288.446431,378.996326 287.971445,371.331921 285.107139,367.976937 C285.107139,367.976937 267.935694,321.014382 268.892861,297.059502 L246,241.470876 L271.749971,195 Z" id="Path" fill="#3AD29F"></path>
                    <path d="M271.749971,195 C271.749971,195 287.489263,251.065843 286.05711,262.56245 C286.05711,262.56245 293.685665,280.769027 290.828555,290.833981 C290.828555,290.833981 301.321416,366.545284 308,370.370255 C308,370.370255 288.568775,379.206013 287.971445,378.996326 C281.292861,376.603007 288.446431,378.996326 288.446431,378.996326 C288.446431,378.996326 287.971445,371.331921 285.107139,367.976937 C285.107139,367.976937 267.935694,321.014382 268.892861,297.059502 L246,241.470876 L271.749971,195 Z" id="Path" fill="#000000" opacity="0.1"></path>
                    <path d="M275,193.099825 L264.483833,217.947681 C264.483833,217.947681 256.355081,258.565203 247.750289,269.554214 L241.056871,286.758795 L230.064663,301.093543 C230.064663,301.093543 195.645493,355.569909 198.040121,371.815475 C198.040121,371.815475 176.531747,377.583986 177.007787,370.373348 C177.007787,370.373348 182.265871,360.336141 182.265871,355.079586 C182.265871,355.079586 198.516162,298.216498 209.515582,292.000929 C209.515582,292.000929 218.545926,275.899575 218.459373,266.843014 C218.454475,263.943553 218.695766,261.048908 219.180647,258.190249 C220.789086,248.196306 223.465011,229.073695 221.012681,225.576536 C217.665972,220.795883 211.931848,198.81786 228.182139,184 L275,193.099825 Z" id="Path" fill="#3AD29F"></path>
                    <path d="M177.009907,370.390729 C177.009907,370.390729 182.27248,360.352586 182.27248,355.095541 C182.27248,355.095541 198.536643,298.22715 209.545453,292.011001 C209.545453,292.011001 218.583506,275.908146 218.496879,266.850741 C218.491977,263.951009 218.733473,261.056093 219.218768,258.197169 C220.828581,248.202293 223.50679,229.077899 221.052367,225.580413 C217.702801,220.799315 211.963782,198.819242 228.227946,184 L231,184.540848 C215.399975,199.352879 221.045148,220.900273 224.351401,225.587625 C227.657653,230.274976 221.463844,264.297937 221.463844,264.297937 C223.853297,272.425083 212.851706,292.018212 212.851706,292.018212 C201.850114,298.234362 185.578732,355.102752 185.578732,355.102752 C185.578732,360.359797 180.31616,370.397941 180.31616,370.397941 C180.157344,372.76325 182.40242,373.722355 185.477668,373.945905 C180.864796,374.212724 176.771684,373.563706 177.009907,370.390729 Z" id="Path" fill="#000000" opacity="0.1"></path>
                    <path d="M222.626878,79 L240.616235,83.3531205 C250.817423,85.8335908 259.057621,93.2084863 262.527755,102.963713 C263.472916,105.822711 264.718883,108.576887 266.245409,111.181485 C267.560601,113.168948 268.445694,115.401422 268.845576,117.739899 C269.57596,122.401905 269.517529,129.951624 264.550918,138.514197 C264.550918,138.514197 272.738523,198.976599 294,212.783031 C294,212.783031 273.249791,217.480953 255.06323,211.669609 C242.873122,207.776224 229.499791,209.414032 219.055301,216.7698 L218.602462,217.093051 C213.703513,220.693198 207.397324,221.887043 201.489566,220.33275 C197.676962,219.291161 193.1851,218.745226 189,219.937665 C189,219.937665 208.128756,172.965626 209.450751,169.948612 C213.906093,159.755414 221.209933,139.871854 216.097245,128.565234 C208.990609,112.826476 206.390442,89.5020828 222.626878,79 Z" id="Path" fill="#000000" opacity="0.1"></path>
                    <path d="M222.626878,78 L240.616235,82.3536066 C250.817423,84.8343538 259.057621,92.2100729 262.527755,101.966389 C263.472916,104.825706 264.718883,107.58019 266.245409,110.185079 C267.560601,112.172763 268.445694,114.405487 268.845576,116.744225 C269.57596,121.406751 269.517529,128.957313 264.550918,137.520843 C264.550918,137.520843 272.738523,197.989996 294,211.79797 C294,211.79797 273.249791,216.496417 255.06323,210.684424 C242.873122,206.790604 229.499791,208.428595 219.055301,215.785184 L218.602462,216.108472 C213.699867,219.701566 207.393996,220.887543 201.489566,219.326979 C197.676962,218.285275 193.1851,217.739278 189,218.93185 C189,218.93185 208.128756,171.954567 209.450751,168.937216 C213.906093,158.735695 221.209933,138.849914 216.097245,127.513295 C208.990609,111.801517 206.390442,89.4300134 222.626878,78 Z" id="Path" fill="#535461"></path>
                    <path d="M244,122 C244,122 262.626435,149.605739 271.222698,154.537726 L276,157 C276,157 245.90948,122 244,122 Z" id="Path" fill="#000000" opacity="0.1"></path>
                    <path d="M260.80848,108.677524 C260.80848,108.677524 248.480496,103.891928 243.193966,119.758074 C242.755759,121.069566 243.072144,122.512307 244.020666,123.527893 L272.824639,154.194334 C272.824639,154.194334 280.997368,158.93701 284.840798,156.089974 C288.684229,153.242938 338.184712,144.708983 338.184712,144.708983 C338.184712,144.708983 351.832516,148.664789 357.481634,142.112314 C357.905954,141.627584 358.083242,140.978546 357.963253,140.349143 C357.843263,139.71974 357.439074,139.178567 356.865235,138.878997 C353.884763,137.398252 348.431443,137.448326 342.564773,136.954744 C340.5358,136.781922 338.492591,136.873316 336.487802,137.226572 C323.942264,139.422652 277.531029,146.246955 270.902924,129.064591 C263.216063,109.149646 260.80848,108.677524 260.80848,108.677524 Z" id="Path" fill="#FDB797"></path>
                    <path d="M261,108.860314 C261,108.860314 246.316918,106.528198 243,121 L243,120.062926 C243,120.062926 247.260524,104.189036 261,108.860314 Z" id="Path" fill="#000000" opacity="0.1"></path>
                    <path d="M416,84.9992254 C416,106.435411 402.965334,125.760852 382.974046,133.964125 C362.982759,142.167398 339.971791,137.633009 324.671122,122.475337 C309.370453,107.317665 304.793287,84.5217531 313.073949,64.7172999 C321.354612,44.9128467 340.862368,32 362.500782,32 C392.047584,32 416,55.7285615 416,84.9992254 Z M385.453954,77.4484929 C386.515793,70.3948983 381.090233,66.6051223 373.686453,64.0762033 L376.079227,54.5153044 L370.180931,53.074325 L367.839067,62.3758475 C366.297219,61.993988 364.711734,61.6553578 363.133521,61.2807031 L365.489931,51.9143365 L359.620726,50.473357 L357.213407,60.0198461 C355.933382,59.7316502 354.682449,59.4434543 353.46788,59.1480535 L345.373177,57.145092 L343.809511,63.3557136 C343.809511,63.3557136 348.173232,64.3427845 348.071411,64.4076286 C350.449639,64.9984302 350.878739,66.5690978 350.80601,67.7867255 L348.064139,78.6733255 C348.271878,78.7247811 348.475962,78.7897665 348.67506,78.8678577 L348.056866,78.7165549 L344.216791,93.9621178 C344.046385,94.4999317 343.666622,94.948279 343.161568,95.2079112 C342.656515,95.4675435 342.067831,95.5170451 341.52583,95.3454581 C341.584013,95.4319169 337.256657,94.2935431 337.256657,94.2935431 L334.347509,100.950868 L341.984021,102.838551 C343.438594,103.191591 344.798621,103.559041 346.16592,103.904876 L343.736782,113.566644 L349.598714,115.007623 L352.006033,105.446724 C353.562427,105.864608 355.121245,106.265681 356.682487,106.649942 L354.282441,116.167612 L360.151645,117.608591 L362.580783,107.961233 C372.58825,109.834507 380.122941,109.077993 383.286639,100.1151 C385.839416,92.9102028 383.163,88.7313623 377.890171,86.015116 C381.722972,85.1361185 384.617574,82.643224 385.388498,77.4773125 L385.453954,77.4484929 Z M372.042785,96.0803576 C370.231841,103.285255 357.955239,99.3946105 353.97698,98.4219493 L357.198861,85.6188466 C361.162574,86.6059175 373.926458,88.5512398 372.028239,96.0803576 L372.042785,96.0803576 Z M373.861002,77.3476244 C372.202788,83.9184908 361.991681,80.5754184 358.675253,79.761265 L361.584401,68.1541753 C364.893556,68.9683287 375.570126,70.4957669 373.817365,77.3476244 L373.861002,77.3476244 Z" id="Shape" fill="#FFFFFF" fill-rule="nonzero" opacity="0.5"></path>
                    <path d="M357.574458,367 C357.574458,367 345.934329,328.150152 359.790219,299.55376 C365.661509,287.59899 367.43155,274.094675 364.834767,261.066995 C363.550909,254.890755 361.69422,248.843148 359.28798,243" id="Path" stroke="#535461" stroke-width="2"></path>
                    <path d="M367.992842,225.562559 C367.992842,230.292696 359.496421,244 359.496421,244 C359.496421,244 351,230.299907 351,225.562559 C351,222.503451 352.620091,219.676719 355.25,218.147165 C357.879909,216.617612 361.120091,216.617612 363.75,218.147165 C366.379909,219.676719 368,222.503451 368,225.562559 L367.992842,225.562559 Z" id="Path" fill="#14345A"></path>
                    <path d="M381.66627,249.752051 C379.179601,253.876299 365,261 365,261 C365,261 365.258446,244.195565 367.745115,240.063818 C370.235275,235.936933 375.370306,234.758537 379.214527,237.431798 C383.058748,240.105059 384.156431,245.617667 381.66627,249.744553 L381.66627,249.752051 Z" id="Path" fill="#14345A"></path>
                    <path d="M379.298841,295.85841 C375.084922,297.974616 359,296.500326 359,296.500326 C359,296.500326 367.377414,282.984821 371.598535,280.896831 C374.326428,279.549806 377.58094,279.730262 380.136128,281.370222 C382.691316,283.010183 384.158986,285.860499 383.986281,288.847485 C383.813576,291.834471 382.026734,294.504331 379.298841,295.851356 L379.298841,295.85841 Z" id="Path" fill="#14345A"></path>
                    <path d="M373.438799,329.028414 C369.538999,331.765019 353,333 353,333 C353,333 359.0902,318.369689 362.989999,315.633084 C365.513473,313.863205 368.841024,313.504338 371.719196,314.691664 C374.597368,315.87899 376.588898,318.432125 376.943596,321.389329 C377.298294,324.346533 375.962273,327.258536 373.438799,329.028414 Z" id="Path" fill="#14345A"></path>
                    <path d="M345.806152,262.177498 C349.194998,265.530061 365,269 365,269 C365,269 361.128063,253.029477 357.739217,249.68425 C355.574733,247.385419 352.349795,246.471548 349.328957,247.300984 C346.308118,248.13042 343.972907,250.570948 343.238999,253.665596 C342.505091,256.760243 343.489473,260.015717 345.806152,262.15549 L345.806152,262.177498 Z" id="Path" fill="#14345A"></path>
                    <path d="M337.677737,302.857936 C341.896518,304.975021 358,303.500119 358,303.500119 C358,303.500119 349.605708,289.979004 345.415774,287.897203 C342.684734,286.549619 339.426467,286.73015 336.86833,288.370791 C334.310194,290.011432 332.840831,292.862932 333.013735,295.851158 C333.186639,298.839383 334.975543,301.510352 337.706584,302.857936 L337.677737,302.857936 Z" id="Path" fill="#14345A"></path>
                    <path d="M333.561572,343.028514 C337.461301,345.76505 354,347 354,347 C354,347 347.909911,332.370055 344.010182,329.633518 C340.1093,326.897592 334.60801,327.678257 331.722706,331.377183 C328.837402,335.076109 329.660691,340.292587 333.561572,343.028514 Z" id="Path" fill="#14345A"></path>
                    <path d="M367.992842,225.562559 C367.992842,230.292696 359.496421,244 359.496421,244 C359.496421,244 351,230.299907 351,225.562559 C351,222.503451 352.620091,219.676719 355.25,218.147165 C357.879909,216.617612 361.120091,216.617612 363.75,218.147165 C366.379909,219.676719 368,222.503451 368,225.562559 L367.992842,225.562559 Z" id="Path" fill="#FFFFFF" opacity="0.5"></path>
                    <path d="M381.66627,249.752051 C379.179601,253.876299 365,261 365,261 C365,261 365.258446,244.195565 367.745115,240.063818 C370.235275,235.936933 375.370306,234.758537 379.214527,237.431798 C383.058748,240.105059 384.156431,245.617667 381.66627,249.744553 L381.66627,249.752051 Z" id="Path" fill="#FFFFFF" opacity="0.5"></path>
                    <path d="M379.298841,295.85841 C375.084922,297.974616 359,296.500326 359,296.500326 C359,296.500326 367.377414,282.984821 371.598535,280.896831 C374.326428,279.549806 377.58094,279.730262 380.136128,281.370222 C382.691316,283.010183 384.158986,285.860499 383.986281,288.847485 C383.813576,291.834471 382.026734,294.504331 379.298841,295.851356 L379.298841,295.85841 Z" id="Path" fill="#FFFFFF" opacity="0.5"></path>
                    <path d="M373.438799,329.028414 C369.538999,331.765019 353,333 353,333 C353,333 359.0902,318.369689 362.989999,315.633084 C365.513473,313.863205 368.841024,313.504338 371.719196,314.691664 C374.597368,315.87899 376.588898,318.432125 376.943596,321.389329 C377.298294,324.346533 375.962273,327.258536 373.438799,329.028414 Z" id="Path" fill="#FFFFFF" opacity="0.5"></path>
                    <path d="M345.806152,262.177498 C349.194998,265.530061 365,269 365,269 C365,269 361.128063,253.029477 357.739217,249.68425 C355.574733,247.385419 352.349795,246.471548 349.328957,247.300984 C346.308118,248.13042 343.972907,250.570948 343.238999,253.665596 C342.505091,256.760243 343.489473,260.015717 345.806152,262.15549 L345.806152,262.177498 Z" id="Path" fill="#FFFFFF" opacity="0.5"></path>
                    <path d="M337.677737,302.857936 C341.896518,304.975021 358,303.500119 358,303.500119 C358,303.500119 349.605708,289.979004 345.415774,287.897203 C342.684734,286.549619 339.426467,286.73015 336.86833,288.370791 C334.310194,290.011432 332.840831,292.862932 333.013735,295.851158 C333.186639,298.839383 334.975543,301.510352 337.706584,302.857936 L337.677737,302.857936 Z" id="Path" fill="#FFFFFF" opacity="0.5"></path>
                    <path d="M333.561572,343.028514 C337.461301,345.76505 354,347 354,347 C354,347 347.909911,332.370055 344.010182,329.633518 C340.1093,326.897592 334.60801,327.678257 331.722706,331.377183 C328.837402,335.076109 329.660691,340.292587 333.561572,343.028514 Z" id="Path" fill="#FFFFFF" opacity="0.5"></path>
                </g>
            </g>
        </g>
    </g>
</svg>